<?xml version="1.0" encoding="utf-8"?>
<!-- Generator: Adobe Illustrator 16.0.0, SVG Export Plug-In . SVG Version: 6.00 Build 0)  -->
<!DOCTYPE svg PUBLIC "-//W3C//DTD SVG 1.1//EN" "http://www.w3.org/Graphics/SVG/1.1/DTD/svg11.dtd">
<svg version="1.1" id="Layer_1" xmlns="http://www.w3.org/2000/svg" xmlns:xlink="http://www.w3.org/1999/xlink" x="0px" y="0px"
	 width="89.5px" height="96.2px" viewBox="0 0 89.5 96.2" style="enable-background:new 0 0 89.5 96.2;" xml:space="preserve">
<style type="text/css">
<![CDATA[
	.st0{fill:#79A540;}
]]>
</style>
<path class="st0" d="M55.3,8c-0.8-0.2-1.8-0.7-2.3-1.3c-0.6-0.7-1-0.8-1.3-0.8c-0.3,0-0.7,0.1-1.2,0.4c-1.4,0.8-2.8,1.1-3.8,1.1
	c-1.1,0.1-2.2,0.2-3.4,0.3c-2.7,0.2-5.5,0.4-8,1.2c-6.6,2.1-13,6.1-19.5,12.2c-7.6,7-11.3,16.6-11.3,29.4c0,6.3,1.3,11.3,4,15.4
	c1.4,2.3,3.1,4.3,4.9,6.5c0.5,0.7,1.1,1.3,1.6,2c2.2,2.7,5,4.7,8.4,5.8c1.4,0.5,2.8,1,4.1,1.5c2.7,1,5.4,2,8.1,2.8
	c4.3,1.2,8.5,1.9,12.4,1.9c3.8,0,7.3-0.6,10.3-1.8c19.3-8.9,28.3-23,27.7-43C85.6,25,72.7,10.9,55.3,8z M58,83.8
	c-2.9,1.3-6,1.9-9.6,1.9c-2.7,0-5.6-0.3-9-1.1c-4.4-1-8.9-2.3-12.8-3.8c-8.5-3.1-14.8-9.2-18.7-18c-0.4-1-0.7-1.8-0.9-2.5l-0.1-0.2
	c-0.7-1.2-1.2-2.5-1.4-3.8c-0.1-0.9-0.2-1.7-0.2-2.5c-0.2-0.6-0.2-1.1-0.2-1.8c-0.5-12.8,3.3-23,11.5-30.9c1.7-1.7,3.6-3.3,5.5-4.7
	l0.7-0.5c0.9-0.7,2.3-1.3,3.4-1.3c0.1-0.1,0.2-0.2,0.3-0.2c3.4-2.6,8.4-4.4,14.3-5.2c2.4-0.4,4.5-0.5,5.9-0.4c2.5,0,5,0.2,7.4,0.5
	c4.9,0.2,9.6,1.8,15.3,5c2.3,1.1,4.2,2.8,5.5,5.3c5.5,5.6,8.7,11.6,9.8,18.2C89.1,65.6,69.9,78.5,58,83.8z"/>
<g>
	<g>
		<path class="st0" d="M23.1,59.7c-0.1,1.1-0.2,2.3-0.3,3.4c-0.1,1.2,0.1,1.3,1.3,1.2h0.1c2.2-0.4,4.5-0.8,6.7-1.1
			c0.5-0.1,0.9-0.2,1.4,0.2c0.1,0.1,0.4,0,0.6-0.1c0.1,0,0.1-0.3,0-0.5c-0.1-0.4-0.3-0.8-0.3-1.3c-0.1-0.8-0.1-1.6-0.1-2.3
			c-0.1-1.6-0.8-2.7-2.3-3.3c0,0,0,0-0.1-0.1c0.1-0.2,0.2-0.4,0.3-0.6c0.7-1.2,0.3-3.2-0.8-4c-0.5-0.3-1-0.6-1.5-0.9
			c-0.1-0.1-0.4-0.1-0.5,0c-0.4,0.2-0.8,0.5-1.1,0.7c-1.6,1-1.9,3.2-0.7,4.6c0.1,0.1,0.3,0.3,0.4,0.5c-0.3,0.2-0.6,0.3-0.9,0.4
			C24.1,57.2,23.3,58.3,23.1,59.7z M25.9,53.4c0.7,0.2,0.7,0.1,0.9-0.6c0.1-0.5,0.4-0.9,0.6-1.3c0.1-0.1,0.5-0.2,0.7-0.1
			c1.5,0.5,2.1,1.9,1.6,3.3c-0.3,0.8-0.9,1.2-1.8,1.1C26.6,55.6,25.8,54.6,25.9,53.4z M27.1,56.4c0.5,0.3,1.2,0.3,1.9,0.2
			c1.1-0.2,2.2,0.7,2.5,1.9c0,0.1,0,0.3,0,0.4c0.1,1,0.2,2.1,0.2,3.2c-2.7,0.4-5.4,0.9-8.2,1.3c0-0.3,0-0.6,0.1-0.9
			c0.1-0.7,0.1-1.4,0.2-2.1c0.1-1.5,0.7-2.6,2.1-3.3C26.3,56.9,26.7,56.7,27.1,56.4z"/>
	</g>
	<g>
		<path class="st0" d="M63.7,51.4c-1.1-0.9-3-0.4-4.1,0.9c-0.9,1-0.8,2.6,0.4,3.8c-0.5,0.5-1.2,0.7-1.5,1.4
			c-0.4,0.8-0.8,1.5-0.9,2.3c-0.2,1.4-0.3,2.8-0.4,4.3c0,0.6,0.3,0.7,0.8,0.5c0.2-0.1,0.4-0.2,0.6-0.2c2.3-0.3,4.6-0.7,6.9-1
			c0.2,0,0.3,0.1,0.5,0.2c0.2,0.1,0.4,0.3,0.5,0.2c0.1-0.1,0.3-0.3,0.3-0.5c0-0.7,0-1.4,0-2.1c-0.1-1.4-0.5-2.6-1.4-3.6
			c-0.5-0.5-0.8-1.1-1.3-1.6C65.2,54.3,65,52.5,63.7,51.4z M59.8,54.4c-0.1-0.7,0-1.2,0.6-1.7c0.5-0.4,1-0.8,1.7-0.6
			c0.3,0.1,0.7-0.1,0.9,0c0.4,0.3,0.7,0.7,0.9,1.1c0.4,0.9,0.3,1.7-0.5,2.3c-0.3,0.2-0.8,0.3-1.1,0.4c-0.5-0.1-0.9-0.1-1.3-0.2
			C60.3,55.5,59.9,55.1,59.8,54.4z M65.6,59.7c0.2,0.8,0.3,1.6,0.4,2.5c0,0.3-0.2,0.4-0.4,0.4c-1.5,0.2-3,0.4-4.6,0.6
			c-1,0.1-2,0.3-3,0.4c0-0.5,0.1-0.9,0.1-1.3c0.2-1.1,0.3-2.2,0.5-3.3c0.2-1.2,1.1-1.8,2.1-2.3c0.2-0.1,0.4-0.1,0.6-0.1s0.3,0,0.5,0
			c0.6,0,1.4-0.1,1.8,0.2C64.5,57.6,65.3,58.5,65.6,59.7z"/>
	</g>
	<g>
		<path class="st0" d="M43.6,41.3c0.8,0.9,1.6,1.9,2.5,2.8c0.8,0.8,1.7,1.4,2.5,2.2c0.4,0.3,0.8,0.6,1.2,1c1.9,2.1,3.8,4.3,5.4,6.6
			c0.2,0.2,0.3,0.5,0.5,0.6c0.1,0.1,0.4,0.1,0.6,0c0.1-0.1,0.1-0.4,0-0.5c-0.1-0.2-0.3-0.4-0.4-0.6c-1.4-1.8-2.9-3.6-4.3-5.4
			c-0.8-1-1.7-1.9-2.7-2.6c-0.8-0.5-1.5-1.2-2.1-1.9c-0.8-0.8-1.5-1.6-2.2-2.4c-0.1-0.1-0.3-0.3-0.3-0.4c-0.3-0.6-0.7-0.6-1.1-0.6
			c-0.4,0-0.3,0.3-0.3,0.6c0,0.1-0.1,0.2-0.1,0.2c-1,1.8-2.2,3.5-3.7,4.9c-2.2,2.2-4.1,4.7-5.9,7.3c-0.1,0.1-0.2,0.2-0.2,0.4
			c0,0.3,0.1,0.5,0.2,0.8c0.2-0.1,0.5-0.2,0.6-0.3c0.4-0.5,0.7-1,1-1.5c1.8-2.5,3.7-4.8,5.8-7C41.7,44.1,42.6,42.7,43.6,41.3z"/>
	</g>
	<g>
		<g>
			<path class="st0" d="M38.9,27.1c-0.2,1.2-0.3,2.5-0.5,3.7c-0.1,1,0.2,1.2,1.1,1.1c2.6-0.2,5.3-0.5,7.8-1.3c0.2-0.1,0.5,0,0.8,0.1
				c0.5,0.2,0.7,0.1,0.7-0.4c0-1.6,0-3.3-0.6-4.9c-0.4-1.1-1-1.7-2-2.1c-0.3-0.1-0.5-0.2-0.8-0.2c0.2-0.3,0.3-0.5,0.4-0.7
				c1-1.5,1.1-3,0-4.5c-0.1-0.1-0.2-0.3-0.2-0.4c0-0.7-0.5-0.9-1.1-1c-1.4-0.3-3.7,1.4-4,3c0,0.3-0.1,0.6,0,0.9
				c0.3,0.9,0.7,1.8,1.1,2.8C39.9,23.8,39.2,25.3,38.9,27.1z M41.5,19.5c0.1-0.4,0.4-0.7,0.6-1c0.2-0.3,0.5-0.5,0.8-0.7
				c0.6-0.5,1.1-0.6,1.7-0.1c0.7,0.6,1,1.6,1.2,2.4c-0.2,1-0.6,1.8-1.3,2.4c-0.5,0.4-1.1,0.4-1.8,0C41.9,22,41.2,20.6,41.5,19.5z
				 M42,23.7c0.2-0.1,0.5-0.1,0.8-0.1c0.4,0,0.9,0.1,1.3,0.2c0.8,0.2,1.7,0.4,2.5,0.7c0.3,0.1,0.6,0.5,0.7,0.8
				c0.4,1.4,0.9,2.8,0.5,4.4c-2.7,0.8-5.5,1.3-8.5,1.4c0.2-1.2,0.4-2.3,0.4-3.5C39.8,25.8,40.7,24.6,42,23.7z"/>
		</g>
		<g>
			<path class="st0" d="M41.8,26.1c0.2-0.3,0.3-0.6,0.5-0.9c-0.4-0.2-0.9,0-1.1,0.5c0,0.1,0.1,0.3,0.1,0.5
				C41.5,26.2,41.8,26.2,41.8,26.1z"/>
		</g>
		<g>
			<path class="st0" d="M42.7,19.6c0.1,0.1,0.4,0,0.5-0.1c0.2-0.3,0.4-0.6,0.6-1.1c-0.7,0-1,0.3-1.2,0.7
				C42.5,19.3,42.6,19.6,42.7,19.6z"/>
		</g>
	</g>
	<g>
		<path class="st0" d="M24.9,61.2c0.2,0,0.4-0.2,0.5-0.3c0.4-0.5,0.8-1.1,1.1-1.6c0.1-0.1,0.2-0.3,0.4-0.4c-0.3-0.4-0.6-0.3-0.9-0.1
			c-0.7,0.4-1.1,1.1-1.4,1.8C24.6,60.9,24.7,61.1,24.9,61.2z"/>
	</g>
	<g>
		<path class="st0" d="M60,58.1c-0.7,0.5-0.9,1.3-0.9,2.1c0,0.2,0.2,0.3,0.4,0.5c0,0,0.3-0.2,0.4-0.3c0.3-0.7,0.6-1.4,1-2.2
			C60.6,57.9,60.4,57.9,60,58.1z"/>
	</g>
	<g>
		<path class="st0" d="M60.7,54.1c0.2,0,0.4,0,0.5-0.1c0.3-0.4,0.5-0.8,0.7-1.2c0.1-0.1,0-0.3-0.1-0.4c-0.2,0.1-0.3,0.1-0.3,0.1
			c-0.4,0.4-0.7,0.8-1,1.3C60.5,53.7,60.6,54,60.7,54.1z"/>
	</g>
	<g>
		<g>
			<path class="st0" d="M22.6,51.6c-0.1,0.1-0.2,0.2-0.3,0.2c-1,0.3-2.1,0.7-3.1,1c-1.2,0.3-2.3,0.6-3.5,1c-0.2,0.1-0.5,0.1-0.7,0.2
				c-0.1-0.2-0.2-0.1-0.3-0.1c-0.1,0.1-0.2,0.2-0.3,0c0,0.1,0,0.2,0,0.2c0,0.4-0.1,0.7-0.1,1c0,0,0,0.1,0,0.1
				c-0.1,0.1-0.1,0.2-0.1,0.3c0.1,0.2,0.1,0.4,0,0.6c0,0,0,0.2,0,0.2c0.1,0.2,0.2,0.3,0.2,0.5c0.2,0.5,0.4,1,0.6,1.4
				c0.1,0.1,0.1,0.3,0.3,0.4c0.1,0.1,0.2,0.1,0.3,0.1c0.2,0,0.3,0,0.5-0.1c0.1,0,0.3-0.1,0.4-0.1c0.1,0,0.2-0.1,0.3-0.1
				c0.4-0.1,0.7-0.1,1.1-0.2c0.3-0.1,0.5-0.2,0.8-0.3c0.2,0,0.3,0,0.5-0.2c0.1-0.1,0.4-0.2,0.6-0.2c0.1,0,0.1,0,0.2-0.1
				c0,0,0,0,0,0.1c0.1,0,0.2,0.1,0.3,0.1c0.2,0,0.1-0.2,0.1-0.3c0.2-0.1,0.5-0.2,0.7-0.3c0.8-0.3,1.6-0.6,2.4-0.9
				c0.2-0.1,0.3-0.1,0.3-0.3c0-0.1,0-0.2,0.1-0.3c0-0.1,0-0.1-0.1-0.2c0,0-0.1-0.1-0.1-0.1c0-0.1,0-0.2,0-0.4
				c0.1-0.1,0.1-0.1,0.1-0.3c0-0.1-0.1-0.2-0.1-0.3c-0.1-0.3-0.3-0.5-0.3-0.8c-0.2-0.6-0.4-1.2-0.5-1.8
				C22.7,51.8,22.6,51.7,22.6,51.6z M14.7,54.1c0.2,0.1,0.4,0.1,0.5,0c0.8-0.3,1.5-0.5,2.3-0.7c0.1,0,0.1,0,0.2-0.1
				c0.1,0.2,0.2,0.4,0.2,0.6c-0.1,0-0.1,0.1-0.2,0.1c-0.5,0.3-0.6,0.7-0.4,1.3c0.1,0.1,0.2,0.3,0.2,0.4c0.1,0.1,0.1,0.4,0,0.6
				c0-0.1,0-0.2,0-0.4c-0.1,0.1-0.2,0.1-0.2,0.1l0,0c-0.2-0.3-0.4-0.2-0.6,0.1c0,0.1-0.1,0.2-0.1,0.3c-0.1-0.2-0.2-0.4-0.3-0.6
				c0,0,0,0-0.1,0c0,0-0.1,0.1-0.1,0.1c0,0.3,0.1,0.5,0.2,0.7c0.1,0.1,0.1,0.1,0.3,0c0.3,0.2,0.3,0.2,0.6-0.2
				c0.3,0.3,0.5,0.1,0.6-0.5c0.4,0.2,0.4,0.2,0.7,0.1c0,0.1,0.1,0.2,0.1,0.3c-0.7,0.2-1.4,0.4-2,0.6c-0.1,0-0.2,0.1-0.3,0.1
				c-0.2,0.1-0.3,0-0.3-0.1c-0.1-0.3-0.2-0.5-0.3-0.7c-0.2-0.3-0.3-0.6-0.5-0.9c-0.1-0.1-0.1-0.2-0.2-0.3c-0.1-0.3-0.3-0.5-0.5-0.7
				c-0.1,0-0.1-0.1-0.2-0.2C14.7,54.1,14.7,54.1,14.7,54.1z M18.3,55.5c-0.3-0.2-0.3-0.6-0.1-1c0.2,0.5,0.3,0.9,0.5,1.4
				c-0.1,0-0.2,0-0.3,0C18.5,55.7,18.5,55.7,18.3,55.5z M18,54.6c-0.2,0.2-0.2,0.5-0.1,0.8c0,0.1,0.1,0.1,0.1,0.2
				c-0.2-0.1-0.3-0.4-0.3-0.7s0.1-0.6,0.4-0.7C18.2,54.3,18.2,54.4,18,54.6z M17.1,56.5c-0.2-0.1-0.2-0.1-0.1-0.3
				C17.2,56.2,17.2,56.3,17.1,56.5z M16.1,57.9c0.2-0.1,0.4-0.1,0.6-0.2c0.6-0.3,1.3-0.5,2-0.6c0,0,0.1,0,0.1,0c0,0,0,0,0,0
				c-0.1,0-0.1,0.1-0.2,0.1c-0.5,0.2-1.1,0.3-1.6,0.5c-0.3,0.1-0.7,0.2-1,0.3C16.1,58,16.1,57.9,16.1,57.9
				C16.1,57.8,16.1,57.9,16.1,57.9z M16.1,57.7c0-0.1,0-0.2,0-0.3c0.5,0.1,0.8-0.2,1.3-0.2C17,57.4,16.6,57.5,16.1,57.7z M18.8,56.9
				c-0.3,0.1-0.7,0.2-1,0.2c0,0,0,0,0,0c0.4-0.1,0.7-0.2,1.1-0.3C18.9,56.7,18.9,56.7,18.8,56.9C18.9,56.8,18.8,56.8,18.8,56.9z
				 M15.9,57c-0.3-0.4-0.6-0.7-0.8-1.1c-0.1-0.3-0.3-0.5-0.4-0.8c-0.1-0.1-0.1-0.3-0.2-0.5C14.8,54.7,15.8,56.5,15.9,57z M15.9,57.8
				c0,0.2-0.1,0.4-0.2,0.6c-0.1,0.2-0.2,0.2-0.3,0.1c-0.1-0.2-0.2-0.4-0.3-0.5c-0.2-0.5-0.4-1-0.6-1.5c0-0.1,0-0.1,0-0.2
				c0,0,0,0,0.1,0c0.1,0.3,0.2,0.6,0.4,0.9c0.2,0.4,0.3,0.7,0.5,1c0,0.1,0.1,0.2,0.2,0.1s0.1-0.2,0-0.3c-0.2-0.4-0.4-0.8-0.6-1.2
				c-0.2-0.3-0.3-0.6-0.4-1c-0.1-0.1-0.1-0.3-0.1-0.4c0,0,0.1,0,0.1,0c0.1,0.2,0.2,0.4,0.2,0.7c0.1,0.3,0.3,0.6,0.5,0.8
				c0.1,0.1,0.2,0.4,0.3,0.5c0.1,0.1,0.1,0.2,0.2,0.3C15.9,57.7,15.9,57.8,15.9,57.8z M18.7,58c-0.7,0.3-1.4,0.4-2,0.5
				c-0.2,0-0.4,0.1-0.6,0.1c0-0.2,0.1-0.2,0.2-0.2c0.8-0.2,1.6-0.5,2.5-0.7c0.1,0,0.1,0,0.2-0.1C18.9,57.8,18.9,57.9,18.7,58z
				 M19.1,57.1c0.3-0.1,0.6-0.2,0.9-0.3c0,0,0,0,0,0.1C19.8,56.9,19.5,57,19.1,57.1C19.1,57.1,19.1,57.1,19.1,57.1z M19.1,56.7
				c0.3-0.1,0.6-0.3,0.9-0.4c0,0,0,0,0.1,0c0,0.1-0.1,0.1-0.1,0.1C19.7,56.6,19.4,56.6,19.1,56.7C19.1,56.7,19.1,56.7,19.1,56.7z
				 M19.8,57.5c-0.2,0.1-0.4,0.2-0.6,0.2c0-0.1,0-0.2,0-0.3c0-0.1,0-0.1,0.1-0.1c0.3-0.1,0.5-0.2,0.8-0.3
				C20.1,57.3,20.1,57.4,19.8,57.5z M19.1,56.4c-0.4-1-0.7-2.1-1.1-3.1c0.3-0.1,0.7-0.2,1.1-0.3c0.3,1,0.7,2,1,2.9
				C19.8,56.1,19.5,56.2,19.1,56.4z M20.1,55.2c-0.1-0.4-0.3-0.8-0.4-1.3c0.2,0,0.3,0.1,0.3,0.2c0,0.1,0.1,0.3,0.1,0.4
				C20.2,54.8,20.2,55,20.1,55.2C20.1,55.2,20.1,55.2,20.1,55.2z M23.1,56.4c-0.9,0.3-1.7,0.6-2.6,0.9c-0.1,0-0.1,0-0.2,0.1
				c0-0.4,0-0.4,0.3-0.5c0.9-0.3,1.7-0.6,2.6-0.9c0.1,0,0.1,0,0.2-0.1C23.4,56.2,23.3,56.3,23.1,56.4z M23.3,55.7
				C23.3,55.7,23.3,55.7,23.3,55.7c-1,0.4-1.9,0.7-2.9,1c0,0-0.1,0-0.1,0c0,0,0,0,0,0c0.1,0,0.2-0.1,0.3-0.1
				c0.9-0.3,1.7-0.6,2.6-0.9c0,0,0.1,0,0.1,0C23.3,55.6,23.4,55.6,23.3,55.7C23.4,55.6,23.4,55.7,23.3,55.7z M23.2,55.3
				c-0.6,0.2-1.2,0.4-1.8,0.6c-0.4,0.1-0.7,0.3-1.1,0.4c-0.1-0.2,0-0.2,0.1-0.3c1-0.3,1.9-0.5,2.9-1c0,0,0,0,0.1,0
				C23.4,55.3,23.3,55.3,23.2,55.3z M23.3,54.6c-0.1,0.1-0.1,0.2-0.1,0.2c0,0.1-0.1,0.1-0.1,0.1c-0.8,0.3-1.6,0.5-2.4,0.8
				c-0.1,0-0.1,0-0.2,0.1c-0.1-0.2-0.1-0.3,0-0.5c0.1-0.2,0.1-0.5,0-0.8c-0.1-0.2-0.1-0.4-0.2-0.5c0-0.2-0.1-0.2-0.3-0.3
				c-0.2,0-0.4-0.2-0.4-0.4c0-0.1-0.1-0.3-0.1-0.4c0.5-0.1,1.1-0.3,1.6-0.4c0.5-0.2,1-0.3,1.6-0.5C22.8,52.9,22.9,53.8,23.3,54.6z"
				/>
		</g>
		<g>
			<path class="st0" d="M22.4,54c-0.1,0.1,0,0.2,0.1,0.2c0.1,0.1,0.1,0.2,0,0.3c0-0.1,0-0.2-0.1-0.3c-0.1,0-0.1,0-0.2,0.1
				c0,0,0,0,0,0c-0.1,0-0.2-0.1-0.3-0.1c-0.1,0-0.2,0.1-0.2,0.3c0,0,0,0.1-0.1,0.1c-0.1,0.2,0,0.3,0.1,0.4C21.9,55,22,55,22.1,55
				c0.2-0.1,0.3-0.2,0.5-0.2c0.3-0.1,0.3-0.6,0-0.8C22.6,53.9,22.5,53.9,22.4,54z M22.1,54.7c-0.2-0.2-0.2-0.2,0-0.4
				C22.1,54.5,22.1,54.6,22.1,54.7z"/>
		</g>
		<g>
			<path class="st0" d="M21.8,52.5c-0.1,0-0.2-0.1-0.2-0.1c-0.1,0-0.2,0.1-0.3,0.1c-0.2,0.1-0.5,0.2-0.7,0.3c0,0-0.1,0.1-0.1,0.1
				c0.1,0,0.1,0,0.2,0c0.3-0.1,0.6-0.2,1-0.4C21.7,52.7,21.7,52.6,21.8,52.5z"/>
		</g>
		<g>
			<path class="st0" d="M21.5,54.4c0,0-0.1-0.1-0.1-0.1c0,0-0.1,0.1-0.1,0.1c0.1,0.2,0.2,0.4,0.3,0.6c0,0,0.1,0,0.1,0
				c0,0,0.1-0.1,0.1-0.1C21.7,54.8,21.6,54.6,21.5,54.4z"/>
		</g>
		<g>
			<path class="st0" d="M15.8,54.3c0.4-0.1,0.7-0.2,1-0.4c0,0,0.1-0.1,0.1-0.2c0-0.1-0.1-0.1-0.2,0c-0.3,0.2-0.6,0.3-0.9,0.4
				c-0.1,0-0.1,0.1-0.2,0.1c0,0,0,0,0,0C15.8,54.3,15.8,54.4,15.8,54.3z"/>
		</g>
	</g>
	<g>
		<g>
			<path class="st0" d="M49,18.2c0.1,0.2,0.3,0.3,0.5,0.4c0,0,0.1,0.1,0.1,0.1c0,0.2,0.1,0.4,0.1,0.7c0,0.2,0.1,0.5,0.1,0.8
				c0,0.6,0.1,1.2,0.1,1.8c0.1,0,0.2,0,0.2,0c0.4,0.1,0.8,0.2,1.2,0.2c0.3,0,0.6,0,0.8-0.1c0.1,0,0.2-0.1,0.2-0.2
				c0.1-0.1,0.1-0.2,0.2-0.3c0.1-0.1,0.2-0.2,0.1-0.4c0,0,0-0.1,0-0.2c0-0.7,0-1.4,0-2c0-0.1,0-0.2,0.1-0.3c0.6-0.5,1-1,1.3-1.7
				c0.4-0.8,0.4-1.6,0.2-2.4c0-0.3-0.1-0.6-0.2-0.8c-0.3-0.4-0.6-0.9-1-1.3c-0.3-0.3-0.7-0.5-1.2-0.6c-1.8-0.3-3.2,0.5-3.9,1.8
				c-0.1,0.2-0.2,0.6-0.3,0.9c0,0.3,0,0.6,0,0.9c0,0.5,0.1,1,0.4,1.4C48.3,17.2,48.6,17.7,49,18.2z M50.1,21.4c0-0.3,0-0.7-0.1-1
				c0,0,0.1,0,0.1,0c0.6,0,1.3,0,1.9,0c0.3,0,0.3,0,0.3,0.3c0,0.1,0,0.2-0.2,0.2c-0.3,0-0.6,0.1-0.8,0.1
				C51,21.2,50.6,21.3,50.1,21.4z M50,20.1c0.1,0,0.1-0.1,0.2-0.1c0.4-0.1,0.9-0.2,1.3-0.3c0.3,0,0.5-0.1,0.8-0.2c0,0.2,0,0.4,0,0.7
				C51.6,20.2,50.8,20.3,50,20.1C50.1,20.2,50.1,20.1,50,20.1z M52.3,21.4c-0.3,0.3-0.6,0.4-1,0.4c-0.3,0.1-0.7-0.1-1.1-0.2
				c0.7-0.4,1.5-0.5,2.2-0.6C52.5,21.2,52.4,21.3,52.3,21.4z M47.8,15.3c0-0.3,0-0.5,0-0.8c0.1-0.7,0.5-1.3,1-1.8
				c0.5-0.5,1.1-0.8,1.8-0.8c0.4,0,0.7,0,1.1,0.1c0.7,0,1.1,0.5,1.5,1c0.8,0.8,0.8,1.8,0.8,2.7c0,0.6-0.2,1.1-0.6,1.5
				c-0.3,0.4-0.5,0.7-0.8,1.1c0,0-0.1,0.1-0.1,0.1c-0.1,0-0.2,0.1-0.2,0.2c0,0.1,0,0.2-0.1,0.3c-0.8-0.1-1.7,0-2.5,0c0,0,0,0,0,0.1
				c0,0,0.1,0,0.2,0c0.4,0,0.8-0.1,1.3-0.1c0.3,0,0.6,0,0.9,0c0,0.2-0.1,0.4-0.3,0.4c-0.5,0.1-0.9,0.2-1.4,0.3
				c-0.2,0-0.3,0.1-0.5,0.1c-0.1-0.4-0.2-0.8-0.2-1.2c0-0.1,0-0.2-0.1-0.2c0,0-0.1-0.1-0.1-0.1c-0.4-0.6-0.8-1.1-1.3-1.7
				C47.9,16.3,47.8,15.8,47.8,15.3z"/>
		</g>
		<g>
			<path class="st0" d="M52,16.6c-0.1,0.3-0.2,0.6-0.3,0.9c-0.1,0.3-0.2,0.6-0.3,0.9c-0.5-1.1-1.3-2.4-1.7-2.5
				c0,0.1,0.1,0.2,0.1,0.3c0.4,0.8,0.8,1.5,1.3,2.3c0,0,0.1,0.1,0.2,0.1c0,0,0.1,0,0.1,0c0.1,0,0.2,0,0.2-0.1
				c0.1-0.1,0.1-0.3,0.2-0.4c0.2-0.7,0.3-1.4,0.5-2.1c0-0.1,0-0.1,0-0.2c0,0,0,0-0.1,0C52.1,16,52,16.3,52,16.6z"/>
		</g>
		<g>
			<path class="st0" d="M49.5,15.8c0,0-0.1-0.1-0.2-0.1c0.1,0,0.2-0.1,0.2-0.1c0.1,0,0.3,0,0.4,0.1c0.2,0.1,0.4,0.1,0.5-0.1
				c0,0,0.1-0.1,0.2,0c0.3,0.1,0.3,0.1,0.5-0.1c0.3,0.2,0.5,0.1,0.7-0.1c0,0,0.1,0,0.1,0c0.2,0,0.4,0,0.6,0c0,0-0.1,0.1-0.2,0.2
				c0,0,0,0.1-0.1,0.2c0.1,0,0.1,0,0.2,0c0.1-0.1,0.2-0.1,0.3-0.2c0-0.1,0-0.2,0-0.3c0-0.1-0.1-0.1-0.3-0.1c-0.1,0-0.3,0.1-0.5,0
				c-0.2-0.1-0.3,0-0.5,0.1c-0.1,0.1-0.2,0.1-0.3,0.1c-0.1-0.1-0.2-0.1-0.3,0.1c0,0-0.1,0.1-0.2,0c-0.1,0-0.3-0.1-0.4,0
				c-0.1,0.2-0.3,0.2-0.5,0.1c-0.1,0-0.2-0.1-0.3-0.1c-0.1,0-0.3,0-0.3,0.1c0,0,0,0.2,0,0.3C49.3,15.9,49.4,15.9,49.5,15.8z"/>
		</g>
	</g>
	<g>
		<g>
			<path class="st0" d="M61.9,47.7c0.2,1.5,1.1,2.5,2.5,3c0.5,0.2,1.1,0.3,1.6,0.5c0.6,0.2,0.7,0.5,0.6,1c-0.1,0.5-0.2,1.1-0.3,1.6
				c0,0.1,0,0.3,0.1,0.4c0.1,0,0.2,0,0.4,0c1.3-0.6,2.4-1.6,3.4-2.6c0.4-0.4,0.7-0.8,1-1.3c0.8-1.3,0.6-2.6,0-3.9
				c-0.7-1.2-1.7-2.1-3-2.6c-0.4-0.1-0.8-0.1-1.2-0.2c-0.5,0.1-1,0.1-1.5,0.3c-0.4,0.2-0.8,0.2-1.2,0.2c-0.6,0.1-1.1,0.3-1.4,0.8
				c-0.1,0.1-0.1,0.2-0.2,0.3C61.8,45.9,61.7,46.8,61.9,47.7z M62.2,46.6c0-0.2,0.2-0.5,0.4-0.7c0.2-0.2,0.4-0.4,0.6-0.6
				c0.3-0.4,0.7-0.6,1.2-0.7c0.5-0.1,1.1-0.3,1.6-0.4c0.3,0,0.6,0,1,0c0.1,0,0.2,0,0.3,0c0.1,0,0.2-0.1,0.3-0.1
				c1.8,0.6,3,1.6,3.6,3.4c0,0.1,0.1,0.2,0.1,0.3c0.2,0.7,0.2,1.3-0.2,2c-0.4,0.7-0.8,1.3-1.4,1.8c-0.4,0.3-0.8,0.6-1.1,1
				c-0.5,0.5-1.1,0.9-1.8,1.2c0.1-0.5,0.2-0.9,0.2-1.3c0.1-0.8-0.1-1.3-1-1.5c-0.6-0.1-1.1-0.3-1.6-0.5c-0.6-0.2-1.2-0.6-1.5-1.1
				C62.2,48.5,62.1,47.6,62.2,46.6z"/>
		</g>
		<g>
			<path class="st0" d="M68.5,45.6c0.6,0.2,1.1,0.6,1.4,1.1c0,0.1,0.1,0.1,0.1,0.2c0.2-0.2,0.2-0.3,0.1-0.5c-0.4-0.6-1-1-1.7-1.2
				c-0.1,0-0.2,0-0.3,0.1c0,0.1,0,0.2,0.1,0.3C68.3,45.5,68.4,45.5,68.5,45.6z"/>
		</g>
		<g>
			<path class="st0" d="M67.8,45.6c0,0,0,0.1,0,0.2c0,0,0.1,0.1,0.1,0.1c0.4,0.3,0.9,0.5,1.3,0.8c0,0,0.1,0,0.2,0.1c0,0,0-0.1,0-0.1
				c-0.3-0.6-0.9-0.9-1.5-1.2C68,45.5,67.9,45.6,67.8,45.6z"/>
		</g>
	</g>
	<g>
		<g>
			<path class="st0" d="M28.3,35.7L28.3,35.7c0,0.3,0.1,0.5,0.2,0.7s0.3,0.2,0.5,0.2c0.1,0,0.2,0,0.3,0c0.1,0,0.2,0,0.2-0.1
				c0.1,0,0.1-0.1,0.2-0.1l0,0l0.1,0.3c-0.1,0.1-0.2,0.2-0.4,0.2c-0.1,0.1-0.2,0.1-0.3,0.2s-0.2,0.1-0.3,0.1c-0.2,0-0.4,0-0.6-0.1
				s-0.3-0.2-0.4-0.3c-0.1-0.1-0.2-0.3-0.3-0.4s-0.1-0.4-0.1-0.6s0-0.4,0.1-0.6c0.1-0.2,0.2-0.4,0.3-0.5c0.1-0.1,0.3-0.2,0.5-0.3
				c0.2-0.1,0.4-0.1,0.6-0.1c0.7,0,1,0.3,1,1c0,0,0,0.1,0,0.1s0,0.1,0,0.1c0,0,0,0.1,0,0.1l-0.1,0.1H28.3z M29.1,35.3
				C29.2,35.3,29.2,35.3,29.1,35.3c0.1-0.1,0.1-0.1,0.1-0.1c0-0.3-0.1-0.4-0.4-0.4c-0.2,0-0.3,0.1-0.4,0.2c-0.1,0.1-0.2,0.3-0.2,0.5
				L29.1,35.3z"/>
		</g>
		<g>
			<path class="st0" d="M31.9,36.8c0.1,0,0.2-0.1,0.2-0.1c0-0.1,0.1-0.1,0.1-0.2l0-1c0-0.3-0.1-0.5-0.4-0.5c-0.1,0-0.2,0-0.3,0.1
				c-0.1,0.1-0.2,0.1-0.2,0.1c0,0.1,0,0.2,0,0.4c0,0.1,0,0.3,0,0.4c0,0.1,0,0.2,0,0.4c0,0.1,0,0.2,0,0.2c0,0.1,0,0.2,0,0.2
				c0,0,0.1,0.1,0.1,0.1c0,0,0,0,0,0s0,0,0.1,0c0,0,0,0,0.1,0l0,0l-0.1,0.4c-0.1,0-0.2,0-0.2,0c-0.1,0-0.1,0-0.2,0
				c-0.1,0-0.1,0-0.2,0c-0.1,0-0.2,0-0.2,0s-0.2,0-0.2,0c-0.1,0-0.2,0-0.2,0l0-0.4c0.1,0,0.2,0,0.2-0.1c0,0,0.1-0.1,0.1-0.2v-1.3
				c0-0.1,0-0.2-0.1-0.3c0,0-0.1-0.1-0.2-0.1h-0.1l0,0l0-0.3c0.1,0,0.3,0,0.4-0.1s0.3,0,0.4-0.1c0.1,0,0.2,0,0.4-0.1l0,0.1
				c0,0,0,0.1,0,0.1c0,0.1,0,0.2,0,0.3l0,0c0,0,0.1-0.1,0.2-0.1c0.1-0.1,0.1-0.1,0.2-0.2c0.1-0.1,0.1-0.1,0.2-0.1
				c0.1,0,0.1-0.1,0.2-0.1c0.3,0,0.5,0.1,0.7,0.2c0.2,0.1,0.2,0.3,0.2,0.6c0,0.1,0,0.2,0,0.3c0,0.1,0,0.3,0,0.4c0,0.1,0,0.3,0,0.4
				c0,0.1,0,0.2,0,0.3c0,0.1,0,0.2,0,0.2s0.1,0.1,0.1,0.1h0.1c0,0,0,0,0.1,0l0,0l-0.1,0.4c-0.1,0-0.2,0-0.2,0c-0.1,0-0.1,0-0.2,0
				c-0.1,0-0.1,0-0.2,0c-0.1,0-0.1,0-0.2,0s-0.2,0-0.2,0c-0.1,0-0.2,0-0.2,0L31.9,36.8z"/>
		</g>
		<g>
			<path class="st0" d="M33.5,35.1c0-0.1,0-0.2-0.1-0.3s-0.1-0.1-0.3-0.1l-0.1,0l0-0.3c0.1-0.1,0.3-0.1,0.4-0.2
				c0.1-0.1,0.2-0.1,0.3-0.2c0.1-0.1,0.2-0.2,0.3-0.2l0.2,0.1c0,0,0,0.1,0,0.1c0,0,0,0.1,0,0.2s0,0.1,0,0.2l0.7,0l0,0L35,34.8
				l-0.7,0c0,0.2,0,0.4,0,0.6s0,0.4,0,0.7c0,0.2,0,0.3,0.1,0.4c0.1,0.1,0.2,0.1,0.3,0.1c0.1,0,0.2,0,0.2,0c0,0,0.1,0,0.1,0l0.1,0.2
				c-0.1,0.1-0.2,0.2-0.3,0.2c-0.1,0.1-0.2,0.1-0.2,0.2s-0.1,0.1-0.2,0.1c-0.3,0-0.5-0.1-0.6-0.2c-0.1-0.1-0.2-0.3-0.2-0.6V35.1z"/>
		</g>
		<g>
			<path class="st0" d="M35.2,36.8c0.1,0,0.2,0,0.2-0.1s0.1-0.2,0.1-0.3v-1.2c0-0.1,0-0.2-0.1-0.3c0,0-0.1-0.1-0.2-0.1c0,0,0,0,0,0
				c0,0,0,0,0,0h0l0,0l0-0.3c0.1,0,0.3,0,0.4-0.1c0.1,0,0.2,0,0.4-0.1c0.1,0,0.2,0,0.4-0.1l0.1,0.1l0,0.2c0,0.1,0,0.1,0,0.2
				c0,0.1,0,0.1,0,0.2l0,0c0.1-0.2,0.3-0.3,0.4-0.4c0.1-0.1,0.3-0.2,0.4-0.2c0,0,0.1,0,0.1,0s0,0,0.1,0s0,0,0.1,0l0,0
				c0,0.1,0,0.2-0.1,0.4c0,0.1,0,0.2,0,0.4c0,0.1,0,0.3,0,0.4l-0.4,0c0-0.2,0-0.3,0-0.4S36.7,35,36.7,35c-0.1,0-0.1,0-0.2,0.1
				c-0.1,0-0.1,0.1-0.2,0.2c0,0.2,0,0.4,0,0.5c0,0.1,0,0.3,0,0.4s0,0.2,0,0.2c0,0.1,0,0.2,0,0.2s0.1,0.1,0.2,0.1c0,0,0.1,0,0.1,0
				c0,0,0.1,0,0.1,0c0,0,0.1,0,0.1,0l0,0l-0.1,0.4c-0.1,0-0.2,0-0.3,0c-0.1,0-0.2,0-0.3,0s-0.2,0-0.2,0c-0.1,0-0.2,0-0.3,0
				c-0.1,0-0.2,0-0.2,0c-0.1,0-0.2,0-0.2,0L35.2,36.8z"/>
		</g>
		<g>
			<path class="st0" d="M38.2,35.7L38.2,35.7c0,0.3,0.1,0.5,0.2,0.7s0.3,0.2,0.5,0.2c0.1,0,0.2,0,0.3,0c0.1,0,0.2,0,0.2-0.1
				c0.1,0,0.1-0.1,0.2-0.1l0,0l0.1,0.3c-0.1,0.1-0.2,0.2-0.4,0.2c-0.1,0.1-0.2,0.1-0.3,0.2s-0.2,0.1-0.3,0.1c-0.2,0-0.4,0-0.6-0.1
				s-0.3-0.2-0.4-0.3c-0.1-0.1-0.2-0.3-0.3-0.4s-0.1-0.4-0.1-0.6s0-0.4,0.1-0.6c0.1-0.2,0.2-0.4,0.3-0.5c0.1-0.1,0.3-0.2,0.5-0.3
				c0.2-0.1,0.4-0.1,0.6-0.1c0.7,0,1,0.3,1,1c0,0,0,0.1,0,0.1s0,0.1,0,0.1c0,0,0,0.1,0,0.1l-0.1,0.1H38.2z M39,35.3
				C39,35.3,39.1,35.3,39,35.3c0.1-0.1,0.1-0.1,0.1-0.1c0-0.3-0.1-0.4-0.4-0.4c-0.2,0-0.3,0.1-0.4,0.2c-0.1,0.1-0.2,0.3-0.2,0.5
				L39,35.3z"/>
		</g>
		<g>
			<path class="st0" d="M40,38.2c0.1,0,0.2,0,0.2-0.1c0,0,0.1-0.1,0.1-0.3l0-0.9v-1.7c0-0.1,0-0.2-0.1-0.3c0,0-0.1-0.1-0.2-0.1H40
				l0,0l0-0.3c0.1,0,0.3,0,0.4-0.1c0.1,0,0.2,0,0.4-0.1c0.1,0,0.2,0,0.3-0.1l0.1,0.1c0,0,0,0.1,0,0.1c0,0,0,0.1,0,0.1
				c0,0,0,0.1,0,0.1l0,0c0.3-0.3,0.5-0.4,0.6-0.4c0.2,0,0.3,0,0.5,0.1c0.1,0.1,0.3,0.2,0.4,0.3c0.1,0.1,0.2,0.3,0.2,0.4
				c0.1,0.2,0.1,0.3,0.1,0.5c0,0.2,0,0.5-0.1,0.6s-0.2,0.4-0.3,0.5c-0.1,0.1-0.3,0.2-0.5,0.3c-0.2,0.1-0.4,0.1-0.6,0.1
				c0,0-0.1,0-0.1,0s-0.1,0-0.1,0c0,0-0.1,0-0.1,0v0.6c0,0.2,0,0.3,0,0.3s0.1,0.1,0.2,0.1c0,0,0.1,0,0.1,0c0.1,0,0.1,0,0.1,0l0,0
				l-0.1,0.4c0,0-0.1,0-0.1,0c-0.1,0-0.1,0-0.2,0c-0.1,0-0.1,0-0.2,0c-0.1,0-0.1,0-0.2,0c-0.1,0-0.2,0-0.3,0c-0.1,0-0.2,0-0.2,0
				c-0.1,0-0.2,0-0.2,0L40,38.2z M41.1,36.6c0,0,0.1,0,0.2,0.1s0.2,0,0.3,0c0.2,0,0.3-0.1,0.4-0.2c0.1-0.1,0.2-0.4,0.2-0.6
				c0-0.3-0.1-0.5-0.2-0.7c-0.1-0.2-0.2-0.3-0.4-0.3c-0.1,0-0.1,0-0.2,0c-0.1,0-0.1,0.1-0.2,0.1c0,0.1,0,0.2,0,0.4
				c0,0.1,0,0.3,0,0.4c0,0.1,0,0.3,0,0.4S41.1,36.5,41.1,36.6z"/>
		</g>
		<g>
			<path class="st0" d="M43.1,36.8c0.1,0,0.2,0,0.2-0.1s0.1-0.2,0.1-0.3v-1.2c0-0.1,0-0.2-0.1-0.3c0,0-0.1-0.1-0.2-0.1c0,0,0,0,0,0
				c0,0,0,0,0,0h0l0,0l0-0.3c0.1,0,0.3,0,0.4-0.1c0.1,0,0.2,0,0.4-0.1c0.1,0,0.2,0,0.4-0.1l0.1,0.1l0,0.2c0,0.1,0,0.1,0,0.2
				c0,0.1,0,0.1,0,0.2l0,0c0.1-0.2,0.3-0.3,0.4-0.4c0.1-0.1,0.3-0.2,0.4-0.2c0,0,0.1,0,0.1,0c0,0,0,0,0.1,0s0,0,0.1,0l0,0
				c0,0.1,0,0.2-0.1,0.4c0,0.1,0,0.2,0,0.4c0,0.1,0,0.3,0,0.4l-0.4,0c0-0.2,0-0.3,0-0.4S44.6,35,44.5,35c-0.1,0-0.1,0-0.2,0.1
				c-0.1,0-0.1,0.1-0.2,0.2c0,0.2,0,0.4,0,0.5c0,0.1,0,0.3,0,0.4s0,0.2,0,0.2c0,0.1,0,0.2,0,0.2s0.1,0.1,0.2,0.1c0,0,0.1,0,0.1,0
				c0,0,0.1,0,0.1,0c0,0,0.1,0,0.1,0l0,0l-0.1,0.4c-0.1,0-0.2,0-0.3,0c-0.1,0-0.2,0-0.3,0s-0.2,0-0.2,0c-0.1,0-0.2,0-0.3,0
				c-0.1,0-0.2,0-0.2,0c-0.1,0-0.2,0-0.2,0L43.1,36.8z"/>
		</g>
		<g>
			<path class="st0" d="M46,35.7L46,35.7c0,0.3,0.1,0.5,0.2,0.7s0.3,0.2,0.5,0.2c0.1,0,0.2,0,0.3,0c0.1,0,0.2,0,0.2-0.1
				c0.1,0,0.1-0.1,0.2-0.1l0,0l0.1,0.3c-0.1,0.1-0.2,0.2-0.4,0.2c-0.1,0.1-0.2,0.1-0.3,0.2s-0.2,0.1-0.3,0.1c-0.2,0-0.4,0-0.6-0.1
				s-0.3-0.2-0.4-0.3c-0.1-0.1-0.2-0.3-0.3-0.4c-0.1-0.2-0.1-0.4-0.1-0.6s0-0.4,0.1-0.6c0.1-0.2,0.2-0.4,0.3-0.5
				c0.1-0.1,0.3-0.2,0.5-0.3c0.2-0.1,0.4-0.1,0.6-0.1c0.7,0,1,0.3,1,1c0,0,0,0.1,0,0.1s0,0.1,0,0.1c0,0,0,0.1,0,0.1l-0.1,0.1H46z
				 M46.8,35.3C46.9,35.3,46.9,35.3,46.8,35.3c0.1-0.1,0.1-0.1,0.1-0.1c0-0.3-0.1-0.4-0.4-0.4c-0.2,0-0.3,0.1-0.4,0.2
				S46,35.2,46,35.4L46.8,35.3z"/>
		</g>
		<g>
			<path class="st0" d="M49.6,36.8c0.1,0,0.2-0.1,0.2-0.1c0-0.1,0.1-0.1,0.1-0.2l0-1c0-0.3-0.1-0.5-0.4-0.5c-0.1,0-0.2,0-0.3,0.1
				c-0.1,0.1-0.2,0.1-0.2,0.1c0,0.1,0,0.2,0,0.4s0,0.3,0,0.4c0,0.1,0,0.2,0,0.4c0,0.1,0,0.2,0,0.2c0,0.1,0,0.2,0,0.2
				c0,0,0.1,0.1,0.1,0.1c0,0,0,0,0,0s0,0,0.1,0c0,0,0,0,0.1,0l0,0l-0.1,0.4c-0.1,0-0.2,0-0.2,0c-0.1,0-0.1,0-0.2,0s-0.1,0-0.2,0
				c-0.1,0-0.2,0-0.2,0s-0.2,0-0.2,0c-0.1,0-0.2,0-0.2,0l0-0.4c0.1,0,0.2,0,0.2-0.1c0,0,0.1-0.1,0.1-0.2v-1.3c0-0.1,0-0.2-0.1-0.3
				c0,0-0.1-0.1-0.2-0.1h-0.1l0,0l0-0.3c0.1,0,0.3,0,0.4-0.1s0.3,0,0.4-0.1c0.1,0,0.2,0,0.4-0.1l0,0.1c0,0,0,0.1,0,0.1
				c0,0.1,0,0.2,0,0.3l0,0c0,0,0.1-0.1,0.2-0.1c0.1-0.1,0.1-0.1,0.2-0.2c0.1-0.1,0.1-0.1,0.2-0.1s0.1-0.1,0.2-0.1
				c0.3,0,0.5,0.1,0.7,0.2c0.2,0.1,0.2,0.3,0.2,0.6c0,0.1,0,0.2,0,0.3c0,0.1,0,0.3,0,0.4s0,0.3,0,0.4c0,0.1,0,0.2,0,0.3
				c0,0.1,0,0.2,0,0.2s0.1,0.1,0.1,0.1h0.1c0,0,0,0,0.1,0l0,0l-0.1,0.4c-0.1,0-0.2,0-0.2,0c-0.1,0-0.1,0-0.2,0s-0.1,0-0.2,0
				c-0.1,0-0.1,0-0.2,0s-0.2,0-0.2,0c-0.1,0-0.2,0-0.2,0L49.6,36.8z"/>
		</g>
		<g>
			<path class="st0" d="M51.7,35.7L51.7,35.7c0,0.3,0.1,0.5,0.2,0.7s0.3,0.2,0.5,0.2c0.1,0,0.2,0,0.3,0s0.2,0,0.2-0.1
				c0.1,0,0.1-0.1,0.2-0.1l0,0l0.1,0.3c-0.1,0.1-0.2,0.2-0.4,0.2c-0.1,0.1-0.2,0.1-0.3,0.2s-0.2,0.1-0.3,0.1c-0.2,0-0.4,0-0.6-0.1
				s-0.3-0.2-0.4-0.3c-0.1-0.1-0.2-0.3-0.3-0.4C51,36.2,51,36,51,35.8s0-0.4,0.1-0.6s0.2-0.4,0.3-0.5c0.1-0.1,0.3-0.2,0.5-0.3
				s0.4-0.1,0.6-0.1c0.7,0,1,0.3,1,1c0,0,0,0.1,0,0.1s0,0.1,0,0.1c0,0,0,0.1,0,0.1l-0.1,0.1H51.7z M52.6,35.3
				C52.6,35.3,52.6,35.3,52.6,35.3c0.1-0.1,0.1-0.1,0.1-0.1c0-0.3-0.1-0.4-0.4-0.4c-0.2,0-0.3,0.1-0.4,0.2c-0.1,0.1-0.2,0.3-0.2,0.5
				L52.6,35.3z"/>
		</g>
		<g>
			<path class="st0" d="M53.9,35.1c0-0.2-0.1-0.3-0.2-0.3c0,0-0.1,0-0.1,0c0,0,0,0,0,0l0-0.4c0.1,0,0.3,0,0.4-0.1
				c0.1,0,0.2,0,0.4-0.1l0.4-0.1l0.1,0.1c0,0,0,0.1-0.1,0.2c0,0.1,0,0.3-0.1,0.4c0,0.2,0,0.3,0,0.5s0,0.4,0,0.5
				c0,0.3,0.1,0.5,0.4,0.5c0.1,0,0.2,0,0.3-0.1c0.1,0,0.2-0.1,0.2-0.1v-1.2c0-0.1,0-0.2-0.1-0.2c0,0-0.1-0.1-0.2-0.1c0,0,0,0-0.1,0
				s0,0,0,0l0-0.3c0.1,0,0.3,0,0.4-0.1c0.1,0,0.3,0,0.4-0.1c0.1,0,0.2,0,0.4-0.1l0.1,0.1c0,0,0,0.1-0.1,0.3s0,0.3-0.1,0.4
				c0,0.2,0,0.4,0,0.6c0,0.2,0,0.4,0,0.7c0,0.1,0,0.1,0.1,0.2c0,0,0.1,0.1,0.2,0.1c0,0,0.1,0,0.1,0c0,0,0.1,0,0.1,0
				c0,0,0.1,0,0.1-0.1l0.1,0.1c-0.1,0.1-0.1,0.2-0.2,0.3c-0.1,0.1-0.1,0.1-0.2,0.2c-0.1,0.1-0.2,0.1-0.2,0.1c-0.4,0-0.6-0.2-0.6-0.5
				l0,0c-0.2,0.1-0.3,0.3-0.4,0.3s-0.2,0.1-0.3,0.1c-0.3,0-0.5-0.1-0.7-0.2s-0.2-0.3-0.2-0.6L53.9,35.1z"/>
		</g>
		<g>
			<path class="st0" d="M56.8,36.8c0.1,0,0.2,0,0.2-0.1c0-0.1,0.1-0.2,0.1-0.3v-1.2c0-0.1,0-0.2-0.1-0.3c0,0-0.1-0.1-0.2-0.1
				c0,0,0,0,0,0s0,0,0,0h0l0,0l0-0.3c0.1,0,0.3,0,0.4-0.1c0.1,0,0.2,0,0.4-0.1c0.1,0,0.2,0,0.4-0.1l0.1,0.1l0,0.2c0,0.1,0,0.1,0,0.2
				c0,0.1,0,0.1,0,0.2l0,0c0.1-0.2,0.3-0.3,0.4-0.4s0.3-0.2,0.4-0.2c0,0,0.1,0,0.1,0c0,0,0,0,0.1,0s0,0,0.1,0l0,0
				c0,0.1,0,0.2-0.1,0.4c0,0.1,0,0.2,0,0.4c0,0.1,0,0.3,0,0.4l-0.4,0c0-0.2,0-0.3,0-0.4S58.3,35,58.2,35c-0.1,0-0.1,0-0.2,0.1
				c-0.1,0-0.1,0.1-0.2,0.2c0,0.2,0,0.4,0,0.5c0,0.1,0,0.3,0,0.4s0,0.2,0,0.2c0,0.1,0,0.2,0,0.2s0.1,0.1,0.2,0.1c0,0,0.1,0,0.1,0
				c0,0,0.1,0,0.1,0c0,0,0.1,0,0.1,0l0,0l-0.1,0.4c-0.1,0-0.2,0-0.3,0c-0.1,0-0.2,0-0.3,0s-0.2,0-0.2,0c-0.1,0-0.2,0-0.3,0
				s-0.2,0-0.2,0c-0.1,0-0.2,0-0.2,0L56.8,36.8z"/>
		</g>
		<g>
			<path class="st0" d="M59.8,37.2c-0.1,0-0.2,0-0.3,0c-0.1,0-0.2,0-0.2-0.1c-0.1,0-0.2-0.1-0.2-0.1l0-0.1c0,0,0-0.1,0-0.2
				s0-0.1,0-0.2c0-0.1,0-0.1,0-0.2c0-0.1,0-0.1,0-0.2l0.3,0c0,0.4,0.2,0.6,0.5,0.6c0.1,0,0.2,0,0.3-0.1c0.1-0.1,0.1-0.1,0.1-0.2
				c0,0,0-0.1,0-0.1c0,0,0-0.1-0.1-0.1c0,0-0.1-0.1-0.2-0.1c-0.1,0-0.2-0.1-0.3-0.2c-0.2-0.1-0.4-0.2-0.5-0.4S59,35.4,59,35.2
				c0-0.1,0-0.3,0.1-0.4c0.1-0.1,0.1-0.2,0.3-0.3c0.1-0.1,0.2-0.1,0.4-0.2s0.3-0.1,0.5-0.1c0.1,0,0.2,0,0.3,0c0.1,0,0.2,0,0.2,0
				c0.1,0,0.1,0,0.2,0.1l0,0.1c0,0.1,0,0.2,0,0.2c0,0.1,0,0.2,0,0.2c0,0.1,0,0.2,0,0.3l-0.3,0c0,0,0,0,0,0c0,0,0,0,0,0c0,0,0,0,0,0
				c0-0.3-0.1-0.4-0.4-0.4c-0.1,0-0.2,0-0.3,0.1s-0.1,0.1-0.1,0.2c0,0.1,0,0.1,0.1,0.2c0.1,0.1,0.2,0.1,0.3,0.2
				c0.2,0.1,0.3,0.2,0.4,0.2c0.1,0.1,0.2,0.1,0.3,0.2c0.1,0.1,0.1,0.1,0.1,0.2c0,0.1,0,0.2,0,0.2c0,0.1,0,0.2-0.1,0.4
				s-0.2,0.2-0.3,0.3c-0.1,0.1-0.2,0.1-0.4,0.2C60.1,37.2,60,37.2,59.8,37.2z"/>
		</g>
	</g>
	<g>
		<g>
			<path class="st0" d="M15.9,70.1c0.1,0,0.2-0.1,0.3-0.1c0.1-0.1,0.1-0.1,0.1-0.3v-1.3c0-0.1,0-0.2-0.1-0.3c0,0-0.1-0.1-0.2-0.1
				c0,0-0.1,0-0.1,0c0,0,0,0,0,0l0-0.4c0.1,0,0.3,0,0.4-0.1c0.1,0,0.3,0,0.4-0.1c0.1,0,0.3,0,0.4-0.1l0.1,0.1c0,0,0,0.1-0.1,0.3
				c0,0.1,0,0.3,0,0.5c0,0.2,0,0.4,0,0.6c0,0.2,0,0.5,0,0.8c0,0.1,0,0.2,0,0.2s0.1,0.1,0.1,0.1c0,0,0,0,0.1,0s0,0,0.1,0
				c0,0,0,0,0.1,0l0,0l-0.1,0.4c-0.1,0-0.2,0-0.2,0c-0.1,0-0.1,0-0.2,0s-0.1,0-0.2,0c-0.1,0-0.2,0-0.2,0s-0.2,0-0.2,0
				c-0.1,0-0.2,0-0.3,0L15.9,70.1z M16.6,67c-0.1,0-0.2,0-0.3-0.1c-0.1-0.1-0.1-0.2-0.1-0.3c0-0.1,0-0.3,0.1-0.3s0.2-0.1,0.3-0.1
				c0.1,0,0.2,0,0.3,0.1s0.1,0.2,0.1,0.3c0,0.1,0,0.3-0.1,0.3C16.8,67,16.7,67,16.6,67z"/>
		</g>
		<g>
			<path class="st0" d="M19.1,70.1c0.1,0,0.2-0.1,0.2-0.1c0-0.1,0.1-0.1,0.1-0.2l0-1c0-0.3-0.1-0.5-0.4-0.5c-0.1,0-0.2,0-0.3,0.1
				c-0.1,0.1-0.2,0.1-0.2,0.1c0,0.1,0,0.2,0,0.4c0,0.1,0,0.3,0,0.4c0,0.1,0,0.2,0,0.4c0,0.1,0,0.2,0,0.2c0,0.1,0,0.2,0,0.2
				c0,0,0.1,0.1,0.1,0.1c0,0,0,0,0,0s0,0,0.1,0c0,0,0,0,0.1,0l0,0l-0.1,0.4c-0.1,0-0.2,0-0.2,0c-0.1,0-0.1,0-0.2,0
				c-0.1,0-0.1,0-0.2,0c-0.1,0-0.2,0-0.2,0s-0.2,0-0.2,0c-0.1,0-0.2,0-0.2,0l0-0.4c0.1,0,0.2,0,0.2-0.1c0,0,0.1-0.1,0.1-0.2v-1.3
				c0-0.1,0-0.2-0.1-0.3s-0.1-0.1-0.2-0.1h-0.1l0,0l0-0.3c0.1,0,0.3,0,0.4-0.1c0.1,0,0.3,0,0.4-0.1c0.1,0,0.2,0,0.4-0.1l0,0.1
				c0,0,0,0.1,0,0.1c0,0.1,0,0.2,0,0.3l0,0c0,0,0.1-0.1,0.2-0.1c0.1-0.1,0.1-0.1,0.2-0.2c0.1-0.1,0.1-0.1,0.2-0.1
				c0.1,0,0.1-0.1,0.2-0.1c0.3,0,0.5,0.1,0.7,0.2c0.2,0.1,0.2,0.3,0.2,0.6c0,0.1,0,0.2,0,0.3c0,0.1,0,0.3,0,0.4c0,0.1,0,0.3,0,0.4
				c0,0.1,0,0.2,0,0.3c0,0.1,0,0.2,0,0.2s0.1,0.1,0.1,0.1h0.1c0,0,0,0,0.1,0l0,0l-0.1,0.4c-0.1,0-0.2,0-0.2,0c-0.1,0-0.1,0-0.2,0
				c-0.1,0-0.1,0-0.2,0c-0.1,0-0.1,0-0.2,0s-0.2,0-0.2,0c-0.1,0-0.2,0-0.2,0L19.1,70.1z"/>
		</g>
		<g>
			<path class="st0" d="M22.4,68.2C22.4,68.1,22.4,68.1,22.4,68.2c-0.1-0.1-0.1-0.1-0.2-0.1h-0.2l0,0l0-0.3c0.1,0,0.1,0,0.2,0h0.4
				h0.4c0.1,0,0.1,0,0.2,0l0,0.4c0,0-0.1,0-0.1,0c0,0-0.1,0-0.1,0.1c0,0,0,0.1-0.1,0.1c0,0,0,0.1-0.1,0.2l-0.8,2.1l-0.8,0.1
				c-0.1-0.3-0.2-0.6-0.3-0.9c0-0.1-0.1-0.2-0.1-0.4c0-0.1-0.1-0.2-0.1-0.4c0-0.1-0.1-0.2-0.1-0.3c0-0.1,0-0.2-0.1-0.2
				c-0.1-0.2-0.2-0.3-0.4-0.3l0,0l0-0.3c0.1,0,0.1,0,0.2,0H21c0.1,0,0.2,0,0.3,0c0.1,0,0.2,0,0.3,0c0.1,0,0.2,0,0.3,0l0,0l0,0.4
				c-0.1,0-0.2,0-0.2,0c0,0-0.1,0.1-0.1,0.1c0,0,0,0.1,0,0.1c0,0.1,0,0.1,0,0.2s0,0.2,0.1,0.3s0,0.2,0.1,0.3
				c0.1,0.2,0.1,0.5,0.2,0.7h0.1c0.1-0.2,0.1-0.4,0.2-0.6c0.1-0.2,0.1-0.3,0.2-0.5c0-0.1,0.1-0.3,0.1-0.3S22.4,68.2,22.4,68.2z"/>
		</g>
		<g>
			<path class="st0" d="M23.9,69.1L23.9,69.1c0,0.3,0.1,0.5,0.2,0.7s0.3,0.2,0.5,0.2c0.1,0,0.2,0,0.3,0c0.1,0,0.2,0,0.2-0.1
				c0.1,0,0.1-0.1,0.2-0.1l0,0l0.1,0.3c-0.1,0.1-0.2,0.2-0.4,0.2c-0.1,0.1-0.2,0.1-0.3,0.2c-0.1,0-0.2,0.1-0.3,0.1
				c-0.2,0-0.4,0-0.6-0.1s-0.3-0.2-0.4-0.3c-0.1-0.1-0.2-0.3-0.3-0.4s-0.1-0.4-0.1-0.6s0-0.4,0.1-0.6c0.1-0.2,0.2-0.4,0.3-0.5
				c0.1-0.1,0.3-0.2,0.5-0.3c0.2-0.1,0.4-0.1,0.6-0.1c0.7,0,1,0.3,1,1c0,0,0,0.1,0,0.1s0,0.1,0,0.1c0,0,0,0.1,0,0.1l-0.1,0.1H23.9z
				 M24.7,68.7C24.8,68.7,24.8,68.7,24.7,68.7c0.1-0.1,0.1-0.1,0.1-0.1c0-0.3-0.1-0.4-0.4-0.4c-0.2,0-0.3,0.1-0.4,0.2
				c-0.1,0.1-0.2,0.3-0.2,0.5L24.7,68.7z"/>
		</g>
		<g>
			<path class="st0" d="M26.6,70.5c-0.1,0-0.2,0-0.3,0c-0.1,0-0.2,0-0.2-0.1c-0.1,0-0.2-0.1-0.2-0.1l0-0.1c0,0,0-0.1,0-0.2
				c0-0.1,0-0.1,0-0.2c0-0.1,0-0.1,0-0.2c0-0.1,0-0.1,0-0.2l0.3,0c0,0.4,0.2,0.6,0.5,0.6c0.1,0,0.2,0,0.3-0.1
				c0.1-0.1,0.1-0.1,0.1-0.2c0,0,0-0.1,0-0.1c0,0,0-0.1-0.1-0.1s-0.1-0.1-0.2-0.1c-0.1,0-0.2-0.1-0.3-0.2c-0.2-0.1-0.4-0.2-0.5-0.4
				s-0.2-0.3-0.2-0.4c0-0.1,0-0.3,0.1-0.4c0.1-0.1,0.1-0.2,0.3-0.3s0.2-0.1,0.4-0.2s0.3-0.1,0.5-0.1c0.1,0,0.2,0,0.3,0s0.2,0,0.2,0
				c0.1,0,0.1,0,0.2,0.1l0,0.1c0,0.1,0,0.2,0,0.2c0,0.1,0,0.2,0,0.2s0,0.2,0,0.3l-0.3,0c0,0,0,0,0,0c0,0,0,0,0,0s0,0,0,0
				c0-0.3-0.1-0.4-0.4-0.4c-0.1,0-0.2,0-0.3,0.1s-0.1,0.1-0.1,0.2c0,0.1,0,0.1,0.1,0.2c0.1,0.1,0.2,0.1,0.3,0.2
				c0.2,0.1,0.3,0.2,0.4,0.2c0.1,0.1,0.2,0.1,0.3,0.2c0.1,0.1,0.1,0.1,0.1,0.2c0,0.1,0,0.2,0,0.2c0,0.1,0,0.2-0.1,0.4
				s-0.2,0.2-0.3,0.3c-0.1,0.1-0.2,0.1-0.4,0.2C26.9,70.5,26.8,70.5,26.6,70.5z"/>
		</g>
		<g>
			<path class="st0" d="M28.3,68.5c0-0.1,0-0.2-0.1-0.3c0,0-0.1-0.1-0.3-0.1l-0.1,0l0-0.3c0.1-0.1,0.3-0.1,0.4-0.2s0.2-0.1,0.3-0.2
				c0.1-0.1,0.2-0.2,0.3-0.2l0.2,0.1c0,0,0,0.1,0,0.1c0,0,0,0.1,0,0.2c0,0.1,0,0.1,0,0.2l0.7,0l0,0l-0.1,0.4l-0.7,0
				c0,0.2,0,0.4,0,0.6c0,0.2,0,0.5,0,0.7c0,0.2,0,0.3,0.1,0.4s0.2,0.1,0.3,0.1c0.1,0,0.2,0,0.2,0c0,0,0.1,0,0.1,0l0.1,0.2
				c-0.1,0.1-0.2,0.2-0.3,0.2c-0.1,0.1-0.2,0.1-0.2,0.2c-0.1,0.1-0.1,0.1-0.2,0.1c-0.3,0-0.5-0.1-0.6-0.2c-0.1-0.1-0.2-0.3-0.2-0.6
				V68.5z"/>
		</g>
		<g>
			<path class="st0" d="M31.1,70.5c-0.2,0-0.4,0-0.5-0.1c-0.2-0.1-0.3-0.2-0.4-0.3c-0.1-0.1-0.2-0.3-0.3-0.4
				c-0.1-0.2-0.1-0.4-0.1-0.6c0-0.2,0-0.4,0.1-0.6c0.1-0.2,0.2-0.4,0.3-0.5c0.1-0.1,0.3-0.2,0.5-0.3c0.2-0.1,0.4-0.1,0.6-0.1
				c0.2,0,0.4,0,0.5,0.1c0.2,0.1,0.3,0.2,0.4,0.3c0.1,0.1,0.2,0.3,0.3,0.4c0.1,0.2,0.1,0.4,0.1,0.6c0,0.2,0,0.4-0.1,0.6
				c-0.1,0.2-0.2,0.4-0.3,0.5c-0.1,0.1-0.3,0.2-0.5,0.3C31.5,70.5,31.3,70.5,31.1,70.5z M31.2,70.1c0.3,0,0.5-0.3,0.5-0.8
				c0-0.4-0.1-0.7-0.2-0.9c-0.1-0.2-0.2-0.3-0.4-0.3c-0.3,0-0.5,0.3-0.5,0.8c0,0.4,0.1,0.7,0.2,0.9C30.9,70,31,70.1,31.2,70.1z"/>
		</g>
		<g>
			<path class="st0" d="M32.7,70.1c0.1,0,0.2,0,0.2-0.1s0.1-0.2,0.1-0.3v-1.2c0-0.1,0-0.2-0.1-0.3c0,0-0.1-0.1-0.2-0.1c0,0,0,0,0,0
				c0,0,0,0,0,0h0l0,0l0-0.3c0.1,0,0.3,0,0.4-0.1c0.1,0,0.2,0,0.4-0.1c0.1,0,0.2,0,0.4-0.1l0.1,0.1l0,0.2c0,0.1,0,0.1,0,0.2
				c0,0.1,0,0.1,0,0.2l0,0c0.1-0.2,0.3-0.3,0.4-0.4c0.1-0.1,0.3-0.2,0.4-0.2c0,0,0.1,0,0.1,0s0,0,0.1,0s0,0,0.1,0l0,0
				c0,0.1,0,0.2-0.1,0.4c0,0.1,0,0.2,0,0.4c0,0.1,0,0.3,0,0.4l-0.4,0c0-0.2,0-0.3,0-0.4s-0.1-0.1-0.1-0.1c-0.1,0-0.1,0-0.2,0.1
				c-0.1,0-0.1,0.1-0.2,0.2c0,0.2,0,0.4,0,0.5c0,0.1,0,0.3,0,0.4s0,0.2,0,0.2c0,0.1,0,0.2,0,0.2c0,0,0.1,0.1,0.2,0.1
				c0,0,0.1,0,0.1,0c0,0,0.1,0,0.1,0c0,0,0.1,0,0.1,0l0,0l-0.1,0.4c-0.1,0-0.2,0-0.3,0c-0.1,0-0.2,0-0.3,0s-0.2,0-0.2,0
				c-0.1,0-0.2,0-0.3,0c-0.1,0-0.2,0-0.2,0c-0.1,0-0.2,0-0.2,0L32.7,70.1z"/>
		</g>
		<g>
			<path class="st0" d="M35.7,70.5c-0.1,0-0.2,0-0.3,0c-0.1,0-0.2,0-0.2-0.1c-0.1,0-0.2-0.1-0.2-0.1l0-0.1c0,0,0-0.1,0-0.2
				c0-0.1,0-0.1,0-0.2c0-0.1,0-0.1,0-0.2c0-0.1,0-0.1,0-0.2l0.3,0c0,0.4,0.2,0.6,0.5,0.6c0.1,0,0.2,0,0.3-0.1
				c0.1-0.1,0.1-0.1,0.1-0.2c0,0,0-0.1,0-0.1c0,0,0-0.1-0.1-0.1s-0.1-0.1-0.2-0.1c-0.1,0-0.2-0.1-0.3-0.2c-0.2-0.1-0.4-0.2-0.5-0.4
				s-0.2-0.3-0.2-0.4c0-0.1,0-0.3,0.1-0.4c0.1-0.1,0.1-0.2,0.3-0.3s0.2-0.1,0.4-0.2s0.3-0.1,0.5-0.1c0.1,0,0.2,0,0.3,0s0.2,0,0.2,0
				c0.1,0,0.1,0,0.2,0.1l0,0.1c0,0.1,0,0.2,0,0.2c0,0.1,0,0.2,0,0.2s0,0.2,0,0.3l-0.3,0c0,0,0,0,0,0c0,0,0,0,0,0s0,0,0,0
				c0-0.3-0.1-0.4-0.4-0.4c-0.1,0-0.2,0-0.3,0.1s-0.1,0.1-0.1,0.2c0,0.1,0,0.1,0.1,0.2c0.1,0.1,0.2,0.1,0.3,0.2
				c0.2,0.1,0.3,0.2,0.4,0.2c0.1,0.1,0.2,0.1,0.3,0.2c0.1,0.1,0.1,0.1,0.1,0.2c0,0.1,0,0.2,0,0.2c0,0.1,0,0.2-0.1,0.4
				s-0.2,0.2-0.3,0.3c-0.1,0.1-0.2,0.1-0.4,0.2C36.1,70.5,35.9,70.5,35.7,70.5z"/>
		</g>
	</g>
	<g>
		<g>
			<path class="st0" d="M54.5,70.1c0.1,0,0.2-0.1,0.2-0.1c0-0.1,0.1-0.1,0.1-0.2l0-1c0-0.3-0.1-0.5-0.4-0.5c-0.1,0-0.2,0-0.3,0.1
				c-0.1,0.1-0.2,0.1-0.2,0.1c0,0.1,0,0.2,0,0.4c0,0.1,0,0.3,0,0.4c0,0.1,0,0.2,0,0.4c0,0.1,0,0.2,0,0.2c0,0.1,0,0.2,0,0.2
				c0,0,0.1,0.1,0.1,0.1c0,0,0,0,0,0c0,0,0,0,0.1,0c0,0,0,0,0.1,0l0,0l-0.1,0.4c-0.1,0-0.2,0-0.2,0c-0.1,0-0.1,0-0.2,0s-0.1,0-0.2,0
				c-0.1,0-0.2,0-0.2,0s-0.2,0-0.2,0c-0.1,0-0.2,0-0.2,0l0-0.4c0.1,0,0.2,0,0.2-0.1s0.1-0.1,0.1-0.2v-1.3c0-0.1,0-0.2-0.1-0.3
				s-0.1-0.1-0.2-0.1h-0.1l0,0l0-0.3c0.1,0,0.3,0,0.4-0.1c0.1,0,0.3,0,0.4-0.1c0.1,0,0.2,0,0.4-0.1l0,0.1c0,0,0,0.1,0,0.1
				c0,0.1,0,0.2,0,0.3l0,0c0.1,0,0.1-0.1,0.2-0.1c0.1-0.1,0.1-0.1,0.2-0.2c0.1,0,0.1-0.1,0.2-0.1c0.1,0,0.1-0.1,0.2-0.1
				c0.5,0,0.7,0.2,0.9,0.5c0,0,0.1-0.1,0.2-0.1s0.2-0.1,0.2-0.2s0.2-0.1,0.2-0.1c0.1,0,0.1-0.1,0.2-0.1c0.3,0,0.5,0.1,0.7,0.2
				c0.2,0.1,0.2,0.3,0.2,0.6c0,0.1,0,0.2,0,0.3c0,0.1,0,0.3,0,0.4c0,0.1,0,0.3,0,0.4c0,0.1,0,0.2,0,0.3c0,0.1,0,0.2,0,0.2
				c0,0,0.1,0.1,0.1,0.1h0.1c0,0,0,0,0.1,0l0,0l-0.1,0.4c-0.1,0-0.2,0-0.2,0c-0.1,0-0.1,0-0.2,0s-0.1,0-0.2,0c-0.1,0-0.1,0-0.2,0
				s-0.1,0-0.2,0c-0.1,0-0.2,0-0.2,0l0-0.4c0.1,0,0.2,0,0.2-0.1s0.1-0.1,0.1-0.2l0-1c0-0.3-0.1-0.5-0.4-0.5c-0.1,0-0.2,0-0.3,0.1
				c-0.1,0.1-0.2,0.1-0.2,0.1l-0.1,1.3c0,0.1,0,0.2,0,0.2c0,0,0.1,0.1,0.1,0.1h0.1c0,0,0,0,0.1,0l0,0l-0.1,0.4c-0.1,0-0.2,0-0.2,0
				c-0.1,0-0.1,0-0.2,0c-0.1,0-0.1,0-0.2,0c-0.1,0-0.1,0-0.2,0s-0.2,0-0.2,0c-0.1,0-0.2,0-0.2,0L54.5,70.1z"/>
		</g>
		<g>
			<path class="st0" d="M58.3,69.1L58.3,69.1c0,0.3,0.1,0.5,0.2,0.7s0.3,0.2,0.5,0.2c0.1,0,0.2,0,0.3,0c0.1,0,0.2,0,0.2-0.1
				c0.1,0,0.1-0.1,0.2-0.1l0,0l0.1,0.3c-0.1,0.1-0.2,0.2-0.4,0.2c-0.1,0.1-0.2,0.1-0.3,0.2c-0.1,0-0.2,0.1-0.3,0.1
				c-0.2,0-0.4,0-0.6-0.1s-0.3-0.2-0.4-0.3c-0.1-0.1-0.2-0.3-0.3-0.4c-0.1-0.2-0.1-0.4-0.1-0.6s0-0.4,0.1-0.6
				c0.1-0.2,0.2-0.4,0.3-0.5c0.1-0.1,0.3-0.2,0.5-0.3c0.2-0.1,0.4-0.1,0.6-0.1c0.7,0,1,0.3,1,1c0,0,0,0.1,0,0.1s0,0.1,0,0.1
				c0,0,0,0.1,0,0.1l-0.1,0.1H58.3z M59.1,68.7C59.1,68.7,59.1,68.7,59.1,68.7c0.1-0.1,0.1-0.1,0.1-0.1c0-0.3-0.1-0.4-0.4-0.4
				c-0.2,0-0.3,0.1-0.4,0.2c-0.1,0.1-0.2,0.3-0.2,0.5L59.1,68.7z"/>
		</g>
		<g>
			<path class="st0" d="M61.8,70.1c0.1,0,0.2-0.1,0.2-0.1c0-0.1,0.1-0.1,0.1-0.2l0-1c0-0.3-0.1-0.5-0.4-0.5c-0.1,0-0.2,0-0.3,0.1
				c-0.1,0.1-0.2,0.1-0.2,0.1c0,0.1,0,0.2,0,0.4c0,0.1,0,0.3,0,0.4c0,0.1,0,0.2,0,0.4c0,0.1,0,0.2,0,0.2c0,0.1,0,0.2,0,0.2
				s0.1,0.1,0.1,0.1c0,0,0,0,0,0c0,0,0,0,0.1,0c0,0,0,0,0.1,0l0,0l-0.1,0.4c-0.1,0-0.2,0-0.2,0c-0.1,0-0.1,0-0.2,0
				c-0.1,0-0.1,0-0.2,0c-0.1,0-0.2,0-0.2,0s-0.2,0-0.2,0c-0.1,0-0.2,0-0.2,0l0-0.4c0.1,0,0.2,0,0.2-0.1c0,0,0.1-0.1,0.1-0.2v-1.3
				c0-0.1,0-0.2-0.1-0.3s-0.1-0.1-0.2-0.1h-0.1l0,0l0-0.3c0.1,0,0.3,0,0.4-0.1c0.1,0,0.3,0,0.4-0.1c0.1,0,0.2,0,0.4-0.1l0,0.1
				c0,0,0,0.1,0,0.1c0,0.1,0,0.2,0,0.3l0,0c0,0,0.1-0.1,0.2-0.1c0.1-0.1,0.1-0.1,0.2-0.2c0.1-0.1,0.1-0.1,0.2-0.1
				c0.1,0,0.1-0.1,0.2-0.1c0.3,0,0.5,0.1,0.7,0.2c0.2,0.1,0.2,0.3,0.2,0.6c0,0.1,0,0.2,0,0.3c0,0.1,0,0.3,0,0.4c0,0.1,0,0.3,0,0.4
				c0,0.1,0,0.2,0,0.3c0,0.1,0,0.2,0,0.2c0,0,0.1,0.1,0.1,0.1h0.1c0,0,0,0,0.1,0l0,0l-0.1,0.4c-0.1,0-0.2,0-0.2,0
				c-0.1,0-0.1,0-0.2,0s-0.1,0-0.2,0c-0.1,0-0.1,0-0.2,0s-0.2,0-0.2,0c-0.1,0-0.2,0-0.2,0L61.8,70.1z"/>
		</g>
		<g>
			<path class="st0" d="M63.5,68.5c0-0.1,0-0.2-0.1-0.3c0,0-0.1-0.1-0.3-0.1l-0.1,0l0-0.3c0.1-0.1,0.3-0.1,0.4-0.2s0.2-0.1,0.3-0.2
				c0.1-0.1,0.2-0.2,0.3-0.2l0.2,0.1c0,0,0,0.1,0,0.1c0,0,0,0.1,0,0.2c0,0.1,0,0.1,0,0.2l0.7,0l0,0l-0.1,0.4l-0.7,0
				c0,0.2,0,0.4,0,0.6c0,0.2,0,0.5,0,0.7c0,0.2,0,0.3,0.1,0.4c0.1,0.1,0.2,0.1,0.3,0.1c0.1,0,0.2,0,0.2,0c0,0,0.1,0,0.1,0l0.1,0.2
				c-0.1,0.1-0.2,0.2-0.3,0.2c-0.1,0.1-0.2,0.1-0.2,0.2c-0.1,0.1-0.1,0.1-0.2,0.1c-0.3,0-0.5-0.1-0.6-0.2c-0.1-0.1-0.2-0.3-0.2-0.6
				V68.5z"/>
		</g>
		<g>
			<path class="st0" d="M66.3,70.5c-0.2,0-0.4,0-0.5-0.1s-0.3-0.2-0.4-0.3c-0.1-0.1-0.2-0.3-0.3-0.4S65,69.4,65,69.2
				c0-0.2,0-0.4,0.1-0.6c0.1-0.2,0.2-0.4,0.3-0.5c0.1-0.1,0.3-0.2,0.5-0.3c0.2-0.1,0.4-0.1,0.6-0.1c0.2,0,0.4,0,0.5,0.1
				c0.2,0.1,0.3,0.2,0.4,0.3s0.2,0.3,0.3,0.4s0.1,0.4,0.1,0.6c0,0.2,0,0.4-0.1,0.6c-0.1,0.2-0.2,0.4-0.3,0.5
				c-0.1,0.1-0.3,0.2-0.5,0.3C66.7,70.5,66.5,70.5,66.3,70.5z M66.4,70.1c0.3,0,0.5-0.3,0.5-0.8c0-0.4-0.1-0.7-0.2-0.9
				c-0.1-0.2-0.2-0.3-0.4-0.3c-0.3,0-0.5,0.3-0.5,0.8c0,0.4,0.1,0.7,0.2,0.9C66.1,70,66.2,70.1,66.4,70.1z"/>
		</g>
		<g>
			<path class="st0" d="M67.9,70.1c0.1,0,0.2,0,0.2-0.1s0.1-0.2,0.1-0.3v-1.2c0-0.1,0-0.2-0.1-0.3c0,0-0.1-0.1-0.2-0.1c0,0,0,0,0,0
				c0,0,0,0,0,0h0l0,0l0-0.3c0.1,0,0.3,0,0.4-0.1c0.1,0,0.2,0,0.4-0.1c0.1,0,0.2,0,0.4-0.1l0.1,0.1l0,0.2c0,0.1,0,0.1,0,0.2
				c0,0.1,0,0.1,0,0.2l0,0c0.1-0.2,0.3-0.3,0.4-0.4c0.1-0.1,0.3-0.2,0.4-0.2c0,0,0.1,0,0.1,0c0,0,0,0,0.1,0c0,0,0,0,0.1,0l0,0
				c0,0.1,0,0.2-0.1,0.4c0,0.1,0,0.2,0,0.4c0,0.1,0,0.3,0,0.4l-0.4,0c0-0.2,0-0.3,0-0.4c0-0.1-0.1-0.1-0.1-0.1c-0.1,0-0.1,0-0.2,0.1
				c-0.1,0-0.1,0.1-0.2,0.2c0,0.2,0,0.4,0,0.5c0,0.1,0,0.3,0,0.4s0,0.2,0,0.2c0,0.1,0,0.2,0,0.2c0,0,0.1,0.1,0.2,0.1
				c0,0,0.1,0,0.1,0c0,0,0.1,0,0.1,0c0,0,0.1,0,0.1,0l0,0l-0.1,0.4c-0.1,0-0.2,0-0.3,0c-0.1,0-0.2,0-0.3,0s-0.2,0-0.2,0
				c-0.1,0-0.2,0-0.3,0s-0.2,0-0.2,0c-0.1,0-0.2,0-0.2,0L67.9,70.1z"/>
		</g>
		<g>
			<path class="st0" d="M70.9,70.5c-0.1,0-0.2,0-0.3,0c-0.1,0-0.2,0-0.2-0.1c-0.1,0-0.2-0.1-0.2-0.1l0-0.1c0,0,0-0.1,0-0.2
				s0-0.1,0-0.2c0-0.1,0-0.1,0-0.2c0-0.1,0-0.1,0-0.2l0.3,0c0,0.4,0.2,0.6,0.5,0.6c0.1,0,0.2,0,0.3-0.1c0.1-0.1,0.1-0.1,0.1-0.2
				c0,0,0-0.1,0-0.1c0,0,0-0.1-0.1-0.1s-0.1-0.1-0.2-0.1c-0.1,0-0.2-0.1-0.3-0.2c-0.2-0.1-0.4-0.2-0.5-0.4c-0.1-0.1-0.2-0.3-0.2-0.4
				c0-0.1,0-0.3,0.1-0.4c0.1-0.1,0.1-0.2,0.3-0.3c0.1-0.1,0.2-0.1,0.4-0.2c0.2,0,0.3-0.1,0.5-0.1c0.1,0,0.2,0,0.3,0s0.2,0,0.2,0
				c0.1,0,0.1,0,0.2,0.1l0,0.1c0,0.1,0,0.2,0,0.2c0,0.1,0,0.2,0,0.2c0,0.1,0,0.2,0,0.3l-0.3,0c0,0,0,0,0,0c0,0,0,0,0,0s0,0,0,0
				c0-0.3-0.1-0.4-0.4-0.4c-0.1,0-0.2,0-0.3,0.1c-0.1,0-0.1,0.1-0.1,0.2c0,0.1,0,0.1,0.1,0.2c0.1,0.1,0.2,0.1,0.3,0.2
				c0.2,0.1,0.3,0.2,0.4,0.2c0.1,0.1,0.2,0.1,0.3,0.2c0.1,0.1,0.1,0.1,0.1,0.2c0,0.1,0,0.2,0,0.2c0,0.1,0,0.2-0.1,0.4
				c-0.1,0.1-0.2,0.2-0.3,0.3c-0.1,0.1-0.2,0.1-0.4,0.2C71.3,70.5,71.1,70.5,70.9,70.5z"/>
		</g>
	</g>
</g>
<g>
	<g>
		<path class="st0" d="M30.7,89.9c0-0.1,0-0.2-0.1-0.3s-0.1-0.1-0.2-0.1h-0.1l0,0l0-0.5c0.2,0,0.4,0,0.6-0.1c0.2,0,0.4-0.1,0.5-0.1
			c0.2,0,0.4,0,0.5-0.1l0.1,0.2c0,0-0.1,0.2-0.1,0.5c0,0.3-0.1,0.7-0.1,1.3c0.1-0.1,0.3-0.2,0.4-0.2c0.1-0.1,0.2-0.1,0.2-0.1
			c0.4,0,0.6,0.1,0.8,0.4c0.2,0.2,0.3,0.6,0.3,1c0,0.2,0,0.5-0.1,0.6c-0.1,0.2-0.2,0.4-0.3,0.5c-0.1,0.1-0.3,0.2-0.5,0.3
			c-0.2,0.1-0.4,0.1-0.6,0.1c-0.1,0-0.3,0-0.4,0s-0.3,0-0.4,0c-0.1,0-0.2,0-0.4-0.1l-0.1-0.1V89.9z M31.7,92.6
			C31.7,92.6,31.8,92.6,31.7,92.6c0.1,0,0.1,0,0.2,0c0,0,0.1,0,0.1,0c0.2,0,0.3-0.2,0.3-0.6c0-0.3,0-0.5-0.1-0.7
			c-0.1-0.1-0.1-0.2-0.3-0.2c-0.1,0-0.1,0-0.1,0c0,0-0.1,0-0.1,0L31.7,92.6z"/>
	</g>
	<g>
		<path class="st0" d="M33.8,92.8c0.2,0,0.3-0.1,0.3-0.4v-1c0-0.1,0-0.2-0.1-0.3s-0.1-0.1-0.2-0.1c0,0,0,0-0.1,0c0,0,0,0-0.1,0
			l0-0.5c0.2,0,0.4,0,0.5-0.1c0.2,0,0.3-0.1,0.5-0.1c0.2,0,0.3,0,0.5-0.1l0.1,0.1c-0.1,0.2-0.1,0.9-0.1,2.1c0,0.1,0,0.1,0,0.1
			s0.1,0,0.1,0c0,0,0,0,0,0c0,0,0,0,0,0c0,0,0,0,0,0l0,0l-0.1,0.5c-0.1,0-0.2,0-0.3,0c-0.1,0-0.2,0-0.3,0c-0.1,0-0.2,0-0.2,0
			c-0.1,0-0.2,0-0.3,0c-0.1,0-0.2,0-0.3,0c-0.1,0-0.2,0-0.3,0L33.8,92.8z M34.7,90c-0.2,0-0.3,0-0.4-0.1c-0.1-0.1-0.1-0.2-0.1-0.4
			c0-0.2,0.1-0.3,0.2-0.5s0.3-0.2,0.5-0.2c0.2,0,0.3,0,0.4,0.2c0.1,0.1,0.1,0.2,0.1,0.4c0,0.2-0.1,0.3-0.2,0.5
			C35,90,34.8,90,34.7,90z"/>
	</g>
	<g>
		<path class="st0" d="M37.5,92.9c-0.2,0.1-0.3,0.2-0.4,0.3s-0.2,0.1-0.2,0.1c-0.4,0-0.6-0.1-0.8-0.4c-0.2-0.2-0.3-0.6-0.3-1
			c0-0.2,0-0.5,0.1-0.6c0.1-0.2,0.2-0.4,0.3-0.5c0.1-0.1,0.3-0.2,0.5-0.3s0.4-0.1,0.6-0.1c0,0,0.1,0,0.1,0s0.1,0,0.1,0v-0.5
			c0-0.1,0-0.2-0.1-0.3c0,0-0.1-0.1-0.2-0.1c0,0,0,0,0,0c0,0,0,0,0,0c0,0,0,0-0.1,0l0.1-0.5c0.2,0,0.4,0,0.6-0.1
			c0.2,0,0.3-0.1,0.5-0.1c0.2,0,0.3,0,0.5-0.1l0.1,0.1c0,0-0.1,0.2-0.1,0.3c0,0.2,0,0.4-0.1,0.7c0,0.3,0,0.6,0,1c0,0.4,0,0.8,0,1.3
			c0,0.1,0,0.1,0,0.2s0.1,0.1,0.1,0.1c0,0,0,0,0.1,0s0,0,0.1,0s0,0,0.1,0l0.1,0.2c-0.1,0.1-0.1,0.2-0.2,0.3
			c-0.1,0.1-0.1,0.2-0.2,0.2s-0.2,0.1-0.3,0.2C37.8,93.4,37.6,93.2,37.5,92.9L37.5,92.9z M37.4,91.2C37.4,91.2,37.4,91.2,37.4,91.2
			c-0.1,0-0.1,0-0.2-0.1s-0.1,0-0.1,0c-0.2,0-0.3,0.2-0.3,0.6c0,0.3,0,0.5,0.1,0.7c0.1,0.1,0.1,0.2,0.3,0.2c0.1,0,0.1,0,0.2,0
			c0,0,0,0,0.1,0V91.2z"/>
	</g>
	<g>
		<path class="st0" d="M41.6,93.3c-0.1,0-0.1,0-0.3,0c-0.1,0-0.2,0-0.3,0c-0.1,0-0.3,0-0.4,0l0,0l0.1-0.4c0.1,0,0.2,0,0.2-0.1
			c0,0,0,0,0,0c0,0,0,0,0-0.1l-0.3-0.3c-0.1,0.1-0.1,0.1-0.2,0.2s-0.1,0.1-0.1,0.2c0,0.1,0.1,0.1,0.2,0.1l0,0l0,0.4
			c-0.1,0-0.2,0-0.3,0c-0.1,0-0.2,0-0.2,0s-0.1,0-0.2,0c-0.1,0-0.1,0-0.2,0c-0.1,0-0.1,0-0.2,0c-0.1,0-0.1,0-0.2,0l0-0.1l0.1-0.4
			c0,0,0.1-0.1,0.2-0.1s0.2-0.2,0.3-0.4l0.4-0.5l-0.3-0.5c-0.1-0.1-0.2-0.2-0.3-0.3c-0.1,0-0.2-0.1-0.3-0.1l0,0l0-0.5
			c0.1,0,0.1,0,0.2,0h0.6c0.1,0,0.2,0,0.3,0c0.1,0,0.2,0,0.3,0c0.1,0,0.2,0,0.3,0l0,0l0,0.4c-0.1,0-0.2,0-0.2,0.1c0,0.1,0,0.1,0,0.1
			s0,0.1,0.1,0.1l0.2,0.2l0.2-0.3c0,0,0.1-0.1,0.1-0.1c0,0,0-0.1,0-0.1s0-0.1,0-0.1c0,0-0.1,0-0.1,0l0,0l0-0.4h0.6
			c0.1,0,0.1,0,0.2,0c0.1,0,0.1,0,0.2,0c0.1,0,0.1,0,0.2,0l0,0l0,0.5c-0.1,0.1-0.2,0.1-0.3,0.2c-0.1,0.1-0.2,0.1-0.2,0.2L41.3,92
			l0.4,0.4c0.1,0.1,0.2,0.2,0.3,0.3c0.1,0.1,0.2,0.1,0.3,0.1l0,0l-0.1,0.4c-0.1,0-0.2,0-0.2,0c-0.1,0-0.1,0-0.2,0
			C41.7,93.3,41.6,93.3,41.6,93.3z"/>
	</g>
	<g>
		<path class="st0" d="M47.8,91.5c-0.1,0-0.1,0.1-0.2,0.1s-0.1,0.1-0.1,0.2s0,0.2,0,0.3c0,0.1,0,0.3,0,0.5c0,0.1,0,0.2,0,0.3
			c0,0.1,0,0.1,0,0.2l-0.1,0.1c-0.1,0-0.2,0.1-0.4,0.1c-0.1,0-0.3,0-0.5,0.1c-0.2,0-0.4,0-0.6,0c-0.3,0-0.5,0-0.8-0.1
			c-0.2-0.1-0.4-0.2-0.6-0.4c-0.2-0.2-0.3-0.4-0.4-0.6c-0.1-0.2-0.1-0.5-0.1-0.8c0-0.7,0.2-1.2,0.6-1.6c0.4-0.4,0.9-0.5,1.6-0.5
			c0.1,0,0.3,0,0.4,0c0.1,0,0.3,0,0.4,0.1c0.1,0,0.3,0,0.4,0.1l0.1,0.1c0,0.1-0.1,0.2-0.1,0.3c0,0.1,0,0.2-0.1,0.4s0,0.3,0,0.5
			l-0.9,0.1c0,0,0-0.1,0-0.1c0,0,0-0.1,0-0.1c0,0,0-0.1,0-0.1c0-0.1,0-0.2-0.1-0.3c0-0.1-0.1-0.1-0.3-0.1c-0.1,0-0.2,0-0.3,0.1
			s-0.1,0.1-0.2,0.2c0,0.1-0.1,0.2-0.1,0.3c0,0.1,0,0.3,0,0.5c0,0.5,0,0.8,0.1,1c0.1,0.2,0.3,0.3,0.5,0.3c0.1,0,0.1,0,0.1,0
			c0,0,0.1,0,0.1,0c0,0,0.1,0,0.1,0v-0.4c0-0.1,0-0.2,0-0.2s-0.1-0.1-0.2-0.1c0,0,0,0-0.1,0c0,0,0,0-0.1,0h-0.1l-0.1-0.1l0.1-0.6
			h0.9c0.1,0,0.2,0,0.3,0c0.1,0,0.2,0,0.2,0c0.1,0,0.1,0,0.2,0L47.8,91.5z"/>
	</g>
	<g>
		<path class="st0" d="M48.3,92.8c0.1,0,0.2,0,0.2-0.1s0.1-0.1,0.1-0.2v-1c0-0.1,0-0.2-0.1-0.3c0,0-0.1-0.1-0.2-0.1h-0.1l0,0l0-0.4
			c0.2,0,0.4,0,0.5-0.1s0.3,0,0.5-0.1c0.2,0,0.3,0,0.5-0.1l0.1,0.1c0,0.1,0,0.1,0,0.2c0,0,0,0.1,0,0.2c0,0.1,0,0.1,0,0.2l0,0
			c0.1-0.2,0.3-0.3,0.4-0.4c0.1-0.1,0.3-0.1,0.4-0.1c0,0,0.1,0,0.1,0c0,0,0.1,0,0.1,0c0,0,0.1,0,0.1,0l0,0.1c0,0.1,0,0.3-0.1,0.4
			c0,0.1,0,0.3-0.1,0.4s0,0.3,0,0.5l-0.6,0c0-0.2,0-0.4,0-0.4c0-0.1-0.1-0.1-0.1-0.1c-0.1,0-0.1,0-0.2,0.1c0,0.2,0,0.4,0,0.5
			c0,0.1,0,0.3,0,0.4s0,0.2,0,0.2c0,0.1,0.1,0.2,0.2,0.2c0,0,0.1,0,0.1,0s0.1,0,0.1,0c0,0,0.1,0,0.1,0l0,0l-0.1,0.5
			c-0.1,0-0.2,0-0.4,0c-0.1,0-0.2,0-0.3,0s-0.2,0-0.3,0c-0.1,0-0.2,0-0.3,0c-0.1,0-0.2,0-0.3,0c-0.1,0-0.2,0-0.3,0L48.3,92.8z"/>
	</g>
	<g>
		<path class="st0" d="M52.4,93.4c-0.4,0-0.8-0.1-1-0.4S51,92.4,51,92c0-0.5,0.1-0.9,0.4-1.1c0.3-0.3,0.6-0.4,1.1-0.4
			c0.4,0,0.8,0.1,1,0.4c0.2,0.2,0.4,0.6,0.4,1.1c0,0.5-0.1,0.9-0.4,1.1C53.3,93.2,52.9,93.4,52.4,93.4z M52.5,92.7
			c0.1,0,0.2,0,0.2-0.1s0.1-0.2,0.1-0.5c0-0.2,0-0.4,0-0.5c0-0.1,0-0.2-0.1-0.3c0-0.1-0.1-0.1-0.1-0.2c0,0-0.1,0-0.2,0
			c-0.1,0-0.2,0-0.2,0.1c0,0.1-0.1,0.2-0.1,0.4c0,0.2,0,0.4,0,0.5s0,0.2,0.1,0.3s0.1,0.1,0.1,0.2C52.4,92.7,52.4,92.7,52.5,92.7z"/>
	</g>
	<g>
		<path class="st0" d="M54.5,91.4c0-0.1,0-0.2,0-0.2c0,0-0.1-0.1-0.1-0.1c0,0,0,0-0.1,0c0,0,0,0-0.1,0h0l0-0.5c0.2,0,0.3,0,0.5-0.1
			c0.2,0,0.3,0,0.4-0.1c0.2,0,0.3,0,0.4-0.1l0.1,0.1c0,0,0,0.1-0.1,0.2s0,0.2-0.1,0.4c0,0.1,0,0.3,0,0.5s0,0.3,0,0.5
			c0,0.2,0.1,0.4,0.3,0.4c0.1,0,0.2,0,0.3-0.1v-1c0-0.1,0-0.1,0-0.1c0,0,0-0.1,0-0.1c0,0,0,0-0.1,0c0,0-0.1,0-0.1,0h-0.1l0.1-0.5
			c0.2,0,0.3,0,0.5-0.1c0.2,0,0.3,0,0.4-0.1c0.2,0,0.3,0,0.4-0.1l0.1,0.1c0,0-0.1,0.1-0.1,0.2c0,0.1,0,0.2-0.1,0.4
			c0,0.2,0,0.3,0,0.5c0,0.2,0,0.4,0,0.6c0,0.1,0,0.1,0,0.2c0,0,0.1,0.1,0.1,0.1c0,0,0,0,0.1,0s0,0,0.1,0c0,0,0,0,0.1,0l0.1,0.2
			c-0.1,0.1-0.1,0.2-0.2,0.3c-0.1,0.1-0.1,0.2-0.2,0.2s-0.2,0.1-0.3,0.2c-0.4,0-0.6-0.1-0.7-0.4l-0.1,0c-0.1,0.1-0.2,0.3-0.3,0.3
			c-0.1,0.1-0.1,0.1-0.2,0.1c-0.4,0-0.6-0.1-0.8-0.2c-0.2-0.1-0.3-0.3-0.3-0.6L54.5,91.4z"/>
	</g>
	<g>
		<path class="st0" d="M57.8,94.2c0.1,0,0.2,0,0.2-0.1c0,0,0.1-0.1,0.1-0.2l0-0.8v-1.6c0-0.1,0-0.2-0.1-0.3c0,0-0.1-0.1-0.2-0.1
			h-0.1l0,0l0-0.4c0.2,0,0.3,0,0.5-0.1s0.3,0,0.4-0.1c0.2,0,0.3,0,0.4-0.1l0.1,0.1c0,0,0,0.1,0,0.1c0,0,0,0.1,0,0.1
			c0,0.1,0,0.1,0,0.1l0,0c0.3-0.3,0.4-0.5,0.5-0.5c0.2,0,0.4,0,0.5,0.1c0.2,0.1,0.3,0.2,0.4,0.3s0.2,0.3,0.2,0.4s0.1,0.4,0.1,0.6
			c0,0.5-0.2,0.9-0.5,1.2c-0.3,0.3-0.7,0.4-1.3,0.4h0c0,0,0,0,0,0c0,0.1,0,0.2,0,0.2s0,0.2,0,0.2c0,0.1,0,0.2,0,0.3
			c0,0.1,0.1,0.1,0.1,0.1c0,0,0.1,0,0.1,0c0,0,0.1,0,0.1,0c0,0,0.1,0,0.1,0l0,0l-0.1,0.5c-0.1,0-0.2,0-0.4,0c-0.1,0-0.2,0-0.3,0
			s-0.2,0-0.3,0c-0.1,0-0.2,0-0.3,0c-0.1,0-0.2,0-0.3,0c-0.1,0-0.2,0-0.3,0L57.8,94.2z M59.1,92.6C59.1,92.6,59.2,92.6,59.1,92.6
			c0.1,0,0.1,0,0.2,0c0,0,0.1,0,0.1,0c0.2,0,0.3-0.2,0.3-0.6c0-0.3,0-0.5-0.1-0.6s-0.2-0.2-0.3-0.2c-0.1,0-0.1,0-0.2,0
			c0,0.2,0,0.5,0,0.7S59.1,92.4,59.1,92.6z"/>
	</g>
</g>
</svg>
