<?xml version="1.0" encoding="utf-8"?>
<!-- Generator: Adobe Illustrator 16.0.0, SVG Export Plug-In . SVG Version: 6.00 Build 0)  -->
<!DOCTYPE svg PUBLIC "-//W3C//DTD SVG 1.1//EN" "http://www.w3.org/Graphics/SVG/1.1/DTD/svg11.dtd">
<svg version="1.1" id="Layer_1" xmlns="http://www.w3.org/2000/svg" xmlns:xlink="http://www.w3.org/1999/xlink" x="0px" y="0px"
	 width="70.9px" height="2834.6px" viewBox="0 0 70.9 2834.6" enable-background="new 0 0 70.9 2834.6" xml:space="preserve">
<path fill="#008A2D" d="M13.9,1197.1c0.5,0.7,1.1,1.4,1.8,1.9c1.3,1.1,2.6,2.3,4.1,3c2.7,1.3,5.7,1.3,8.7,0.8c1.4-0.2,2.7-0.7,4-1.1
	c0.101,0,0.2-0.101,0.4-0.2c0.6-0.4,1.1-0.7,1.7-1.1c1-0.601,2.1-1.101,2.5-2.2c0.6-1.4,1.199-2.9,1.8-4.4c0.2-0.5,0.2-1,0.2-1.5
	c0-0.699-0.101-1.5-0.101-2.199c-0.1-2.301,0.101-4.7-1.2-6.801c0.101-0.1,0.2-0.1,0.2-0.199c3.9-1.801,7.8-3.601,11.7-5.4
	c0.2-0.1,0.4-0.1,0.6-0.1c1.5,0.199,3,0.399,4.5,0.6c0.5,0.1,1,0,1.301-0.5c0.5-0.6,1-1.1,1.5-1.7c0.1-0.1,0.3-0.199,0.399-0.199
	c0.7,0,0.8-0.301,0.4-0.801c0.8-1.1,0.8-1.1-0.5-1.6c-0.9-0.4-1.9-0.7-2.8-1c-0.4-0.1-0.5-0.3-0.4-0.7c0.2-0.8,0.3-1.7,0.4-2.5
	c0.1-0.899,0.3-1.8,0.399-2.8c-1.1,0-5.7,2.4-6.3,3.3c0.6-0.1,1.1-0.2,1.5-0.3c-0.1,1.1-0.2,2.1-0.2,3.2c0,0.199,0.2,0.399,0.3,0.6
	c0.101-0.2,0.2-0.3,0.301-0.5c0.1-0.9,0.1-1.8,0.1-2.8s0.3-1.301,1.3-1.5c-0.6,1.199-0.8,3.399-0.2,3.899c0.101-0.8,0.2-1.6,0.2-2.3
	c0.101-1.4,0.8-2.4,2.3-2.7c-0.199,1-0.399,2-0.6,2.9c0,0.2-0.1,0.4-0.1,0.7s0,0.6-0.101,0.899c-0.3,0.7-0.3,0.801,0.5,1.101
	c1.2,0.399,2.3,0.8,3.5,1.3c0,0.1,0.101,0.2,0.101,0.3c-0.301,0.2-0.601,0.601-0.801,0.601c-0.899,0-1.8-0.2-2.699-0.4
	c-0.2,0-0.4,0-0.801,0c1.101,0.9,2.2,0.8,3.301,0.9c-0.4,0.8-1,0.8-1.7,0.699c-1-0.1-2-0.1-3-0.199c-0.2,0-0.4,0.199-0.601,0.199
	c0,0.101,0,0.101,0.101,0.2c0.6,0,1.3,0,1.899,0c0.601,0,1.301,0.1,1.9,0.2c0,0.1,0,0.2,0,0.3c-0.4,0.1-0.8,0.3-1.2,0.2
	c-1.2-0.101-2.5-0.3-3.7-0.4c-0.1,0-0.199-0.1-0.3-0.1c-0.2,0-0.5-0.101-0.7-0.101c-4.199,1.9-8.3,3.801-12.399,5.801
	c-0.5-0.601-0.9-1.2-1.4-1.801c0.2-0.1,0.3-0.199,0.5-0.3c4-1.899,8.101-3.7,12.101-5.6c0.3-0.101,0.6-0.2,0.899-0.4
	c0.101-0.1,0.2-0.3,0.2-0.5c0-0.3-0.2-0.6-0.2-1c0-0.8,0.101-1.6,0.2-2.399c0-0.2-0.1-0.5-0.2-0.7c-0.1,0-0.2,0-0.3,0
	c-0.1,0.399-0.2,0.7-0.3,1.1c-0.101,0.7-0.101,1.3-0.2,2c-0.1,1.3-0.2,1.4-1.5,1.8c-1.5,0.5-3,1-4.5,1.601c-2.5,1.1-5,2.399-7.5,3.7
	c0,0-0.1-0.101-0.2-0.2c-3.5-2.8-7.7-3.9-12-4.101c-2.899-0.199-5.5,0.9-7.399,3.101c-1.9,2.1-3.5,4.399-3.7,7.399
	c-0.2,2.601-0.101,5.101,0.7,7.601C12.9,1195.2,13.4,1196.2,13.9,1197.1z M32.7,1200.4c-0.3-0.7,0-1.601,0.6-1.801
	C33.1,1199.2,32.9,1199.8,32.7,1200.4z M33.4,1200.4c0.1-0.4,0.2-0.7,0.3-1.101c0.6,0.601,1,0.2,1.5-0.1c0,0.1,0.1,0.1,0.1,0.2
	C34.8,1199.7,34.2,1200,33.4,1200.4z M34.5,1198.9c-0.399-1,0.2-1.101,0.8-1.301C35.1,1198.1,34.9,1198.5,34.5,1198.9z M35.2,1181.4
	c0.1-0.101,0.4,0,0.5,0.199c0.4,0.5,0.7,0.9,1.2,1.5c-1.2,0.5-2.3,0.9-3.4,1.301c-0.1,0-0.3,0-0.399,0
	c-0.4-0.4-0.801-0.801-1.301-1.301C32.9,1182.5,34,1181.9,35.2,1181.4z M26.4,1185.5c0.399-1,0.7-2,1.1-3c0.101-0.2,0.4-0.5,0.5-0.4
	c0.4,0,0.7,0.2,1,0.4c0.101,0.1,0.101,0.3,0.2,0.4c0.5,1,0.5,1,1.5,0.699c0.1,0,0.4,0,0.5,0.101c0.4,0.3,0.8,0.7,1.2,1.1
	c-0.7,0.3-1.4,0.5-2.101,0.8c0.301,1.101,0.7,2.2,1,3.4c-1.1-0.3-2-0.5-3.1-0.7C28.7,1186.7,27.3,1186.2,26.4,1185.5z M24.4,1189.1
	c0,0.101,0.1,0.301,0.2,0.4c0.1,0.2,0.199,0.5,0.3,0.5c0.2,0,0.399-0.1,0.6-0.2c0.101-0.1,0.2-0.3,0.4-0.399
	c0.6,0.699,1-0.301,1.6-0.301c-0.3,1-2,1.5-3.1,1.101c-1-0.4-1.5-1.601-1-2.601c0,0,0,0.101,0.1,0.101c0,0.3,0.101,0.6,0.101,0.8
	c0.199-0.2,0.5-0.4,0.6-0.6c0.2-0.4,0.3-0.9,0.4-1.301c0.1-0.199,0.3-0.399,0.399-0.6c0.101,0,0.101,0.1,0.2,0.1
	c-0.2,0.601-0.5,1.301-0.7,1.9C24.3,1188.3,24.4,1188.7,24.4,1189.1z M25.9,1185.3c-0.601,0-1.2-0.2-1.5,0c-0.7,0.5-1.3,1.2-1.7,1.9
	c-0.6,1.1-0.3,2.2,0.5,3c0.5,0.6,1.2,0.899,2,0.7c0.5-0.101,0.9-0.2,1.4-0.301c0.699-0.1,1.3-0.6,1.5-1.3
	c0.1-0.399,0.399-0.5,0.699-0.399c0.801,0.199,1.601,0.399,2.301,0.6c0.899,0.2,1.1,0.1,0.899-0.8c-0.2-0.9-0.5-1.801-0.8-2.9
	c0.6-0.2,1.2-0.4,1.7-0.7c2.399,3,1.5,8.101-3.2,9.2c-2.1,0.5-4,0-6-0.7c-2.3-0.8-3.6-2.399-4.5-4.5c-1-2.399,0.7-6.399,3.1-7.199
	c0.801,0.399,1.4-0.601,2.301-0.4c0.8,0.2,1.699,0.2,2.5,0.3C26.7,1183.1,26.3,1184.2,25.9,1185.3z M14.3,1187.1c0-1,0.101-2,0.2-3
	c0.2-1.6,0.8-2.899,1.9-4c0.5-0.5,0.8-1.1,1.399-1.6c0.9-0.8,1.9-1.5,3.301-1.4c0.399,0,0.8-0.1,1.1-0.199c1.7-0.4,3.4,0,5.1,0.399
	c2.7,0.601,5.301,1.601,7.601,3.5c-1.101,0.601-2.2,1.2-3.2,1.8c-0.1,0.101-0.3,0-0.5,0c-0.1,0-0.1-0.1-0.2-0.1
	c-1.2-0.6-2.1-1.4-2.3-2.9c-0.1,0-0.2,0.101-0.3,0.101c-0.101,0.2-0.3,0.399-0.3,0.6c-0.301,1-0.301,1.101-1.301,0.9
	c-0.699-0.101-1.5-0.3-2.199-0.2c-1.101,0.2-2.101,0.5-3.101,1c-3.2,1.6-3.899,6.5-2.2,8.9c1,1.399,2,2.5,3.601,3.199
	c2.3,1,4.7,1.7,7.2,1.101c4.6-1,6.1-5.7,4.1-9.4c-0.1-0.2-0.2-0.399-0.4-0.7c1.101-0.399,2.301-0.899,3.5-1.399c0.301,1,0.801,2,1,3
	c0.2,1.3,0.301,2.7,0.301,4.1c-0.101,2.9-1.5,5.2-4.101,6.5c-2.6,1.3-5.3,1.601-8.2,1.7c-3.1,0-5.8-1-8.1-3.1
	C15.5,1193.5,14.1,1190.6,14.3,1187.1z M31.8,1199.1c-0.399,0.4-0.699,0.9-1.1,1.301C30.6,1199.2,30.8,1199.1,31.8,1199.1z
	 M29.9,1199.4c-0.3,0.5-0.601,0.899-1,1.5C28.9,1199.5,28.9,1199.5,29.9,1199.4z M27.8,1199.7c-0.399,0.5-0.699,1-1.199,1.5
	c0-0.601,0-1.101,0-1.5C27,1199.7,27.3,1199.7,27.8,1199.7z M25.8,1199.7c-0.3,0.399-0.6,0.8-0.8,1.2h-0.1
	c0.1-0.4,0.1-0.7,0.2-1.101C25.3,1199.7,25.5,1199.7,25.8,1199.7z M24.2,1199.6c-0.4,0.5-0.8,1-1.1,1.4c-0.101,0-0.101,0-0.2-0.1
	c0-0.5-0.101-1-0.101-1.601C23.3,1199.4,23.7,1199.5,24.2,1199.6z M22.2,1199.2c-0.3,0.3-0.6,0.5-1,0.899c0-0.399,0-0.8,0-1.199
	C21.6,1198.9,21.8,1199,22.2,1199.2z M20.2,1198.3c-0.4,0.3-0.7,0.601-1,0.8c0,0-0.1,0-0.1-0.1c0.1-0.4,0.3-0.8,0.5-1.2
	C19.8,1198,19.9,1198.1,20.2,1198.3z M18.6,1197.2c-0.301,0.3-0.601,0.5-0.801,0.7c0,0-0.1,0-0.1-0.101c0.1-0.399,0.1-0.7,0.2-1.1
	C18.1,1196.8,18.3,1197,18.6,1197.2z M15.4,1193.8c-0.3,0.2-0.5,0.5-1,0.8c0.1-0.8,0.1-1.399,0.2-1.899c0,0,0.1,0,0.1-0.101
	C14.9,1193,15.1,1193.4,15.4,1193.8z M12.6,1185.1c0.1,0.101,0.199,0.101,0.199,0.2c0.301-0.1,0.601-0.3,1.101-0.5
	c-0.2,0.4-0.4,0.7-0.601,0.9c-0.3,0.399-0.5,0.8-0.8,1.2c0,0.1,0,0.199,0,0.399c0,0.3,0.101,0.5,0.101,0.8c-0.101,0-0.2,0-0.301,0
	C12.4,1187.1,12.5,1186.1,12.6,1185.1z M13.1,1190.9c-0.101,0.6-0.101,1.1-0.2,1.6c0.1,0,0.1,0.1,0.2,0.1c0.3-0.3,0.6-0.699,0.899-1
	H14.1c-0.101,0.5-0.301,1-0.4,1.5c-0.1,0.4-0.6,0.7,0.1,1.101c0.2,0.1,0.101,0.8,0.2,1.1c0.2,0.2,0.4,0.3,0.7,0.601
	c0.3-0.5,0.6-1,0.9-1.5c0.1,0,0.1,0,0.199,0c0,0.199,0,0.399-0.1,0.5c-0.1,0.3-0.3,0.5-0.5,0.8c-0.2,0.399-0.4,0.7,0.2,1
	c0.1,0,0.1,0.1,0.1,0.1c0.4,0.8,0.4,0.8,1.101,0.3c0.1,0,0.1,0,0.3-0.1c-0.101,0.5-0.2,0.9-0.2,1.3c0,0.2,0.1,0.601,0.2,0.601
	c0.2,0.1,0.5,0,0.7-0.2c0.3-0.2,0.5-0.4,0.8-0.7c-0.101,0.4-0.2,0.7-0.101,0.9c0,0.199,0.101,0.6,0.301,0.699
	c0.199,0.101,0.5,0.101,0.699,0c0.4-0.199,0.7-0.5,1.2-0.8c-0.1,0.5-0.1,0.9-0.2,1.2c0,0.2,0,0.6,0,0.6c0.2,0.101,0.5,0.101,0.801,0
	c0.3-0.1,0.6-0.399,0.899-0.6c0.101,0.4,0.101,0.8,0.3,1.1c0.101,0.2,0.301,0.601,0.5,0.601c0.2,0,0.5-0.2,0.7-0.4
	c0.2-0.1,0.3-0.3,0.4-0.5c0.6,1.101,0.7,1.101,1.7,0.101c0.199,0.3,0.399,0.6,0.699,0.899c0.301-0.3,0.7-0.5,1-0.8
	c0.2-0.2,0.4-0.4,0.601-0.8c0.1,0.3,0.1,0.6,0.2,0.8c0.1,0.2,0.199,0.4,0.399,0.5c0.2,0,0.4-0.1,0.601-0.2
	c0.199-0.2,0.399-0.6,0.699-0.899c0.101,0.6,0.4,1,0.9,0.6c0.4-0.2,0.6-0.6,1-1c0.1,0.6,0.2,0.9-0.4,1.1c-3.1,1.2-6.3,1.2-9.6,0.601
	c-0.6-0.101-1.3-0.301-1.8-0.7c-1.601-1-3.101-1.9-4.4-3.3c-0.1-0.101-0.2-0.301-0.399-0.4c-2.301-1.6-2.301-4.2-2.9-6.5
	C12.7,1191.1,12.9,1191,13.1,1190.9z"/>
<g>
	<path fill="#008A2D" d="M56.9,1868.8c-0.2-0.399-0.2-0.899-0.5-1.2c-1.5-1.8-3-3.6-4.5-5.399c-0.4-0.5-0.8-0.4-1.2,0
		c-0.9,0.8-1.9,1.6-2.8,2.399c-9.101,7.7-18.2,15.4-27.3,23.101c-0.5,0.399-1,1-1.5,1.5c-0.801,0.8-1.5,1.7-1.301,2.899
		c0,0.101-0.1,0.301-0.1,0.5c-1.2,2.801-2.4,5.601-3.6,8.5C14,1901.4,14,1901.8,14,1902.2c0.4,0,0.8,0,1.2-0.101
		c0.7-0.3,1.3-0.699,2-1.1c2.4-1.2,4.8-2.3,7.2-3.4c0.3-0.199,0.7-0.1,1.1-0.3c0.4-0.2,0.9-0.399,1.2-0.8c0.5-0.4,0.8-1,1.3-1.4
		c4-3.3,8.101-6.6,12.2-10c4.4-3.699,8.7-7.5,13.1-11.199c0.801-0.7,1.7-1.301,2.4-2.2c0.7-0.8,1.9-1.5,1.1-2.9
		C56.8,1868.8,56.8,1868.8,56.9,1868.8z M19.5,1898.6c-0.5,0.2-1.3-0.3-1.399-1.1c-0.101-0.4-0.101-0.9,0-1.3c0.5-1.4,1-2.8,1.6-4.3
		c1.5,1.5,3,2.8,4.5,4.3C22.6,1897.1,21.1,1897.8,19.5,1898.6z M24.1,1893c-0.2,0.2-0.5,0.4-0.9,0.8c-0.9-1-1.8-1.899-2.7-2.899
		c-0.399-0.4-0.399-0.9,0.101-1.301c5-4.399,10-8.8,15.1-13.1s10.3-8.5,15.4-12.8c0,0,0.1,0,0.199-0.101c0.5,0.4,1,0.9,1.7,1.4
		c-1.8,1.5-3.5,2.9-5.3,4.2c-1.8,1.399-3.7,2.6-5.4,4.1c-1.8,1.4-3.5,3-5.199,4.5c-1.7,1.5-3.4,3-5.101,4.4
		c-1.7,1.5-3.5,2.899-5.2,4.399c-1.699,1.4-3.6,2.601-4.899,4.4c0.1,0.1,0.2,0.2,0.3,0.3c0.3-0.2,0.6-0.3,0.9-0.6
		c5.1-4.4,10.1-8.8,15.3-13.101c4.5-3.699,9.3-7.199,13.899-10.899c0.4-0.3,0.9-0.7,1.301-1c0.6,0.3,0.6,0.8,0.199,1.2
		c-1,0.899-1.899,1.899-3,2.699c-7.199,5.2-13.899,11.101-20.5,17.2C28.1,1888.8,26.2,1891,24.1,1893z M41,1882.8
		c-4.899,4.5-10.1,8.601-15.6,12.5c-0.4-0.3-0.7-0.6-0.9-0.8c9.2-10,19.7-18.4,30.5-26.6c0.3,0.399,0.601,1,1,1.6
		C51,1874,45.9,1878.3,41,1882.8z"/>
</g>
<g>
	<path fill="#008A2D" d="M13.1,2586.9c0.6,2,1.699,3.699,3.3,5.1c1.8,1.6,3.6,3.4,5.5,4.9c3.899,3.1,8.2,5,12.2,5.1
		c12.5-0.5,20.3-6.2,24.3-16.8c3.3-8.601,0.2-19.2-9-24.9c-0.3-0.2-0.601-0.6-0.7-0.899c-0.3-0.9-0.9-1.2-1.8-1.101
		c-0.7,0.101-1.4,0-2-0.2c-2.101-0.6-4.2-1.5-6.4-1.699c-4.5-0.4-8.899,0.6-13.1,2.199c-6.3,2.301-10.101,7.2-12.601,13.2
		c-1.199,2.9-1.899,6-1.3,9.2C11.8,2583,12.5,2584.9,13.1,2586.9z M13.8,2573.1C16.1,2566.9,19.9,2562.2,26.2,2559.7
		c1.4-0.601,2.9-1,4.3-1.399c0.7-0.2,1.7-0.101,2.101,0.199c0.899,0.801,1.699,1.101,2.899,0.5c0,1.101,0,1.9,0,3
		c1.101-1.199,1.3-2.699,0.601-3.899c1.699-0.3,7.199,0.899,8.399,1.899c0.2,0.101,0.3,0.4,0.3,0.7c0,0.5,0,1,0,1.5
		c0,1-0.399,1.5-1.399,1.7c-0.7,0.1-1.4,0.3-1.9,0.199c-1.1-0.899-2.1-1.699-3.2-2.5c-0.199-0.199-0.899-0.1-1,0.101
		c-0.199,0.8-0.3,1.601-0.5,2.399c0.4,0.101,0.9,0.301,1.101,0.2c1-0.7,1.3,0,1.6,0.7c0.101,0.3,0.101,0.7,0.2,1.1
		c0.2,0.601,0.5,0.9,1.2,0.601c1.2-0.5,2.5-0.899,3.8-1.399c1.2-0.4,1.9-1.2,1.8-2.601c0-0.5,0-1,0.101-1.601
		c3.8,1.4,6.3,4,8.6,7.101c-1.6,1.3-1.9,2.8-1.2,4.7c0.5,1.399-0.2,2.1-1.7,1.8c-1.8-0.399-3.5,0.101-5.1,0.7
		c-0.9,0.3-0.9,1.1-0.7,1.8c0.2,0.601,0.5,1.101,0.8,1.7c-1.5,0.5-1.8,1.8-2.3,3.1c-0.1-0.399-0.1-0.699-0.2-1.1
		c-0.5-1.601-1-3.2-1.6-4.801c-0.3-0.8-1-1.1-1.8-1c-0.9,0.101-1.601,0.5-1.7,1.5c-0.2,1.101-0.7,1.7-1.8,1.801
		c-1.5,0.1-2.3,0.8-2.2,2.399c-0.4,0-0.8,0-1.1,0c-3-0.1-5.2,2.101-5.4,5c-0.2,2.101-0.5,4.3-0.8,6.4c0,0.2-0.4,0.5-0.601,0.5
		c-0.8,0-1.399-0.4-1.5-1.3c-0.1-1.4-0.6-2.601-1.699-3.5c-0.4-0.301-0.5-0.9-0.7-1.4c-0.9-2.5-1.7-5.1-2.8-7.5
		c-0.5-1-1.5-1.9-2.4-2.6c-0.3-0.301-1.1-0.101-1.6,0c-0.9,0.199-1.801,0.699-2.601-0.101C13.6,2575.3,13.3,2574.3,13.8,2573.1z
		 M13.1,2576.7c0-0.101,0.1-0.101,0.199-0.3c1,1.5,2.301,1.8,3.9,1.8c1.4-0.101,2.1,0.899,2.5,2c0.8,2,1.4,4.1,2.3,6.1
		c0.5,1.2,1.2,2.3,1.8,3.5c0.301,0.601,0.5,1.2,0.601,1.8c0.399,2,1.2,2.801,3.2,3c1.399,0.2,2.5-0.8,2.6-2.199
		c0.2-2.4,0.5-4.801,0.9-7.2c0.3-1.7,1.899-2.7,3.6-2.5c0.3,0,0.7,0.101,1,0.2c1.4,0.1,1.7-0.101,1.8-1.5c0-0.301,0.2-0.801,0.4-0.9
		c1.8-0.5,3.1-1.6,3.6-3.399c0.101,0,0.2,0,0.3,0c0.301,0.7,0.7,1.399,0.9,2.2c0.2,1.1,0.3,2.3,0.5,3.399c0.2,1.5,1.1,2.101,2.4,1.3
		c0.699-0.399,1.1-1.3,1.6-2c0.3-0.399,0.5-1,0.9-1.3c1.3-1.101,1.399-1.399,0.5-2.899c-0.101-0.2-0.301-0.5-0.5-1
		c1.399-0.101,2.8-0.5,3.899-0.101c2.101,0.601,4.5-1.2,3.5-4c-0.3-0.899-0.3-1.7,0.3-2.5c1.801,4,2.601,8.101,1.601,12.399
		c-3.2,13.801-14.2,17.601-23.3,17.801c-3.5,0.1-6.7-1.5-9.601-3.5c-2-1.4-4-3-5.8-4.7c-3.8-3.5-5.6-8-5.7-13.101
		C13,2578.1,13.1,2577.4,13.1,2576.7z"/>
</g>
<g>
	<path fill="#008A2D" d="M53.1,586.6c-12.601,0.5-25.2,1-37.9,1.601c-2.2,0.1-4.3,0.1-6.4-0.9c-1-0.5-1.6,0.101-1.8,1
		c-0.399,2.101-1.2,4.2-1.2,6.3C5.9,598.7,6.4,602.8,6.9,606.8c0.1,0.9,0.899,2,1.7,2.601c2.1,1.6,4.6,2.6,7.3,2.699
		c9.7,0.2,19.399,0.4,29.1,0.601c0.3,0,0.5,0.1,0.8,0.1c0.301,1.4,0.4,2.7,0.801,4C47,618,47.8,619.2,48.5,620.3
		c0.3,0.5,0.9,0.7,1.4,1.1c0.399-0.6,1-1.1,1.2-1.699c0.5-1.7,0.699-3.5,1.1-5.301c0.4-1.899,0.7-2.1,2.6-2.1
		c1.801,0,3.601,0,5.4-0.1c1.8-0.2,2.9-1.101,3.5-3c1.8-5.3,1.3-10.8,1.4-16.2c0-0.9-0.2-1.8-0.301-2.7c-0.5-2.4-1.199-3.1-3.6-3.3
		C58.4,586.7,55.7,586.5,53.1,586.6z M62.4,591.1c0.1,3.9,0.3,7.9,0.1,11.801c-0.1,2-0.8,4.1-1.399,6
		C61,609.3,60.3,609.8,59.8,609.9c-1.5,0.199-3,0.3-4.6,0.199c-3.3-0.199-4.7,0.7-5.3,4c-0.2,1.101-0.4,2.2-0.601,3.2
		c-0.199,0-0.399,0-0.5,0c-0.3-1.5-0.6-3-0.699-4.6C47.8,610.6,47.4,610.1,45.3,610.1C35.9,610,26.5,610,17.1,609.9
		c-2.301,0-4.4-0.601-6.301-1.801c-0.8-0.5-1.6-1.6-1.899-2.6c-1.2-4.6-1.2-9.2-0.601-13.9c0.2-1.3,0.601-1.699,2-1.6
		c3.601,0.2,7.101,0.4,10.7,0.3c7-0.3,13.9-0.8,20.9-1.2C47,588.9,52.2,588.8,57.3,588.7c1.2,0,2.5,0.3,3.7,0.5
		C61.9,589.5,62.4,590.1,62.4,591.1z"/>
</g>
<g>
	<path fill="#008A2D" d="M53.6,254.3c-0.5-0.4-1-0.8-1.5-1.2c-1.4-1.2-2.7-2.3-4-3.6c-1-1-1.9-2-2.9-3c-0.2-0.2-0.5-0.4-0.8-0.5
		c-0.101,0.1-0.2,0.2-0.2,0.2c0.5,3.1,3.4,4.3,5.2,6.6c-0.5,0.1-0.9,0.1-1.3,0.2c-6.2,0.7-12.301,0.2-18.5-0.1
		c-3.7-0.1-7.4-0.3-11.101-0.5c-0.6,0-1.3-0.1-1.399,0.7c-0.101,0.8,0.5,1.1,1.1,1.4c0.2,0.1,0.4,0.2,0.7,0.2
		c2.1,0.1,4.2,0.3,6.3,0.3c7.5,0,15-0.1,22.4-0.1c0.3,0,0.699,0.1,1,0.1c0.6,0.1,1.1,0.1,1.699,0.2c0.301,0,0.5,0,1-0.1
		c-0.6,0.5-1.1,0.9-1.5,1.4c-2.199,2.4-4.199,5-6.899,6.9c-0.3,0.2-0.5,0.7-0.8,1.1c1,0.3,1.699,0.3,2.3-0.5c0.3-0.4,0.8-0.6,1.1-1
		c0.9-0.9,1.7-1.7,2.5-2.6c1.5-1.8,2.9-3.6,5.101-4.6c0.199-0.1,0.3-0.2,0.5-0.3C54,255.2,54.1,254.7,53.6,254.3z"/>
</g>
<g>
	<path fill="#008A2D" d="M51.1,1051.2c-3.101,2.3-6.101,4.5-9.2,6.8c-5.2,3.9-10.3,7.9-15.5,11.9c-0.4-0.801-0.9-1.5-1.4-2.301
		c-0.8-1.399-1.7-2.699-2.399-4.1c-0.301-0.6-0.5-1.3-0.9-1.9c-0.2-0.3-0.7-0.6-1-0.6c-0.5,0.1-0.9,0.4-1.3,0.7
		c-2.101,1.7-4.2,3.399-6.4,5.1c-1.1,0.8-1.2,1.601-0.6,2.7c3.399,6.1,7.399,11.7,12.2,16.7c0.699,0.8,1.5,0.8,2.3,0.199
		c2.899-2.3,5.8-4.5,8.6-6.899c5.8-5.2,11.5-10.601,17.3-16c0.7-0.601,1.5-1.2,2.301-1.7c1-0.8,2.1-1.5,3.199-2.2
		c0.9-0.6,0.9-1.199,0.2-2c-1.6-2-3.1-4-4.7-6C52.6,1050.3,52.4,1050.2,51.1,1051.2z M53.6,1060.7c-0.7,0.399-1.4,0.8-2,1.399
		C45,1068.2,38.5,1074.3,31.8,1080.3C30,1082,27.9,1083.4,26,1084.9c-0.3-0.2-0.6-0.4-0.8-0.601c-2.9-3.5-5.9-7-8.7-10.7
		c-1.1-1.5-1.899-3.3-2.8-5c-0.1-0.199,0.2-0.899,0.5-1.1c2-1.5,4-2.9,6.2-4.4c1.1,1.801,2.1,3.601,3.2,5.4c0.8,1.2,1.6,2.5,2.6,3.6
		c0.8,0.9,1.3,0.7,1.8-0.399c0.2-0.5,0.5-1,0.8-1.3c7.601-5.9,15.2-11.7,22.9-17.601c0.2-0.1,0.4-0.2,0.8-0.5c1.5,2,2.9,4,4.601,6.2
		C55.8,1059.4,54.7,1060,53.6,1060.7z"/>
</g>
<g>
	<path fill="#008A2D" d="M55.8,137.6c-0.1,0-0.3,0-0.399,0c-5.5,0.5-10.9,1-16.4,1.4c-5.5,0.3-11,0.4-16.6,0.6
		c-1.601,0.1-3.2,0.4-4.9,0.6c2.5-3.5,5.7-5.9,9.2-8c-0.1-0.2-0.1-0.3-0.2-0.5c-0.5,0-1.1-0.1-1.6,0.1c-0.9,0.4-1.9,0.8-2.7,1.5
		c-2.5,2.2-4.9,4.4-7.3,6.7c-1.8,1.7-1.601,2.4,0.8,3.3c0.1,0,0.3,0.1,0.4,0.1c2.899,0.8,5.8,1.7,8.699,2.5
		c1.7,0.4,3.4,0.6,5.101,0.9c0.6,0.1,1.1-0.1,1.2-0.8c0.1-0.7-0.5-0.9-1.101-1c-0.1,0-0.3,0-0.399,0
		c-3.801-0.4-7.301-1.6-10.801-2.9c0-0.1,0-0.3,0-0.4c2.7-0.1,5.4-0.2,8-0.2c1.9,0,3.801,0.2,5.7,0.1c4.101-0.3,8.3-0.7,12.4-1.1
		c3.6-0.4,7.2-0.8,10.8-1.2c0.6-0.1,1.3-0.1,1.2-0.9C57.1,137.5,56.4,137.5,55.8,137.6z"/>
</g>
<g>
	<path fill="#008A2D" d="M46,852.7c0.4,0,0.9,0.1,1.3,0.1c0.801,0,1.601-0.2,2.4-0.2c3-0.199,5.9-0.399,8.9-0.6
		c0.399,0,0.8,0,0.8-0.5s-0.5-0.4-0.8-0.4c-1,0.101-2,0.2-3.101,0.301c-0.1-0.7-0.1-1.301-0.2-2C55,846.6,54.6,843.8,54.5,841
		c-0.2-5.3-0.3-10.6-0.399-15.9c0-0.8-0.2-1-1-0.899C51,824.5,49,824.8,46.9,825.1c-1.2,0.2-1.3,0.301-0.8,1.301v0.1
		c0.1,1.4,0.3,2.8,0.199,4.2c0,0.7,0,1.3,0,2c0.2,2.2,0,4.3,0,6.5c0,2.1-0.199,4.2-0.199,6.3c0.1,1.8,0.3,3.6,0.6,5.4
		c0.1,0.6,0,0.899-0.7,0.8c-0.7,0-1.399,0.1-2.1,0.1c-0.5,0-0.601-0.1-0.7-0.6c-0.2-3.3-0.5-6.601-0.6-9.9
		c-0.101-2.6-0.2-5.2-0.301-7.8c0-0.5-0.3-0.7-0.699-0.7c-2.101,0.2-4.2,0.4-6.301,0.7c-0.8,0.1-1.5,0.2-2.3,0.3
		c-0.2,0-0.5,0.2-0.5,0.4c0,0.1,0.2,0.399,0.3,0.6c0.101,0.2,0.301,0.3,0.301,0.5c0.1,1.4,0.199,2.8,0.199,4.2
		c0.101,4.2,0.101,8.4,0.101,12.6c0,0.101,0,0.3-0.101,0.4c-1,0-2,0-3,0c-1.1,0-1.199-0.1-1.3-1.2c-0.3-4.3-0.6-8.6-0.1-12.9
		c0.1-0.8-0.101-1-0.9-0.899c-1.6,0.1-3.2,0.3-4.7,0.5c-0.6,0.1-1.3,0.5-1.899-0.2c0,0-0.2,0-0.3,0c-0.5,0.3-1.2,0.5-0.601,1.3
		C20.6,839.2,20.6,839.5,20.6,839.7c0,1.399-0.101,2.699,0,4.199c0.199,2.9,0.1,5.801,0.199,8.7c0,0.4-0.1,0.5-0.5,0.601
		c-2.3,0.1-4.6,0.3-6.8,0.399c-0.1-1.2-0.1-2.399-0.5-3.5c-0.3-1.1-0.3-2.2-0.2-3.3c0.101-0.7,0.2-1.3,0.2-2
		c0.101-6.3,0.2-12.7,0.3-19c0-1.7-0.1-3.3-0.1-5c0-0.2-0.3-0.5-0.5-0.7c-0.2,0.2-0.4,0.5-0.5,0.7s0,0.5,0,0.7
		c0,1.3,0.1,2.5,0.1,3.8c-0.1,7.1-0.3,14.3-0.5,21.4c-0.1,2-0.3,3.899,0.2,5.899c0.101,0.4,0,0.8,0,1.3c0,0,0.2,0.101,0.5,0.101
		c0.7,0.1,1.5,0.2,2.2,0.1c5.6-0.2,11.3-0.399,16.9-0.6C36.3,853.2,41.2,853,46,852.7z M53,825.3c0.3,8.601,0.2,17.4,1.5,26.2
		c-2.399,0.1-4.5,0.2-6.8,0.3c-0.2-1.2-0.4-2.399-0.5-3.5c0-0.3,0.3-0.8,0.6-1c0.601-0.5,1.301-0.8,1.9-1.2
		c0.2-0.1,0.2-0.399,0.3-0.6c-0.2-0.1-0.6-0.3-0.7-0.2c-0.699,0.4-1.5,0.8-2.3,1.3c0-0.899-0.1-1.8-0.1-2.8
		c0-0.2,0.3-0.399,0.399-0.5c0.7-0.5,1.4-0.899,2-1.399c0.2-0.101,0.2-0.4,0.301-0.7c-0.2,0-0.5,0-0.7,0.1c-0.7,0.5-1.3,1-2.101,1.4
		C46.9,841.8,47,841,47.1,840.1c0-0.199,0.3-0.399,0.5-0.6c0.699-0.5,1.3-1,2-1.5c0.1-0.1,0.199-0.4,0.199-0.6
		c-0.199,0-0.5-0.101-0.699,0c-0.4,0.199-0.7,0.5-1.101,0.8c-0.3,0.2-0.6,0.5-0.899,0.8c0-1,0-1.8,0-2.6c0-0.2,0.3-0.5,0.5-0.7
		c0.699-0.601,1.5-1.2,2.199-1.9c0.2-0.2,0.2-0.5,0.301-0.8c-0.301,0-0.7,0-0.9,0.1c-0.7,0.5-1.3,1-2.2,1.7c0.101-1.2,0-2.3,0.2-3.2
		c0.1-0.399,0.8-0.8,1.2-1.1c0.2-0.2,0.5-0.3,0.6-0.5c0.101-0.2,0.2-0.5,0.3-0.7c-0.3,0-0.699-0.2-0.899-0.1c-0.4,0.2-0.8,0.6-1.3,1
		c-0.2-1.601-0.4-3-0.601-4.3C48.9,825.8,50.9,825.5,53,825.3z M34.1,834.9c0-0.101,0.399-0.301,0.6-0.301c2.1-0.3,4.2-0.5,6.4-0.8
		C41.4,839.9,41.7,845.9,42,851.9c-2.6,0.199-5.1,0.399-7.7,0.6c0-0.7,0-1.4,0-2.1c0-0.2,0.301-0.5,0.5-0.601
		c1.101-0.6,2.2-1.2,3.2-1.8c0.2-0.1,0.2-0.4,0.3-0.7c-0.3,0-0.5-0.1-0.8-0.1c-0.1,0-0.3,0.2-0.399,0.2c-0.801,0.5-1.7,1-2.5,1.5
		c-0.101,0.1-0.301,0.1-0.5,0.3c0-0.8,0-1.4,0-2.101c0-0.199,0.3-0.5,0.5-0.6c0.899-0.6,1.8-1.1,2.699-1.7
		c0.2-0.1,0.2-0.399,0.301-0.6c-0.301,0-0.601-0.1-0.7,0.1c-0.9,0.601-1.8,1.2-2.8,1.9c0-0.8,0-1.5,0-2.2c0-0.2,0.3-0.4,0.5-0.6
		C35.5,842.8,36.5,842.3,37.5,841.8c0.2-0.1,0.3-0.199,0.5-0.399c-0.5-0.5-1-0.2-1.399,0C35.8,841.8,35,842.3,34.2,842.8
		c0-0.699,0-1.199,0-1.8c0-0.2,0.2-0.5,0.4-0.6c0.899-0.601,1.899-1.2,2.899-1.7c0.2-0.1,0.2-0.3,0.4-0.5
		c-0.2-0.1-0.4-0.3-0.601-0.2c-0.5,0.2-1.1,0.4-1.5,0.7c-0.5,0.3-0.899,0.8-1.5,1.3c-0.1-0.899-0.199-1.6-0.199-2.3
		c0-0.2,0.3-0.4,0.5-0.5c0.899-0.5,1.8-0.8,2.6-1.3c0.2-0.101,0.3-0.4,0.4-0.601c-0.301,0-0.601-0.1-0.801,0
		c-0.899,0.5-1.8,1-2.899,1.601C34,836,34,835.4,34.1,834.9z M21.5,853c0-1.1,0-2.1,0-3.2c0-0.2,0.3-0.5,0.5-0.6
		c0.7-0.4,1.4-0.7,2.101-1.2c0.199-0.1,0.199-0.4,0.3-0.6c-0.2,0-0.5-0.101-0.7,0c-0.7,0.399-1.4,0.8-2.3,1.3c0-1.2,0-2.4,0-3.5
		c0-0.2,0.3-0.4,0.5-0.5c0.7-0.4,1.5-0.8,2.2-1.3c0.199-0.101,0.199-0.4,0.3-0.5c-0.2,0-0.5-0.2-0.601-0.101
		c-0.399,0.2-0.8,0.4-1.3,0.7c-0.3,0.2-0.7,0.4-1.1,0.7c0-0.4-0.101-0.8-0.101-1.101c-0.1-0.5,0.101-0.699,0.5-0.899
		c0.801-0.4,1.601-0.8,2.4-1.2c0.2-0.1,0.3-0.5,0.4-0.7c-0.301-0.1-0.601-0.2-0.801-0.1C22.9,840.6,22.1,841,21.1,841.4
		c0-0.7,0.1-1.4,0.1-2c0-0.101,0.2-0.4,0.4-0.4c2-0.3,3.899-0.5,6-0.8C27.5,843,27.4,847.7,28,852.5C26,852.7,23.8,852.9,21.5,853z"
		/>
	<path fill="#008A2D" d="M39.9,819.5c0.8,0.5,1.7,1,2.5,1.4c-0.5,0.3-0.9,0.5-1.4,0.8c-0.3,0.2-0.6,0.6-0.899,0.8
		c-2.101,1-4.301,2-6.4,2.9C29,827.6,24.2,829.8,19.5,832c-0.6,0.3-1.2,0.6-1.8,1c-0.4,0.3-0.8,0.6-0.7,1.2
		c9.101-4.3,18.2-8.5,27.3-12.7c0,0.1,0.101,0.1,0.101,0.2c-0.101,0.1-0.101,0.2-0.2,0.3c-1,1.1-2.1,2.3-3.1,3.4
		c-0.2,0.199-0.4,0.399-0.4,0.6s0.1,0.5,0.2,0.7c0.2-0.101,0.5-0.101,0.7-0.3C43,824.9,44.5,823.3,45.9,821.8
		c0.2-0.2,0.399-0.399,0.5-0.7c0.2-0.399,0.1-0.699-0.3-0.899c-0.2-0.101-0.5-0.2-0.801-0.2c-1.699,0.1-3.3-0.4-4.8-1.2
		c-0.2-0.1-0.5-0.3-0.8-0.3c-0.1,0-0.3,0.1-0.5,0.2c0.1,0.1,0.1,0.3,0.2,0.399C39.5,819.4,39.7,819.4,39.9,819.5z"/>
</g>
<g>
	<path fill="#008A2D" d="M17.2,707.7c-0.1,1.2-0.3,2.3-0.5,3.5c-0.2,1.6-0.7,3.3-0.6,4.899c0.199,4.2,0.6,8.4,0.8,12.601
		c0.1,2.399,0.1,4.899,0,7.3c-0.101,1.5,0,2,1.6,1.8c3.8-0.3,7.601-0.6,11.4-0.899c3.8-0.301,7.7-0.801,11.5-1.101
		c2.8-0.2,5.5-0.399,8.3-0.3c1.6,0.1,3.1-0.1,4.6-0.6C54.6,734.8,54.7,734.3,54.9,734c-0.3-0.2-0.601-0.6-1-0.6
		c-0.601,0-1.3,0.199-1.9,0.399c-0.899,0.2-1.8,0.601-2.7-0.3c-0.199-0.2-0.699-0.1-1-0.1c-7.699,0.8-15.3,1.699-23,2.5
		c-2.199,0.199-4.5,0.399-6.8,0.5c0-0.4,0-0.7,0-0.9c-0.2-6.5-0.399-13-0.7-19.6c0-1-0.5-2.101,0.7-2.9c0.101-0.1,0.2-0.4,0.2-0.7
		c0.2-2.8,0.4-5.6,0.6-8.399c0-0.4-0.3-0.801-0.5-1.301c-0.199,0-0.399,0-0.6,0c-0.2,0.5-0.5,0.9-0.6,1.4
		C17.3,705.2,17.3,706.5,17.2,707.7z"/>
	<path fill="#008A2D" d="M52.8,710.5c-1.6-0.1-3.3,0-4.899,0c-0.2,0-0.4,0.4-0.5,0.5c0.2,0.2,0.399,0.4,0.6,0.5
		c0.3,0.1,0.7,0.2,1.101,0.3C49,712,49,712.1,48.9,712.2c-1.8,2.1-3.5,4.1-5.3,6.1c-0.5,0.601-1.101,0.601-1.7,0.2
		c-0.8-0.6-1.601-1.2-2.4-1.8c-1-0.8-1.8-0.601-2.2,0.6c-0.3,0.9-0.5,1.7-0.699,2.601c-0.4,1.699-1.101,3.199-2.2,4.699
		C33.3,723.9,32.3,723.2,31.3,722.4c-0.5-0.4-1-0.5-1.5,0c-2.399,2.399-4.899,4.899-7.3,7.3c-0.399,0.399-0.7,0.899-1,1.5
		c-0.1,0.2-0.1,0.6-0.1,0.899c0.3-0.1,0.7-0.1,0.899-0.199c1.101-1,2.2-2,3.301-3c1.6-1.601,3.1-3.2,4.699-4.801
		c1.301,0.801,2.301,1.4,3.4,2.101c0.8,0.5,1.5,0.399,1.9-0.5c0.8-1.7,1.699-3.5,2.5-5.2c0.3-0.7,0.399-1.4,0.6-2.2
		c1,0.601,1.9,1.2,2.8,1.7c1.3,0.7,2,0.5,3-0.6c1.9-2.4,3.9-4.7,5.9-7c0.2-0.2,0.399-0.301,0.899-0.7c-0.5,1.3-1,2.3-1.3,3.3
		c-0.1,0.2,0.2,0.6,0.3,0.9C50.6,715.8,51,715.8,51.1,715.6c0.8-1.3,1.6-2.699,2.3-4.1C53.3,711.2,53,710.5,52.8,710.5z"/>
</g>
<g>
	<path fill="#008A2D" d="M33.7,2690.9C33.7,2691,33.8,2691,33.7,2690.9L33.7,2690.9C33.8,2691,33.7,2691,33.7,2690.9z"/>
	<path fill="#008A2D" d="M33.8,2691L33.8,2691L33.8,2691z"/>
	<path fill="#008A2D" d="M34.2,2691.3c-0.1-0.1-0.3-0.1-0.4-0.2l0,0C33.9,2691.1,34.1,2691.2,34.2,2691.3z"/>
	<path fill="#008A2D" d="M34.2,2694.4c-0.1-0.7-0.2-1.301-0.2-2C34,2693,34.1,2693.7,34.2,2694.4z"/>
	<path fill="#008A2D" d="M33.8,2691L33.8,2691c-0.699,0.6-0.6,1.1-0.5,1.7C33.2,2692.1,33.1,2691.6,33.8,2691z"/>
	<path fill="#008A2D" d="M19,2715.4c0,0.5,0.2,1.1,0.3,1.699c0.2-0.199,0.2-0.3,0.2-0.3c0-0.3,0-0.5,0-0.8
		c0.101-2.9,0.101-5.9,0.3-8.801c0.2-3.199,1.101-6.1,4.4-7.6c0.2-0.1,0.3-0.2,0.5-0.3c1.1-0.601,2.2-1.3,3.3-1.8
		c1.4-0.601,2.7-1.4,3.9-2.301c0.5-0.399,0.8-0.899,1.2-1.399c0.1-0.101,0.1-0.4,0.1-0.601c-0.1,0-0.1-0.1-0.2-0.1
		c-0.2,0.199-0.399,0.3-0.6,0.5c-1.101,1-2.3,1.899-3.601,2.6c-2.3,1.2-4.5,2.4-6.8,3.601c-0.399,0.2-0.8,0.6-1.1,0.899
		c-1,1.801-1.9,3.601-2.101,5.7c-0.1,1.101-0.199,2.3-0.399,3.399c0,0.301,0,0.7,0,1c0,0.2,0.1,0.4,0.1,0.601
		C18.8,2712.7,18.9,2714.1,19,2715.4z"/>
	<polygon fill="#008A2D" points="33.8,2691 33.8,2691 33.8,2691 	"/>
	<path fill="#008A2D" d="M33.8,2691L33.8,2691c0.101,0.1,0.301,0.2,0.4,0.2c0.5,0.2,0.9,0.399,1.4,0.6
		c0.699,0.3,1.399,0.3,2.1,0.101c0.4-0.101,0.9-0.2,1.3-0.4c0,0.601,0.2,1.2,0.101,1.7c-0.4,1.101-1.101,2-1.601,3
		c-0.6-0.399-1.1-0.8-1.7-1.101c-0.6-0.3-1.199-0.6-1.699-0.8c-0.101-0.7-0.2-1.3-0.2-2C33.9,2691.9,33.8,2691.5,33.8,2691
		L33.8,2691c-0.699,0.6-0.6,1.1-0.5,1.7c0.101,0.5,0.2,1,0.101,1.5c-0.101,0.5,0,0.7,0.399,1c0.7,0.399,1.301,0.7,1.9,1.1
		c0.3,0.2,0.7,0.4,0.9,0.7c0.1,0.2-0.101,0.6-0.2,0.9c-0.7,4-1.3,8-2,12c0,0.3,0,0.699,0.2,0.899c0.699,1.2,1.5,2.399,2.3,3.5
		c0.2,0.3,0.5,0.7,0.899,0.899c0.601,0.301,0.9,0.2,1.2-0.399c0.8-1.3,1.5-2.601,2.3-3.8c0.101-0.101,0.101-0.2,0.2-0.301
		c0.3-0.1,0.601,0,0.601-0.399c0-0.3-0.101-0.601-0.2-0.8c-0.3-0.7-0.601-1.301-0.8-2c-0.4-1.2-0.601-2.5-1-3.601
		c-0.7-2.1-1.601-4.1-2.301-6c0.5-0.899,1-1.8,1.5-2.8c0.601,0.6,1,1.3,1.5,1.7c1,0.6,2.101,1.1,3.2,1.6c1,0.4,2.101,0.7,3,1.3
		c1.7,1,3.101,2.301,3.5,4.301c0.2,1.1,0.2,2.3,0.3,3.399c0.301,3.101,0.5,6.2,0.7,9.3c0,0.601,0.101,1.2,0.2,1.801
		c0.1,0,0.1,0,0.2,0c0.1-0.601,0.2-1.301,0.2-2c0-1.9-0.101-3.9-0.101-5.801c-0.1-1.8-0.1-3.6-0.3-5.399
		c-0.2-1.601-0.7-3.101-1.8-4.3c-1.601-1.7-3.5-2.7-5.7-3.4c-0.6-0.199-1.3-0.399-1.9-0.8c-1.1-0.601-2-1.5-2.199-2.899
		c-0.101-0.601-0.2-1.101-0.4-1.7c-0.2-0.8,0-1.4,0.8-1.8c0.3-0.2,0.601-0.4,0.8-0.7c0.601-0.9,1.101-1.9,2.101-2.601
		c0.3-0.199,0.399-0.6,0.5-0.899c0.3-0.8,0.1-1.5-0.3-2.3c0.199-0.101,0.3-0.2,0.399-0.301c1.4-0.899,1.601-1.5,1.101-3.1
		c-0.2-0.601-0.101-1.2-0.2-1.801c-0.101-0.399-0.101-0.8-0.3-1.199c-0.801-1.101-1.601-2.101-2.4-3.101c-0.3-0.399-0.8-0.6-1.3-0.7
		c-1.4-0.399-2.9-0.699-4.3-1.1c-0.601-0.2-1.2-0.3-1.9-0.1c-1,0.399-2.1,0.8-3.1,1.199c-1.101,0.4-1.7,1.2-2,2.4
		c-0.301,1.3-0.7,2.6-1.101,3.899c-0.2,0.8-0.2,1.601,0.101,2.4c0.5,0.899,0.6,1.7,0.399,2.6c-0.1,0.8,0.2,1.5,0.9,2.101
		c0.399,0.3,0.8,0.699,1.1,1.1C32.1,2689.1,32.9,2690,33.8,2691C33.7,2691,33.8,2691,33.8,2691L33.8,2691z M36.6,2708.8
		c-0.301,0.601-0.601,1.101-0.9,1.7C35.3,2709.9,35.4,2709.6,36.6,2708.8z M37.7,2713.6c-0.4-0.8-0.8-1.399-1.1-2.1
		c0-0.1,0-0.3,0-0.4c0.3-0.399,0.699-0.8,1-1.1c0,0,0.1,0,0.1,0.1c-0.1,0.301-0.2,0.601-0.4,1C37,2711.9,37.1,2712,37.9,2712.2
		c0.1,0,0.2,0.101,0.3,0.101C38,2712.7,37.9,2713.1,37.7,2713.6z M40.5,2708c0.101,0.5,0.3,0.9,0.5,1.3c0.101,0.3,0.2,0.5,0,0.8
		c-0.7,0.9-1.3,1.801-2,2.7c0.3-0.7,0.601-1.399,0.9-2.1c0.1-0.2,0.2-0.4,0.3-0.7s0.4-0.7-0.1-0.9c-0.4-0.199-0.601,0.2-0.801,0.4
		c-0.199,0.3-0.399,0.6-0.8,0.8c0.3-0.899,0.7-1.899,1-2.8c0.101-0.3,0.101-0.7,0.101-1c-0.301,0.2-0.601,0.3-0.9,0.5
		s-0.5,0.6-0.8,0.9c0.2-1.2,1.1-2.101,0.899-3.4c-1.1,0.7-1.399,1.8-2.199,2.5c0.1-0.1,0.1-0.3,0.199-0.5c0.4-1.1,0.801-2.2,1.2-3.3
		c0.101-0.2,0-0.5,0-0.7c-0.1,0-0.2-0.1-0.3-0.1c-0.5,0.8-0.9,1.6-1.4,2.399h-0.1c0.4-1.3,0.8-2.5,1.2-3.8c-0.101,0-0.2,0-0.2,0
		c-0.1-0.2-0.3-0.4-0.3-0.7c0-0.5,0-1.101,0.1-1.7c0.2,0.301,0.5,0.601,0.601,1C38.8,2702.4,40.1,2705,40.5,2708z M30.2,2680.4
		c0.8,0.8,0.2,1.699,0.2,2.699c-0.601-0.8-1-1.6-0.8-2.5c0.399-1.399,0.8-2.899,1.1-4.3c0.2-0.899,0.8-1.399,1.6-1.7
		c0.9-0.3,1.9-0.699,2.801-1c0.3-0.1,0.699-0.1,0.899,0c1.4,0.7,3,0.9,4.5,1.2c0.5,0.101,0.9,0.3,1.2,0.7
		c0.6,0.899,1.3,1.699,1.9,2.5c0.3,0.399,0.399,0.899,0.5,1.3c0.1,0.7,0.199,1.3,0.399,2c0.101,0.5,0.101,0.899-0.3,1.3
		c-0.3,0.301-0.6,0.5-1,0.801c-0.1-0.601-0.2-1.101,0.1-1.601c0-0.101,0.101-0.2,0.101-0.2c0-0.399-0.9-2-1.3-2.199
		c-0.301-0.101-0.5-0.2-0.801-0.301c-0.699-0.1-1.3-0.3-1.5-1.199c0-0.101-0.1-0.2-0.3-0.4c-0.6,1.2-1.7,1.8-2.7,2.3
		c-0.6,0.3-1.199,0.4-1.899-0.1c-0.3-0.2-0.8-0.2-1.2-0.2s-0.9,0.2-1.4,0.3c0-0.1-0.1-0.3-0.1-0.5c-0.3,0.101-0.5,0.2-0.8,0.3
		c-0.4,0.101-0.7,0.301-1.101,0.4C30.1,2679.9,30,2680.2,30.2,2680.4z M31.2,2685c0-1.3,0.2-2.6,0.4-3.8c0-0.2,0.3-0.3,0.5-0.4
		c0.399-0.2,0.899-0.2,1.3-0.399c0.5-0.2,1-0.2,1.5,0.199c0.399,0.301,1,0.301,1.5,0.2c0.899-0.3,1.8-0.8,2.7-1.2
		c0.3-0.1,0.6,0,0.899,0c0.101,0,0.2,0.101,0.3,0.101c1.2,0.101,1.4,1,1.601,1.899c0.2,0.7,0.2,1.5,0.3,2.101
		c-0.1,1.8-0.5,3.399-1.2,4.899c-1.2,2.301-5,3.9-7.399,1.101C32.4,2688.3,31.3,2686.9,31.2,2685z"/>
	<path fill="#008A2D" d="M33.8,2691c0.101,0.5,0.101,0.9,0.2,1.3C33.9,2691.9,33.8,2691.5,33.8,2691L33.8,2691z"/>
	<polygon fill="#008A2D" points="33.792,2691.131 33.792,2691.131 33.792,2691.131 	"/>
	<path fill="#008A2D" d="M33.8,2691L33.8,2691L33.8,2691z"/>
	<path fill="#008A2D" d="M24.7,2709.6c-0.1-1.899-0.1-3.899-0.2-5.8c0-0.2-0.1-0.399-0.2-0.7c-1.199,1.2-0.899,5.801,0.4,7.5
		C24.7,2710.1,24.7,2709.9,24.7,2709.6z"/>
	<path fill="#008A2D" d="M46.7,2710.3c0.3-0.7,0.1-7.399-0.3-7.8C45.9,2703,46.1,2708.9,46.7,2710.3z"/>
</g>
<g>
	<path fill="#008A2D" d="M53.9,1398.9c-0.5,0.399-0.9,0.899-1.4,1c-5.2,1.699-10.5,3.399-15.7,4.899c-5.899,1.7-11.8,3.3-17.699,4.9
		c-1.2,0.3-2.301,0.6-3.5,0.899c-0.301-1.1-0.801-0.6-1.301-0.3c-0.5,0.4-1,0.9-1.699,0.2c-0.101,0.5-0.2,0.8-0.2,1.2
		c-0.101,1.8-0.3,3.5-0.4,5.3c0,0.2-0.1,0.5-0.2,0.5c-0.699,0.4-0.5,0.9-0.3,1.6c0.3,1.101,0.5,2.2-0.2,3.301
		c-0.199,0.199,0,0.8,0.101,1.1c0.399,0.8,0.8,1.5,1.2,2.3c1.1,2.4,2.1,4.9,3.199,7.3c0.301,0.7,0.7,1.4,1.301,1.9
		c0.399,0.3,1,0.5,1.5,0.5c0.8,0,1.5-0.1,2.3-0.3c0.7-0.101,1.5-0.3,2.2-0.5c0.6-0.2,1.199-0.4,1.699-0.5c1.801-0.4,3.7-0.601,5.5-1
		c1.5-0.3,2.801-1.101,4.301-1.3c0.899-0.101,1.699,0.1,2.5-0.801c0.6-0.699,1.899-0.8,2.899-1.199c0.3-0.101,0.5-0.2,0.8-0.301
		c0,0.101,0,0.2-0.1,0.301c0.4,0.199,0.9,0.6,1.3,0.6c0.9-0.1,0.3-0.9,0.5-1.5c1.2-0.4,2.3-0.9,3.5-1.3c4.101-1.5,8.101-3,12.2-4.5
		c0.8-0.3,1.4-0.7,1.3-1.7c0-0.5,0.2-1,0.4-1.4c0.2-0.5,0.2-0.699-0.3-1c-0.2-0.1-0.301-0.399-0.4-0.6c-0.1-0.6-0.1-1.1-0.2-1.9
		c0.601-0.5,0.601-0.5,0.3-1.6c-0.199-0.6-0.399-1.2-0.699-1.7c-0.601-1.399-1.301-2.7-1.7-4.1c-1-3.101-1.8-6.3-2.7-9.4
		C54.2,1399.6,54,1399.2,53.9,1398.9z M13.8,1411.8c0.9,0.4,1.801,0.3,2.601,0c3.899-1.3,7.8-2.5,11.6-3.8
		c0.3-0.1,0.7-0.2,1.101-0.3c0.399,1.1,0.8,2.1,1.199,3.2c-0.3,0.199-0.5,0.399-0.8,0.5c-2.5,1.399-2.899,3.8-1.899,6.5
		c0.3,0.699,0.8,1.3,1.199,1.899c0.5,0.7,0.5,2.2-0.199,2.9c0-0.5-0.101-1.101-0.101-1.8c-0.399,0.3-0.8,0.5-1.1,0.699l0,0
		c-1.2-1.3-2.101-1.199-2.9,0.5c-0.2,0.4-0.3,0.9-0.399,1.4c-0.5-1.1-1-2.1-1.5-3.1c-0.101,0-0.2,0-0.301,0
		c-0.1,0.199-0.3,0.399-0.3,0.6c-0.1,1.3,0.3,2.6,1.101,3.6c0.399,0.5,0.699,0.5,1.5-0.1c1.6,0.9,1.699,0.8,2.899-1
		c1.7,1.3,2.5,0.7,3.101-2.3c2.1,0.899,2.1,0.899,3.5,0.6c0.199,0.5,0.3,0.9,0.6,1.5c-3.5,1.1-6.9,2.2-10.4,3.3
		c-0.5,0.2-1,0.301-1.5,0.5C22,1427.4,21.4,1427.2,21.1,1426.4c-0.5-1.301-1-2.601-1.601-3.801c-0.8-1.6-1.7-3.199-2.6-4.8
		c-0.3-0.5-0.7-1-0.9-1.5c-0.6-1.4-1.3-2.6-2.5-3.6c-0.3-0.2-0.5-0.5-0.899-1C13.3,1411.8,13.6,1411.7,13.8,1411.8z M32,1418.7
		c-1.3-1.101-1.6-3.101-0.6-4.9c0.8,2.3,1.5,4.601,2.3,6.9c-0.6-0.101-1.1-0.101-1.6-0.2C33,1419.6,33,1419.6,32,1418.7z M30.5,1414
		c-1.1,1.1-1,2.5-0.6,3.9c0.1,0.399,0.3,0.699,0.399,1.1c-1.199-0.6-1.699-1.8-1.699-3.5s0.399-3,2.199-3.6
		C31.2,1412.6,31.2,1413.2,30.5,1414z M26,1423.7c-0.8-0.4-0.899-0.7-0.399-1.7C26.5,1422.4,26.4,1423,26,1423.7z M20.9,1430.8
		c1.1-0.3,2.2-0.399,3.1-0.8c3.2-1.4,6.601-2.3,10.101-2.9c0.199,0,0.3,0,0.5,0c0.1,0.101,0.1,0.2,0.199,0.2
		c-0.3,0.2-0.5,0.5-0.8,0.601c-2.7,0.8-5.399,1.6-8.1,2.399c-1.7,0.5-3.5,1-5.3,1.601c0-0.4,0.1-0.9,0.1-1.301
		C20.8,1430.6,20.9,1430.7,20.9,1430.8z M20.9,1430c0.1-0.6,0.1-1,0.2-1.4c2.3,0.5,4.199-1,6.399-1.199
		C25.3,1428.3,23.2,1429.1,20.9,1430z M34.5,1425.6c-1.7,0.4-3.399,0.801-5.1,1.2c0-0.1,0-0.1,0-0.2c1.8-0.6,3.6-1.1,5.399-1.699
		c0,0,0.101,0.1,0.101,0.199C34.8,1425.2,34.7,1425.5,34.5,1425.6z M19.6,1426.2c-1.601-1.8-3.2-3.4-3.9-5.601
		c-0.5-1.399-1.4-2.6-2-3.899c-0.3-0.7-0.5-1.601-0.8-2.601C14.2,1414.7,19.1,1423.7,19.6,1426.2z M19.9,1430.4
		c-0.2,1.1-0.5,2.199-0.8,3.3c-0.301,0.899-0.801,1-1.4,0.3c-0.6-0.8-1.2-1.8-1.6-2.7c-1.101-2.6-2.2-5.199-3.301-7.899
		c-0.1-0.301-0.1-0.601-0.1-0.9c0.1,0,0.2,0,0.3-0.1c0.601,1.5,1.101,3,1.8,4.399c0.801,1.801,1.7,3.5,2.601,5.2
		c0.2,0.5,0.6,0.9,1.2,0.5c0.6-0.4,0.3-0.8,0.1-1.3c-1-2.101-2-4.101-3-6.2c-0.8-1.6-1.5-3.3-2.2-5c-0.3-0.6-0.3-1.3-0.5-2
		c0.101,0,0.3-0.1,0.4-0.1c0.399,1.1,0.8,2.199,1.2,3.399c0.5,1.601,1.3,3,2.5,4.301c0.699,0.699,1.1,1.8,1.6,2.699
		c0.3,0.5,0.7,0.9,0.9,1.4C19.9,1429.9,19.9,1430.2,19.9,1430.4z M33.7,1431.2c-3.4,1.3-6.9,1.899-10.4,2.399c-1,0.2-2,0.301-3,0.4
		c0-0.9,0.301-1.1,1-1.2c4.2-1.1,8.4-2.399,12.601-3.5c0.3-0.1,0.7-0.2,1-0.3C35.1,1430.6,35.1,1430.7,33.7,1431.2z M36.1,1426.6
		c1.5-0.699,3.1-1.1,4.699-1.699c0,0.1,0.101,0.199,0.101,0.3c-1.5,0.6-3.101,1.2-4.601,1.8C36.2,1426.9,36.2,1426.8,36.1,1426.6z
		 M36.2,1424.8c1.5-0.7,2.9-1.399,4.4-2.1c0.1,0.1,0.199,0.1,0.3,0.2c-0.2,0.3-0.3,0.699-0.5,0.699c-1.3,0.5-2.7,0.9-4,1.4
		C36.2,1425,36.2,1424.9,36.2,1424.8z M39.7,1429.1c-1.1,0.4-2.2,0.801-3.3,1.2c0-0.5-0.101-0.899,0-1.3c0.1-0.3,0.2-0.6,0.5-0.7
		c1.3-0.6,2.6-1.1,4-1.6C41.2,1428.1,40.9,1428.6,39.7,1429.1z M36.2,1423.2c-1.9-5.3-3.8-10.5-5.7-15.9
		c1.7-0.399,3.601-0.899,5.4-1.399c1.7,5.1,3.399,10,5.1,15C39.6,1421.7,38,1422.4,36.2,1423.2z M41.1,1417.3
		c-0.7-2.1-1.4-4.2-2.101-6.399c0.9,0,1.3,0.5,1.5,1.199c0.2,0.7,0.5,1.4,0.7,2.101c0.2,1,0.2,2,0.4,3.1
		C41.3,1417.2,41.2,1417.2,41.1,1417.3z M56.3,1423.1c-4.399,1.5-8.699,3.101-13,4.601c-0.3,0.1-0.6,0.2-0.899,0.3
		c-0.2-1.8-0.2-1.8,1.3-2.3c4.4-1.5,8.7-2.9,13.1-4.4c0.301-0.1,0.601-0.2,1-0.3C57.7,1422.1,57.4,1422.8,56.3,1423.1z M57.6,1419.7
		c-0.101,0.1-0.301,0.1-0.4,0.2c-4.8,1.6-9.5,3.199-14.3,4.8c-0.2,0.1-0.3,0.1-0.5,0.1c0-0.1-0.101-0.1-0.101-0.2
		c0.4-0.199,0.9-0.3,1.301-0.5c4.399-1.6,8.8-3.199,13.3-4.8c0.2-0.1,0.3-0.2,0.5-0.2c0.1,0,0.3,0.101,0.399,0.101
		C57.8,1419.4,57.7,1419.6,57.6,1419.7z M56.9,1417.9c-3.101,1.1-6.2,2.199-9.3,3.3c-1.801,0.7-3.7,1.3-5.5,2
		c-0.4-0.8,0-1.101,0.699-1.3c5-1.4,9.9-2.801,14.601-5c0.1,0,0.2,0,0.3,0C58,1417.6,57.4,1417.8,56.9,1417.9z M57.5,1414.1
		c-0.3,0.5-0.399,0.9-0.6,1.2s-0.4,0.601-0.7,0.7c-4.1,1.4-8.3,2.8-12.4,4.2c-0.399,0.1-0.699,0.199-1.1,0.3
		c-0.4-0.9-0.7-1.7-0.2-2.7c0.601-1.2,0.5-2.6,0-3.899c-0.3-0.9-0.6-1.801-0.899-2.801c-0.2-0.8-0.601-1.199-1.4-1.3
		c-1.2-0.2-1.9-0.9-2.1-2.1c-0.101-0.7-0.4-1.301-0.7-1.9c2.7-0.7,5.399-1.3,8.1-2.1c2.7-0.801,5.3-1.7,8-2.601
		C54.7,1405.6,55.5,1410.1,57.5,1414.1z"/>
	<path fill="#008A2D" d="M52.7,1410.9c-0.5,0.6,0.2,0.8,0.5,1.1c0.7,0.5,0.6,1,0.1,1.7c-0.1-0.601-0.199-1.101-0.3-1.601
		c-0.3,0.101-0.6,0.2-0.899,0.4c-0.101,0-0.101-0.1-0.101-0.1c-0.5-0.2-1-0.601-1.5-0.601c-0.7,0-0.899,0.601-0.899,1.3
		c0,0.2-0.2,0.4-0.301,0.601c-0.3,0.8,0,1.6,0.601,2.1c0.3,0.3,1,0.5,1.3,0.3c0.9-0.6,1.7-0.899,2.7-1.199c1.5-0.4,1.5-3.2,0.2-4
		C53.6,1410.5,53.1,1410.4,52.7,1410.9z M51.1,1414.8c-1-0.899-1-1.1,0-1.8C51.1,1413.6,51.1,1414.1,51.1,1414.8z"/>
	<path fill="#008A2D" d="M49.9,1403.6c-0.601-0.199-0.9-0.5-1.2-0.399c-0.5,0.1-1,0.399-1.5,0.6c-1.2,0.5-2.4,1-3.5,1.601
		c-0.2,0.1-0.3,0.5-0.5,0.699c0.3,0,0.5,0.2,0.8,0.101c1.7-0.601,3.3-1.2,4.9-1.801C49.2,1404.4,49.4,1404.1,49.9,1403.6z"/>
	<path fill="#008A2D" d="M48.2,1413.3c-0.1-0.2-0.4-0.399-0.6-0.3c-0.2,0.1-0.301,0.3-0.5,0.6c0.399,1.101,0.899,2.2,1.3,3.301
		c0.1,0.1,0.5,0.199,0.7,0.1c0.199-0.1,0.3-0.5,0.3-0.7C49.1,1415.3,48.7,1414.3,48.2,1413.3z"/>
	<path fill="#008A2D" d="M19.3,1412.8c1.801-0.6,3.601-1.2,5.301-1.8c0.199-0.1,0.399-0.7,0.3-1c-0.2-0.5-0.601-0.4-1-0.1
		c-1.5,0.8-3.101,1.5-4.601,2.199c-0.3,0.101-0.5,0.301-0.8,0.5c0,0.101,0.101,0.2,0.101,0.2C18.9,1412.8,19.1,1412.9,19.3,1412.8z"
		/>
</g>
<g>
	<path fill="#008A2D" d="M51.9,2232.4c0-0.5,0.2-1,0.1-1.5c-0.1-1.7-0.2-3.301-0.3-5c-0.1-1.101-0.1-2.2-0.1-3.301
		c0-1.399,0-2.699,0-4.1c0-2.2-0.101-4.4-0.101-6.5c0-0.801-0.1-1-0.899-1c-1.4,0.1-2.801,0.1-4.2,0.3
		c-2.101,0.2-4.101,0.399-6.2,0.601c-0.8,0.1-1.6,0.1-2.4,0.199c-0.1-1-0.199-1.899-0.3-2.699c0-0.5-0.2-0.9-0.8-0.801
		c-1.4,0.2-2.7,0.4-4.1,0.5c-0.4,0-0.7,0.2-0.801,0.601c-0.199,0.899-0.399,1.8-0.6,2.8c0,0-0.1,0-0.2,0c-3.7,0-7.3-0.5-10.899-0.2
		c-0.301,0-0.7,0-1,0.101c-0.101,0-0.2,0.199-0.2,0.3s0.1,0.2,0.2,0.2C19.8,2213,20,2213.5,20,2214.1
		c0.101,1.4,0.101,2.801,0.4,4.101c0.399,2.2,0.399,4.3,0.3,6.5c-0.2,3.101-0.3,6.2-0.4,9.3c0,0.9,0.2,1.101,1.101,1.101
		c0.2,0,0.399,0,0.6,0c2.2,0,4.3,0,6.5,0c-0.2,0.7-0.3,1.3-0.399,1.899c-0.601,2.101-1.301,4.2-1.9,6.4
		c-0.7,2.399-1.4,4.699-2.1,7.1c-0.101,0.5-0.101,1.101-0.7,1.301c0,0-0.101,0.3,0,0.399c0.2,0.101,0.5,0.3,0.7,0.3
		c1.199-0.1,2.399-0.199,3.6-0.399c0.3,0,0.6-0.3,0.7-0.601c0.6-1.8,1.3-3.699,1.7-5.6c0.699-3.5,1.8-6.9,3.199-10.2
		c0.2-0.601,0.5-0.8,1.101-0.8c1.6,0,3.3,0,4.899-0.101c1.2,0,1.2,0,1.601,1.101c1.2,3.899,2.2,7.8,3.899,11.5
		c0.4,0.899,0.7,1.899,1,2.8c0.101,0.2-0.1,0.5-0.199,0.8c-0.101,0.2-0.2,0.301-0.301,0.4c0.2,0.1,0.4,0.199,0.601,0.199
		c0.8,0,1.5-0.1,2.3-0.199c0.7,0,1.3-0.101,2-0.101c0.3,0,0.5,0,0.8-0.1c0-0.3,0-0.601-0.1-0.8c-0.4-1-0.9-2-1.2-3
		c-0.5-1.4-0.8-2.801-1.3-4.2c-0.9-2.9-1.7-5.9-3.3-8.5c0-0.101,0-0.2,0-0.3c0.3,0,0.6,0,0.899,0c1.9-0.2,3.9-0.301,5.8-0.601
		c0.601-0.101,0.7-0.3,0.5-0.899C51.8,2232.9,51.9,2232.6,51.9,2232.4z M32.3,2210.5c1.301-0.3,2.7-0.6,4.101-0.8
		c0.1,0.899,0.2,1.7,0.3,2.6c-1.4,0.101-2.7,0.3-4,0.4c-0.1,0-0.4-0.3-0.4-0.4C32.3,2211.6,32.3,2211.1,32.3,2210.5z M31.5,2238.5
		c-1.3,4-2.6,7.9-3.8,11.9c-0.2,0.5-0.4,0.8-1,0.8s-1.1,0-1.8,0c1.3-4.601,2.6-9.2,4-13.9c0.2,0,0.5,0,0.7,0
		c-0.2,0.3-0.301,0.601-0.5,0.9c0.1,0.1,0.1,0.1,0.199,0.2c0.9-0.5,1.801-1.101,2.601-1.601l0.1,0.101
		C31.9,2237.4,31.7,2237.9,31.5,2238.5z M31.7,2236.2c0.1-0.3,0.1-0.601,0.2-0.9c0.2,0,0.399,0,0.7,0
		C32.4,2235.6,32.5,2236.4,31.7,2236.2z M44.9,2237.4c1.3,3.899,2.6,7.699,3.899,11.6c0.2,0.5,0.301,1,0.5,1.6
		c-0.699,0.101-1.399,0.101-2.1,0.2c-0.1,0-0.4-0.1-0.4-0.3c-1.5-4.2-3-8.4-4.5-12.7l0,0c0-0.1,0-0.1,0-0.1s0,0,0,0.1
		c0.5-0.3,0.9-0.5,1.301-0.8c0.399-0.2,0.399-0.6,0.1-0.9c-0.1-0.1,0-0.3,0-0.5c0.1,0,0.2,0,0.2,0
		C44.3,2236.1,44.7,2236.7,44.9,2237.4z M50.4,2233.2c-2,0.2-3.9,0.3-5.9,0.5c-0.899-0.9-1.6,0.5-2.5,0.3
		c-0.6-0.1-1.399,0.2-1.8-0.4c-0.4,0.101-0.7,0.301-1,0.301c-5.7,0.199-11.4,0.3-17.1,0.399c-0.2,0-0.5,0-0.801,0
		c0-1.2,0-2.399,0-3.6c0.101-2.8,0.4-5.601,0.4-8.4c0-1.5-0.3-3-0.5-4.6c-0.1-1.3-0.3-2.7-0.5-4.101c0.3,0,0.5,0,0.7,0
		c2.1,0,4.1-0.1,6.2-0.1c0.3,0,0.6,0.199,0.899,0.199c0.2,0.101,0.4,0.101,0.601,0.101c0.8,0.101,1.6-0.3,2.399,0.3
		c0.101,0.101,0.3-0.1,0.5-0.1c0.5-0.2,0.9-0.601,1.4-0.601c5.399-0.3,10.7-1.6,16.2-1.5c0.199,0,0.399,0,0.6,0
		c0.1,1.5,0.2,3,0.2,4.5c0,2.101,0,4.2,0.1,6.3c0.101,2,0.3,4,0.4,6.101c0.1,1.101,0.1,2.2,0.1,3.399
		C51.1,2232.9,50.9,2233.2,50.4,2233.2z"/>
	<path fill="#008A2D" d="M47.3,2214.8c-0.199,0-0.3,0-0.5,0.101c-2.3,0.3-4.699,0.6-7,0.8c-2.8,0.2-5.6,0.399-8.399,0.5
		c-2.4,0-4.9,0-7.3,0c-0.5,0-0.801,0.2-0.801,0.7c0,1.8-0.1,3.6,0.101,5.399c0.2,2.9,0.5,5.8,0.7,8.7c0.1,0.8,0.399,1.1,1.199,1
		c3.4-0.3,6.801-0.7,10.301-0.9c3.399-0.3,6.8-0.399,10.199-0.6c0.301,0,0.601,0.1,1,0.1c0.7,0.2,1.101-0.1,1-0.8
		c-0.399-4.1-0.1-8.2,0-12.399c0-0.601,0.2-1.2,0.4-1.7C48.3,2214.9,48.2,2214.7,47.3,2214.8z M46.6,2229.5c-1,0-1.801,0-2.7,0
		c-4.2,0-8.3,0.4-12.4,0.9c-2,0.199-4,0.399-6,0.5c-0.5,0-0.6-0.2-0.6-0.601c-0.2-2.5-0.3-4.899-0.5-7.399
		c-0.101-1.601-0.3-3.2-0.3-4.801c0-0.3,0.199-0.699,0.3-1.1c1.1,0.1,2.3,0.3,3.399,0.3c1.301,0,2.7,0,4-0.101
		c2.9-0.199,5.801-0.399,8.601-0.6c1.8-0.2,3.6-0.5,5.399-0.7c0.301,0,0.601-0.1,0.7-0.1C46.6,2220.4,46.6,2224.9,46.6,2229.5z"/>
</g>
<g>
	<path fill="#008A2D" d="M56.6,1312.6c-0.101-0.1-0.2-0.199-0.2-0.399c-1.5-2.2-2.9-4.3-4.5-6.4c-0.5-0.7-0.8-1.399-0.8-2.2
		c-0.2-5.3-0.4-10.6-0.5-15.899c0-1.101,0.1-2.2,0.3-3.3c0.2-1.4-0.101-1.7-1.5-1.5c-4.9,0.399-9.8,0.899-14.7,1.1
		c-5.5,0.3-10.9,0.3-16.4,0.4c-0.699,0-1.1,0.5-0.899,1.3c0,0.2,0,0.5,0,0.7c0.2,6,0.399,12,0.6,18c0,0.399,0.3,0.899,0.601,1.3
		c0.399,0.5,0.6,0.899,0.199,1.5c-1.3,1.8-2.5,3.8-4.1,5.399c-0.9,0.9-1,1.601-0.8,2.601c0.2,1.3,0.399,2.6-0.3,3.899
		c0.3,0.101,0.5,0.301,0.699,0.301c0.801,0.1,1.7,0.1,2.5,0.1c13-0.4,26-1.5,39-2.6c0.7-0.101,0.9-0.301,0.801-0.9
		c0-0.6-0.2-1.5,0.1-1.8C57.7,1313.4,57.3,1313,56.6,1312.6z M18.8,1299.6c-0.1-4.5-0.199-9.1-0.3-13.6c0-0.1,0-0.3,0.101-0.6
		c9.6,0,19.199,0.1,28.8-1.301c0,0.101,0.1,0.2,0.1,0.301c-0.399,0.199-0.7,0.6-1.1,0.699c-8.4,1.301-16.9,1.7-25.4,1.601
		c-0.1,0-0.1,0-0.2,0c-0.1-0.3-0.199-0.601-0.399-0.9c-0.101,0-0.2,0-0.2,0c-0.1,0.3-0.4,0.7-0.4,1c0,0.8,0,1.5,0.2,2.3
		c0.7,3.801,0.5,7.7,0.601,11.5c0,1.4,0.199,2.801,0.3,4.2c0,0.4,0.399,0.7,0.6,1c0.2-0.2,0.5-0.399,0.7-0.5
		c0.2-0.1,0.5-0.2,0.8-0.2c2.601,0.101,5.2,0.301,7.9,0.2c5.399-0.2,10.7-0.6,16-0.899c0.3,0,0.6,0.199,0.899,0.1
		c0.4-0.1,0.7-0.2,1-0.4c0.101,0-0.199-0.5-0.3-0.8c-0.1-0.3-0.3-0.7-0.3-1c-0.1-3.4-0.1-6.8-0.2-10.2c-0.1-2.6-0.3-5.199-0.5-8
		c0.7-0.1,1.3-0.1,2-0.199c-0.899,7.199,0.4,14.3,0.4,21.6c-0.8,0-1.5,0-2.2,0c-0.8,0.1-1.7,0.2-2.5,0.3c-0.1,0-0.3,0.101-0.4,0
		c-1.699-0.5-3.399-0.2-5.1-0.1c-6.2,0.399-12.4,0.7-18.6,1c-0.9,0-2-1-2.101-2.101C19,1303,18.8,1301.3,18.8,1299.6z M47.2,1302.3
		c0,0.7-0.2,1-0.9,1c-7.199,0.4-14.3,1.2-21.5,0.601c-0.899-0.101-1.899,0-3,0c-0.199-5.5-0.5-10.801-0.699-16.301
		c8.399,0.301,17.1-0.3,25.699-1.6c0,0.4,0.101,0.6,0.101,0.9C47,1292.1,47.1,1297.2,47.2,1302.3z M15.3,1314.2
		c0.101-0.3,0.2-0.601,0.4-0.9c1.2-1.7,2.4-3.399,3.7-5c0.2-0.3,0.8-0.5,1.2-0.5c3.6-0.1,7.3-0.2,10.899-0.399
		c3.101-0.2,6.3-0.5,9.4-0.801c1-0.1,2.1-0.199,3.1,0.101c1.9,0.399,3.601-0.4,5.5-0.2c0.5,0.1,1-0.2,1.5-0.3
		c1.4,2.199,2.9,4.399,4.4,6.699c-1.9,0.801-38.2,2.801-40.4,2.301C15.1,1314.9,15.1,1314.6,15.3,1314.2z M54.8,1315.9
		c-4.699,0.3-9.3,0.8-14,1C32.9,1317.4,24.9,1317.8,17,1318.3c-0.3,0-0.5,0-0.8,0c-0.5,0-1.2,0.2-1.2-0.7c0-1.1,0.2-1.3,1.2-1.3
		c3.3-0.1,6.5,0,9.8-0.2c6.5-0.3,12.9-0.699,19.4-1.199c3.2-0.2,6.3-0.5,9.5-0.801c0.2,0,0.399,0,0.7,0c0,0.301,0,0.601,0.1,0.801
		C55.7,1315.7,55.5,1315.9,54.8,1315.9z"/>
	<path fill="#008A2D" d="M39.5,1299.7c-0.3,0.2-0.5,0.5-0.7,0.7c0.101,0.1,0.101,0.199,0.2,0.3c0.4-0.101,0.8-0.2,1.101-0.3
		c0.1,0.3,0.3,0.6,0.399,0.899c0.3-0.1,0.601-0.2,0.9-0.5c1-1,1.899-2.1,2.8-3.1c0.2-0.2,0.2-0.601,0.2-1c-0.3,0.1-0.8,0-1,0.2
		C42.1,1297.8,40.8,1298.7,39.5,1299.7z"/>
	<path fill="#008A2D" d="M28.7,1290.9c-0.1,0-0.1,0.199-0.1,0.3c0.3,0.5-0.101,0.6-0.4,0.8c-1.2,0.8-2.4,1.5-3.6,2.3
		c-0.301,0.2-0.5,0.5-0.7,0.801c0.1,0.1,0.1,0.1,0.2,0.199c0.1,0,0.3,0,0.399-0.1c1.601-1,3.2-2.1,4.8-3.1
		C29.4,1292,29.6,1291.8,29.6,1291.8c-0.301-0.899,0.6-0.899,1-1.199c0.199-0.2,0.5-0.4,0.699-0.601
		c-0.1-0.1-0.199-0.199-0.199-0.399C30.2,1289.9,29.5,1290.4,28.7,1290.9z"/>
	<path fill="#008A2D" d="M24.5,1293.1c1.4-1,2.8-2,4.2-3.1c0.3-0.2,0.5-0.6,0.8-0.9c-0.1-0.1-0.2-0.199-0.3-0.3
		c-0.2,0.101-0.5,0.3-0.7,0.4c-0.5,0.3-0.899,0.7-1.399,1.1c-1.101,0.8-2.101,1.7-3.2,2.5c-0.2,0.101-0.2,0.4-0.4,0.7
		c0.3-0.1,0.5-0.1,0.8-0.2C24.4,1293.2,24.4,1293.1,24.5,1293.1z"/>
	<path fill="#008A2D" d="M17.9,1314.2c0.7,0,1.399,0,2,0c0,0,0,0,0,0.1c2.899-0.3,5.8-0.6,8.7-0.8c7.399-0.5,14.699-0.9,22.1-1.3
		c0.4,0,0.9-0.2,1-0.5c0.1-0.301-0.2-0.7-0.4-1c-0.699-0.9-1.5-1.7-2.3-2.601c-0.2-0.199-0.5-0.399-0.8-0.399c-2.6,0-5.2,0-7.8,0
		c-6.101,0.1-12.3,0.699-18.4,1c-0.899,0.1-2-0.2-2.2,1.199c0,0.101-0.1,0.101-0.199,0.2c-0.7,1-1.4,2.1-2.2,3.1
		C17.1,1313.9,17.3,1314.2,17.9,1314.2z M24.8,1311.9c0,0.1,0,0.1,0.101,0.199c-0.9,0.301-1.8,0.5-2.7,0.801
		c0-0.101,0-0.2-0.1-0.301C23,1312.3,23.9,1312.1,24.8,1311.9z"/>
</g>
<g>
	<path fill="#008A2D" d="M43,2442.7c-0.3-0.101-0.6-0.3-0.8-0.5c-0.7-0.8-0.9-0.8-1.6,0.1c-1,1.2-1.9,2.5-2.9,3.7
		c-0.1,0-0.2-0.1-0.3-0.1c0-1.4,0-2.7,0-4.101c0-0.601-0.101-1.101-0.8-1.101c-1.2,0-2.4-0.199-3.601,0.101
		c-4.8,1.101-9.1,3.3-13,6.3c-8.2,6.4-9.3,14.5-6.399,22c2.6,6.9,7.8,11.5,14.6,14.4c11.7,5,24.7-0.5,29.2-12.4
		c1.1-2.8,1.399-5.699,1-8.6c-0.7-5.4-3.3-9.801-6.601-14C49.6,2445.5,46.6,2443.6,43,2442.7z M36.2,2447.5c0.1,0.1,0.3,0.1,0.4,0.2
		c-0.801,1.6-1.601,3.2-2.5,4.899c-0.101-0.1-0.2-0.1-0.301-0.199C34.6,2450.8,35.4,2449.2,36.2,2447.5z M54.2,2475.2
		c-6,8.399-16.5,11.2-26,7c-6.2-2.8-11-6.9-13.6-13.3c-3.2-7.801-0.7-16.5,6.3-21.9c3.1-2.3,6.5-3.8,10.2-4.8
		c1.1-0.3,2.199-0.601,3.199-0.9c-1.6,7-3.5,13.7-6.899,19.9c-0.2,0-0.601-0.101-1.2-0.101c0.3,0.4,0.4,0.801,0.6,0.9
		c1,0.6,2.101,1.199,3.2,1.8c0.3,0.101,0.601,0.2,0.8,0.399c0.801,1,1.9,1.4,3.101,1.7c5.7,1.601,11.3,3.3,17,4.9
		c1.6,0.5,3.3,0.7,5.1,1C55.4,2473.2,54.9,2474.3,54.2,2475.2z M57.2,2461c0.2,2,0.2,4.1,0.2,6.1c0,0.601-0.3,0.801-0.9,0.801
		c-1.7-0.301-3.399-0.4-5.1-0.801c-5-1.1-10-2.3-15-3.399c-2.101-0.5-4.2-0.7-6.3-1c-0.4-0.101-0.7-0.2-1.101-0.3
		c0-0.101,0-0.2,0-0.301c2.5-0.5,5-1.1,7.5-1.6c5.3-1,10.7-2,16-3.1c0.3-0.101,0.7-0.2,0.9,0c0.899,0.6,1.6,0.199,2.5-0.601
		C56.4,2458.3,57,2459.6,57.2,2461z M54.6,2454c-8,1.8-15.4,4.8-23.5,5.9c0.199-0.301,0.399-0.601,0.5-0.801
		c2-3.399,4-6.899,6.1-10.3c1.1-1.7,2.4-3.3,3.7-5c0.2-0.2,0.8-0.3,1.2-0.2c4,0.9,7.1,3.301,9.5,6.601
		C53,2451.4,53.8,2452.7,54.6,2454z"/>
	<path fill="#008A2D" d="M20.3,2452.4c-0.699,0.6-1.6,1.199-2,2c-1.399,2.899-1.399,6-0.8,9.199c0,0.2,0.2,0.4,0.4,0.601
		c0.1,0,0.2-0.101,0.399-0.101c0-0.399,0.101-0.8,0.101-1.3c0-1.5,0-3.101,0.1-4.601c0.2-2,0.3-4,2.5-5.1
		c0.101-0.1,0.101-0.4,0.2-0.6C20.9,2452.5,20.5,2452.3,20.3,2452.4z"/>
	<path fill="#008A2D" d="M17,2454.5c-0.3,0.4-0.7,0.8-0.8,1.2c-0.5,1.8-0.9,3.7-1.3,5.5c-0.2,1.2,0.3,2.2,1,2.399
		c0.5-3,0.899-6,1.399-9C17.1,2454.5,17,2454.5,17,2454.5z"/>
</g>
<g>
	<path fill="#008A2D" d="M15.3,363.1c0,2.2,0,4.4-0.1,6.7c-0.1,3-0.2,5.9-0.3,8.9c-0.101,1.8-0.4,3.5-0.5,5.2
		c-0.101,1.2,1,2.3,1.8,1.8c1.2-0.8,2.5-0.5,3.7-0.5c4.399,0.1,8.8,0.4,13.2,0.2c7-0.3,14.1-1,21.1-1.6c1.8-0.1,2.1-0.4,2.1-2.2
		c0-3.4-0.199-6.8-0.199-10.2c0-1.4,0.199-2.7,0.199-4.1c0.101,0,0.2,0,0.301,0c0-2.7,0-5.4,0-8.1c0-1.8-0.5-2.3-2.301-1.9
		c-1.199,0.3-2.5,0.5-3.699,0.5c-4.101,0.1-8.2-0.3-12.2,0.2c-4.2,0.5-8.4,0.5-12.601,0.8c-3.5,0.2-6.899,0.5-10.399,0.8
		c-0.4,0-1,0.4-1.101,0.8c-0.1,0.3,0.301,0.8,0.5,1.2C14.9,362.2,15.3,362.7,15.3,363.1z M49.4,382.7c-7.4,0.5-14.7,1-22.101,1.4
		c-2.8,0.1-5.699-0.3-8.899-0.4c0.6-0.6,1-1.1,1.399-1.5c3.801-3.5,7.7-7,11.5-10.5c0.5-0.5,0.9-0.5,1.5-0.1
		c1,0.7,2.101,1.4,3.101,2.1c0.8,0.6,1.6,0.6,2.5,0c0.899-0.6,1.8-1.2,2.8-1.8c0.3-0.2,0.9-0.2,1.1,0c3.4,2.6,6.9,5.3,10.2,8
		c0.7,0.6,1.2,1.5,1.9,2.5C52.6,382.5,51,382.6,49.4,382.7z M54.6,361c-0.2,6-0.301,11.7-0.5,17.7c-3.7-2.9-7.301-5.6-11-8.5
		c3.5-2.9,6.899-5.8,10.399-8.7C53.8,361.4,54.1,361.3,54.6,361z M53.5,359.5c-3.2,2.6-6.5,5.3-9.7,8c-1.899,1.5-3.8,3-5.699,4.6
		c-0.5,0.4-0.9,0.4-1.5,0.1C33,370,29.5,367.8,25.9,365.7c-1.101-0.7-2.5-0.9-3.7-1.5c-1.7-0.8-3.3-1.8-4.9-2.9
		C29.4,360.3,41.5,359.5,53.5,359.5z M16.8,377.5c0-0.4,0.101-0.9,0.101-1.3c-0.2-2.2,0.399-4,2.6-5.1c0.7-0.4,1.2-1.2,1.8-1.9
		c-0.199-0.2-0.3-0.3-0.399-0.5c-0.8,0.6-1.7,1.2-2.8,2c0.699-0.8,1.199-1.4,1.699-2c-0.1-0.1-0.199-0.3-0.3-0.4
		c-0.8,0.5-1.5,1-2.3,1.5c0-2.1,0-4.2,0-6.6c4.5,2.4,9.2,3.8,13.2,7c-4.601,4.1-9.101,8.3-13.9,12.6
		C16.5,380.9,16.7,379.2,16.8,377.5z"/>
	<path fill="#008A2D" d="M40.4,378.2c-1.3,1.2-2.601,2.4-3.9,3.6c-0.3,0.3-0.8,0.7-0.3,1.1c0.2,0.1,0.8,0,1.1-0.3
		c1.301-1.3,2.601-2.6,3.9-4c0.2-0.2,0.3-0.5,0.5-0.8c-0.1-0.1-0.2-0.2-0.3-0.3C41,377.9,40.6,378,40.4,378.2z"/>
	<path fill="#008A2D" d="M35.3,378c-1.399,1.1-2.8,2.2-4.199,3.4c-0.2,0.2-0.2,0.7-0.2,1.1c0.399-0.1,0.899,0,1.2-0.2
		c1.3-1.1,2.399-2.3,3.6-3.5c0.2-0.2,0.3-0.4,0.6-1C35.8,377.9,35.5,377.9,35.3,378z"/>
</g>
<g>
	<path fill="#008A2D" d="M17.2,481c0.3,0.3,0.6,0.7,0.7,1.1c0.3,2.4,0.5,4.801,0.6,7.2c0,0.5-0.3,1.101-0.6,1.601
		c-0.101,0.199-0.3,0.399-0.4,0.5c0.4,0.5,1,0.8,1,1c0,2.1-0.2,4.3-0.3,6.399c0,1.101-0.1,2.3-0.1,3.4c0,0.8,0.6,1.1,1.3,1.1
		c1.399,0,2.8,0,4.2-0.1c6.899-0.5,13.699-0.9,20.6-0.7c2.9,0.1,5.8-0.1,8.7-0.2c1.1,0,1.2-0.3,0.8-1.3c-0.2-0.4-0.2-0.8-0.2-1.2
		c-0.1-0.899,0-1.7-0.1-2.6c-0.9-6.3-0.8-12.7-0.8-19c0-0.4-0.101-0.8-0.2-1.4c-2.9,2.4-6.2,1.601-9.4,2.2c0-0.5-0.1-0.9-0.1-1.3
		c0-1.2,0-2.5,0-3.7c0-1.4-0.2-1.6-1.601-1.6c-1.1,0-2.199-0.101-3.3-0.101c-2.7,0-5.399-0.1-8,0c-0.7,0-1.3,0.3-1.899,0.4
		c0.199,0.6,0.5,1,0.6,1.399c0.1,0.9,0,1.801,0,2.7c0,0.7,0,1.4,0,2.2c-1.3,0-2.5,0-3.7,0c-0.7,0-1.399-0.1-2.2-0.2
		c-1.399-0.1-2.699-0.2-4.1-0.1c-0.6,0.1-1.1,0.7-1.6,1.1C16.7,480.2,16.8,480.6,17.2,481z M30.9,473.6
		c3.399,0.101,6.8,0.101,10.3,0.2c0,1.8,0,3.4,0,5.101c-3.5,0-7.1,0-10.7,0c-0.2-1.5-0.399-3-0.5-4.5
		C29.8,473.7,30.4,473.6,30.9,473.6z M19.6,480C26.8,481.1,34,479.8,41.3,479.9c0,0.399-0.1,0.8,0,1.199
		c0.101,0.301,0.4,0.7,0.601,0.7c0.3,0,0.7-0.3,0.8-0.6c0.2-0.4,0.2-0.9,0.3-1.4c2.601,0,5.2,0,7.9,0c0,0.101,0.1,0.3,0.1,0.4
		c0,2.7,0,5.399,0,8c0,0.2-0.3,0.7-0.5,0.7C46.3,489.3,42.1,489.6,37.9,490c-0.101,0-0.101,0-0.2-0.1
		c-0.2-0.801-0.2-1.801-1.4-2.101C34.6,487.4,33,487,31.4,488.1c-0.2,0.101-0.4,0.301-0.5,0.5c-0.3,1.101-1.101,1.2-2,1.301
		c-2.8,0.1-5.5,0.3-8.3,0.3c-0.2,0-0.601-0.4-0.601-0.601c-0.2-1.5-0.2-3-0.3-4.399c1.1-0.3,3.3-3.3,3-4.4c-1,1.101-2,2.2-3,3.4
		C19.6,482.7,19.6,481.4,19.6,480z M36.2,490.2c-1.3,0.1-2.5,0.2-3.7,0.3c-0.2-1.4,0.101-1.7,1.3-1.6c0.601,0.1,1.2,0.1,1.7,0.3
		C35.8,489.4,35.9,489.8,36.2,490.2z M20.2,491.9c1.1,0,2.2,0,3.3,0c2.101-0.101,4.2-0.301,6.3-0.4c0.4,0,0.9,0.2,1.101,0.5
		c0.8,1.3,2,1.7,3.5,1.7c0.6,0,1.2-0.101,1.7-0.4c0.5-0.2,1-0.7,1.199-1.2C37.6,491.2,38.1,491,38.9,491c2.8,0,5.6,0,8.3-0.1
		c1.3,0,2.6-0.2,4-0.4c0.1,1.4,0.3,2.7,0.4,4.1c0.1,1.7,0.199,3.5,0.399,5.2c0.101,0.8-0.3,1.2-1.2,1.2c-3.199,0-6.399-0.1-9.5,0
		c-5.5,0.2-11,0.5-16.6,0.7c-1.5,0.1-2.9,0.1-4.4,0.1c-0.3,0-0.8-0.399-0.8-0.6C19.7,498.1,20,495.1,20.2,491.9z"/>
	<path fill="#008A2D" d="M45.1,498.1c0.3-0.199,0.6-0.3,0.899-0.5c0.101,0.101,0.101,0.2,0.2,0.4c0.4-0.2,0.9-0.4,1.2-0.7
		c0.399-0.399,0.8-0.8,1-1.3c0.2-0.3,0.2-0.7,0.1-1c-0.1-0.2-0.5-0.2-0.8-0.3c-0.2-0.101-0.5-0.101-0.6-0.2
		c-0.301-0.5-0.601-0.3-1,0c-0.801,0.7-1.5,1.5-2.2,2.2c-0.4,0.399-1.101,0.8-0.601,1.6C44,499.1,44.5,498.5,45.1,498.1z"/>
	<path fill="#008A2D" d="M23.3,484.2c0.5-0.5,0.9-1,1.4-1.5c0.1-0.101,0-0.4,0-0.5c-0.2,0-0.6,0-0.7,0.1c-0.399,0.5-0.7,1-1.1,1.5
		v0.101C23,484,23.1,484.1,23.3,484.2z"/>
</g>
<g>
	<path fill="#008A2D" d="M24.9,1654.9c0.2,0.3,0.8,0.399,1.3,0.6c0.4,0.1,0.8,0.2,1.1,0.3c0.301,0.2,0.601,0.5,0.601,0.8
		c-0.3,2.801,0.2,5.7-0.5,8.5c-0.2,0.9-0.2,1.801-0.2,2.7c0,0.7,0.3,1,1,0.8c2.4-0.699,4.8-1.5,7.2-2.3c0.8-0.2,1-0.6,0.899-1.5
		c-0.699-3-1.3-6.1-1.899-9.2c0.3-0.1,0.6-0.1,0.899-0.199c3.2-0.5,6.4-1.101,9.601-1.601c0.7-0.1,1.5,0.101,2.1,0.301
		c1.4,0.699,3.5,0.1,4-1.4c0.601-1.7,1.101-3.5,0.9-5.4c-0.601-4.699-1.7-9.3-3.9-13.5c-1-2-2.399-3.199-4.7-3.3
		c-0.899,0-1.399,0.2-1.8,1c-0.3,0.6-0.8,1.3-1.3,1.7c-4.3,2.899-9.1,4.7-13.9,6.6c-2.3,0.9-3.399,2.5-3.899,4.601
		c-0.2,0.6-0.4,1-0.9,1.3c-2.2,1.399-2.7,2.8-1.899,5.3c0.199,0.5,0.399,1.1,0.6,1.6c0.4,0.9,1.1,1.4,2,1.301
		C23.2,1653.8,24.2,1653.6,24.9,1654.9z M34.4,1663.7c-1.8,0.6-3.601,1.1-5.4,1.7c0.101-0.9,0.2-1.7,0.2-2.5
		c0.1-1.9,0.2-3.9,0.2-5.801c0-0.5,0.2-0.8,0.8-0.899c3-0.5,2.4-0.7,3,1.8C33.6,1659.9,34,1661.7,34.4,1663.7z M42,1634.3
		c0.2-0.8,1.101-1.399,1.8-2.1c0.101-0.101,0.7,0.1,0.9,0.3c0.6,0.6,1.2,1.2,1.7,1.9c2,3.199,2.6,6.899,3.5,10.5
		c0.5,2.1,0.6,4.1,0,6.1c-0.2,0.7-0.5,1.1-1.2,0.9c-0.1,0-0.2,0-0.3,0c-0.8,0.1-1.7,0.5-2.4-0.2c-0.8-0.9-1.5-1.9-2.3-2.8
		c1.2-0.5,2.3-0.9,3.3-1.4c1.101-0.5,1.601-1.4,1.4-2.6c-0.3-1.7-0.3-3.4-0.601-5.101c-0.3-2-1.3-2.699-3.3-2.199
		c-0.899,0.199-1.899,0.5-3,0.8C41.7,1637,41.6,1635.6,42,1634.3z M44.3,1645c0.101-1,0.101-1.7,0.301-2.4
		c0.1-0.899,0.1-1.6-1.101-1.6c-0.3-1.4-0.1-1.9,0.8-2.1c1-0.2,2.101,0.399,2.2,1.5c0.2,1.699,0.4,3.399,0.5,5
		c0,0.3-0.2,0.699-0.399,0.8c-1,0.399-1.9,0.8-2.9,1.1c-0.2,0.101-0.4-0.1-0.9-0.2c1.601-0.399,2.801-0.8,3.801-1.899
		C45.9,1644.9,45.5,1643.8,44.3,1645z M25.1,1641.3c0.1-0.1,0.3-0.3,0.399-0.3c0.9,0.4,1.5-0.4,2.2-0.6
		c4.2-1.801,8.3-3.601,12.5-5.301h0.1c-0.1,6,0.2,12,4,17.301c-1.5,0.3-2.899,0.6-4.399,0.8c-3.4,0.6-6.8,1.6-10.4,1.399
		c-1,0-2.1-0.3-3.1-0.6c-0.4-0.1-0.601-0.7-0.8-1.1C25.3,1652.1,25,1651.3,24.8,1650.5c-0.5-1.4-1-2.7-1.3-4.2
		C23.1,1644.4,23.9,1642.7,25.1,1641.3z M21,1651.2c-0.8-2.3-0.6-3.4,1-4.7c0.5,1.9,0.9,3.7,1.4,5.6
		C21.9,1652.8,21.5,1652.6,21,1651.2z"/>
	<path fill="#008A2D" d="M26,1646.3c0.101,0.3,0.4,0.5,0.7,0.7c0.2-0.3,0.4-0.5,0.4-0.8c0-0.601-0.101-1.3-0.2-1.9
		c-0.101-0.5,0.1-0.8,0.6-1c1.2-0.5,2.4-0.899,3.5-1.5c2-1.1,4.5-1.2,6.101-3.1c0.199-0.2,0.3-0.5,0.5-0.8
		c-0.301-0.101-0.601-0.2-0.9-0.2c-0.2,0-0.3,0.1-0.5,0.2c-2.7,1.1-5.3,2.5-8,3.3c-1.8,0.6-2.1,1.6-2.2,3.1c0,0.2,0,0.4,0,0.7l0,0
		C25.9,1645.4,25.8,1645.9,26,1646.3z"/>
</g>
<g>
	<path fill="#008A2D" d="M47.7,1979.6c-1.2-0.899-2.5-2.199-4.4-1.5c-0.1,0-0.199,0-0.199,0c-1.601,0-2.801,0.7-3.5,2.2
		c-0.301,0.8-0.601,1.601-0.801,2.4c-1,3.5-3.5,5.399-6.699,7c-0.101-0.4-0.101-0.7-0.2-1c-0.7-0.101-1.4-0.2-2.101-0.3
		c-0.3,0-0.8,0.1-0.899,0.399c-0.9,1.2-1.3,2.5-1.2,4c0.2,2.2,1,4.101,2.2,5.9c-0.3,0.399-0.601,0.8-0.9,1.1
		c-2.3,3.8-4.7,7.7-7,11.5c-0.6,1-1.399,2-2,3c-0.7,1.101-1.399,2.3-2.1,3.4c-0.101,0.2,0,0.6,0.2,0.8c0.1,0.1,0.5,0,0.8-0.1
		c0.1,0,0.2-0.2,0.3-0.301c4.5-4.699,9-9.399,13.5-14.199c1.1-1.101,1.1-1.101,2.5-0.5c2.9,1.3,5.9,1.5,8.8-0.101
		c1.7-1,2.5-2.5,2-4.399c-0.3-1-0.899-1.9-1.399-3.101c1-1.2,2.199-2.6,3.399-3.899c0.4-0.4,1-0.7,1.601-0.9
		c1.6-0.4,2.8-1.2,3.1-2.8c0.3-1.601-0.1-3.2-1-4.4C50.5,1982.3,49.2,1980.8,47.7,1979.6z M22.9,2012.6
		c-0.101,0-0.101-0.1-0.101-0.1c2.101-3.4,4.2-6.8,6.5-10.4c0,0.801,0,1.301,0,1.801c0,0.199,0.2,0.3,0.301,0.5
		c0.1-0.2,0.3-0.301,0.3-0.5c0.1-0.4,0-0.801,0-1.2c0.1,0,0.2-0.101,0.3-0.101c0.2,0.2,0.3,0.4,0.5,0.601s0.3,0.5,0.6,0.8
		C28.5,2006.7,25.7,2009.7,22.9,2012.6z M43.4,2002.4c-3,1.6-6,1.3-8.7-0.5c-2.9-1.9-4.9-4.601-5.6-8.101c-0.301-1.2,0-2.5,0-3.7
		c0-0.6,0.5-0.8,1.199-0.6c-0.899,0.8-1,1.8-0.699,2.8c0.899,3.101,2.3,5.9,4.899,7.9c2.601,2.1,5.601,2.3,8.8,1.6
		c0.601-0.1,0.7-0.5,0.601-1.1c-0.101-1,0-2.1,0.1-3.1C45.6,1999.3,45.3,2001.4,43.4,2002.4z M46.9,1991.5
		c-2.601,2.3-4.2,5.2-4.101,8.8c0,0.5-0.199,0.5-0.6,0.601c-2.9,0.5-5.5-0.2-7.6-2.301c-1.9-2-3.101-4.399-3.9-7
		c3.9-1.8,7.4-3.699,9.1-8c1.5,3.601,3.7,6.4,7.5,7.301c0.101,0.1,0.2,0.199,0.301,0.3C47.3,1991.4,47,1991.4,46.9,1991.5z
		 M48.5,1989.9c-1.399-0.101-2.899-0.5-4.2-1.601c-2-1.7-3.3-3.7-3.8-6.3c-0.2-1.5,1-2.9,2.601-2.9c1.6,0.101,3,0.4,4.199,1.601
		c1.801,1.7,3.601,3.2,4.2,5.7C52.1,1988.4,50.9,1990,48.5,1989.9z"/>
	<path fill="#008A2D" d="M33.2,1992c-0.1,0.2-0.3,0.5-0.2,0.7c0.3,1.399,1.9,3.6,3.7,3.5c-1-1.2-1.9-2.5-2.9-3.8
		C33.6,1992.3,33.4,1992.2,33.2,1992z"/>
	<path fill="#008A2D" d="M45.4,1985.6c-1.4-0.199-2.2-1-2.601-2.199c-0.199-0.601-0.3-1.301-0.399-2c-0.101-0.4-0.101-0.7-0.2-1.2
		c-0.7,0.399-0.8,1-0.8,1.6c0,1.601,0.5,3,1.8,3.9c0.6,0.5,1.4,0.7,2.2,0.899c0.2,0.101,0.5-0.3,0.8-0.399
		C45.8,1986,45.7,1985.6,45.4,1985.6z"/>
</g>
<g>
	<path fill="#008A2D" d="M55.9,1762.9c0.2-0.301,0.3-0.801,0.5-1.2c0.8-2.4-0.101-4.601-2.3-5.601c-0.9-0.399-1.801-0.6-2.801-0.8
		c-0.699-0.1-0.8-0.399-0.899-1c0-2.5-1.3-4.2-3.7-5c-0.4-0.1-0.8-0.399-1.2-0.8c-0.899-0.9-1.899-1.7-3.2-2
		c-2.699-0.5-5.199,0.1-7.399,1.6c-0.8,0.601-1.3,1.601-1.8,2.4c-0.2,0.2-0.2,0.5-0.301,0.8c-0.1,0-0.199,0-0.199,0
		c-0.2-0.6-0.4-1.2-0.601-1.7c-0.6,0.101-1,0.4-1.399,0.4c-3.5-0.8-7.2,1.1-8.4,4.5c-0.2,0.5-0.4,0.8-1,0.9
		c-0.7,0.199-1.4,0.5-2,0.899c-2.1,1.5-3.2,3.7-3.9,6.101c-0.1,0.5-0.1,1,0,1.5c0.101,0.5-0.1,0.8-0.5,1.199
		c-0.8,0.601-1.6,1.2-2.399,2c-1.2,1.101-1.4,2.9-0.5,4c0.8,1,1,1.9,0.5,3c-0.5,1.301-0.2,2,0.899,2.801c0.5,0.399,1.101,0.8,1.7,1
		c1.101,0.3,2.2,0.6,3.101,1.399c0.199,0.2,0.6,0.301,1,0.301c1.5,0.199,3.1,0.399,4.699,0.6c0.301,1.7,0.2,3.7,1.801,5.3
		c0.3-0.5,0.5-1,0.6-1.5c0.2-1.1,0.3-2.199,0.6-3.199c0.2-0.7,0.601-0.9,1.4-0.601c1.3,0.601,2.6,0.601,3.8-0.399
		c0.2-0.101,0.601-0.2,0.8-0.101c2.4,1,4.9,1.2,7.4,1.5c3,0.4,5.9-0.3,8.8-1.3c1.2-0.4,2.3-1.2,2.5-2.7c0-0.2,0.4-0.5,0.601-0.6
		c2.5-0.8,4.5-2.4,6.3-4.4c1-1.1,1.3-2.5,0.899-4c-0.399-1.6-1.5-2.6-2.8-3.399C55.7,1764.2,55.3,1763.8,55.9,1762.9z M56.9,1771.6
		c-1.7,1.9-3.7,3.4-6.4,3.801c-1,0.1-1.1,0.399-0.7,1.3c0.101,0.2,0,0.7-0.199,0.899c-0.601,0.5-1.301,1-2,1.301
		c-1.2,0.5-2.5,0.8-3.801,1.1c-2.3,0.5-4.6-0.1-6.8-0.6c-1.3-0.301-2.6-0.7-3.8-1.2c-0.9-0.3-1.6-0.2-2.2,0.5
		c-0.6,0.7-1.3,0.6-2.399,0.1c0.199-0.3,0.399-0.6,0.5-0.899c-0.4-0.101-0.7-0.2-1.101-0.2c-0.399,0-0.8,0.1-1.2,0.1
		c-0.3,0-0.699,0.101-1,0.2c0.101,0.3,0.301,0.7,0.4,1c0,0.1,0.1,0.1,0.2,0.2c-0.4,0.6-0.8,1.2-1.2,1.8c-0.1,0-0.2,0-0.3-0.1
		c0.1-0.7,0.2-1.5,0.399-2.4c-0.3,0-0.8-0.1-1.199,0c-1.801,0.6-3.601,0.4-5.101-0.4c-1.399-0.8-2.8-1.199-4.2-1.8
		c-1.1-0.5-1.399-1.3-0.899-2.399c0.1-0.301,0.2-0.601,0.399-0.801c0.301-0.5,0.2-1-0.199-1.5c-1.801-2.199-1.7-3.3,0.6-5
		c0.2-0.1,0.4-0.3,0.6-0.399c1.101-0.601,1.7-1.3,1.4-2.9c-0.4-2.2,2.2-6,4.3-6.6c0.3-0.101,0.7,0.1,1,0.2
		c0.3,0.1,0.601,0.3,0.8,0.199c0.2-0.1,0.4-0.5,0.5-0.8c0.2-3.4,3.2-5.8,6.601-5.1c0.6,0.1,1.1,0.6,1.6,0.8c0.4,0.2,0.9,0.6,1.3,0.7
		c0.801,0.1,0.9-0.101,0.9-0.9c0-0.3,0.1-0.7,0.3-1c1.5-2.2,5.5-3.6,8.101-2.9c1.1,0.301,1.899,1,2.6,2c0.2,0.301,0.7,0.7,1.1,0.7
		c2.101,0.3,3.2,1.5,3.2,3.6c0,2.301,0,2.301,2.3,2.5c0.301,0,0.601,0,0.9,0.101c2.5,0.5,3.5,2.399,2.8,5.1
		c-0.2,0.601-0.399,1.101-0.6,1.7c-0.3,0.6-0.101,1.1,0.399,1.5c0.601,0.5,1.2,0.9,1.801,1.3C58.3,1767.9,58.5,1769.9,56.9,1771.6z"
		/>
	<path fill="#008A2D" d="M23.4,1757.6c-0.2,0.101-0.5,0.2-0.601,0.4c-0.6,1.1-1.3,2.2-1.8,3.3c-0.1,0.2,0,0.601,0,0.9
		c0.101,0,0.2,0,0.3,0.1c0.2-0.3,0.4-0.5,0.601-0.8c0.6-0.8,1.1-1.5,1.6-2.3c0.2-0.3,0.5-0.5,0.601-0.8c0.1-0.2,0.1-0.601,0-0.7
		C24,1757.6,23.6,1757.6,23.4,1757.6z"/>
	<path fill="#008A2D" d="M31.2,1754.2c-0.3-0.101-0.6-0.4-0.8-0.3c-0.8,0.199-1.5,0.5-2.2,0.899c-0.6,0.4-0.6,0.8-0.3,1.3
		c1-0.5,1.899-0.8,2.7-1.3C30.9,1754.7,31,1754.4,31.2,1754.2z"/>
	<path fill="#008A2D" d="M29.7,1756.2c-0.6,0.2-1.2,0.7-1.1,1.5c1.1-0.601,2.1-1.101,3.199-1.7C31,1755.1,30.4,1756,29.7,1756.2z"/>
</g>
<g>
	<path fill="#008A2D" d="M26.4,970.1c2.3,0.101,4.6,0.2,6.899,0.301c0.5,0,1,0.3,1.4,0.3c1.1,0,2.2,0,3.3,0c0.101,0,0.2-0.2,0.3-0.2
		c0.2-0.1,0.4-0.3,0.7-0.4c2.8-1,5.5-2.1,7.101-4.899c0.1-0.101,0.1-0.2,0.199-0.3c1.101-0.601,1.2-1.601,1.2-2.601
		c0-0.899,0.101-1.8,0-2.8c-0.399-4.8,0.2-9.6,0.7-14.4c0.3-2.8,0.8-5.6,1.3-8.399c0.2-1.2-0.1-1.601-1.1-1.601
		c-4.601-0.199-9.2-0.5-13.8-0.8c-0.301,0-0.7-0.1-0.801,0.101c-0.5,0.6-1.1,0.399-1.6,0.399c-1.4,0-2.7,0-4.1,0l0,0
		c-1.9,0-3.801,0-5.7,0c-0.8,0-1,0.4-1,1.2c0.3,3.8,0.6,7.6,0.8,11.4c0.3,5.5,0.5,11-0.2,16.399c-0.2,1.5-0.3,3-0.399,4.5
		c0,1.2,0.399,1.5,1.6,1.5C24.2,970,25.3,970.1,26.4,970.1z M36.8,968.9c1.9-2.101,1.301-4.5,1.5-6.9c2.601,0.6,4.9-0.7,7.2-1.3
		C46.2,965,42.1,968.4,36.8,968.9z M22.8,968.4c2-10.801,0.5-21.4,0.101-32.2c1,0,2-0.101,3,0c3.2,0.2,6.3,0.2,9.5,0
		c2.899-0.2,5.899,0.1,8.8,0.2c1.2,0,2.4,0.199,3.6,0.3c-0.3,3.3-0.6,6.6-1.1,9.8c-0.5,3.7-0.8,7.5-0.7,11.2
		c0,0.899-0.3,1.399-1.1,1.7c-1.8,0.6-3.4,1.5-5.4,1.399c-0.7-0.1-1.399-0.5-2.1-0.7c-0.3-0.1-0.601-0.1-1-0.199
		c0,0.3-0.2,0.699-0.101,1c0.5,1.399,0.7,2.899,0.5,4.399c-0.1,1.3-0.699,2.4-1.5,3.4c-0.199,0.2-0.6,0.3-0.8,0.3
		c-3.2-0.1-6.3-0.3-9.5-0.5C24.4,968.5,23.7,968.4,22.8,968.4z"/>
	<path fill="#008A2D" d="M28.7,948.9c0.3,0.1,0.8,0.1,1,0.1c1.7-0.2,3.3-0.3,4.9-0.4C36,948.4,37.5,948.3,38.9,948
		c0.3,0,0.6-0.4,0.7-0.6c0.1-0.101-0.2-0.5-0.4-0.601c-0.2-0.1-0.5,0-0.8,0c-1.9,0.2-3.8,0.5-5.7,0.7c-1.3,0.1-2.6,0.2-3.9,0.4
		c-0.3,0-0.5,0.3-0.699,0.5C28.3,948.5,28.5,948.8,28.7,948.9z"/>
	<path fill="#008A2D" d="M30.1,943.1c2.899-0.3,5.8-0.6,8.699-0.899c0.5-0.101,1.101-0.101,1-0.8c-0.1-0.7-0.6-0.601-1.199-0.601
		c-2.301,0.3-4.601,0.5-7,0.9c-1.101,0.2-2.301,0-3.301,0.8C28.9,943,29.4,943.1,30.1,943.1z"/>
	<path fill="#008A2D" d="M36.9,953.6c-2.601,0.601-5.101,1.101-7.5,1.7c-0.3,0.101-0.5,0.4-0.7,0.7c0.3,0.1,0.7,0.4,0.9,0.4
		c2.5-0.4,4.899-0.801,7.3-1.301c0.3-0.1,0.7-0.5,0.6-0.699C37.5,954.1,37.1,953.9,36.9,953.6z"/>
</g>
<g>
	<path fill="#008A2D" d="M27.5,2119.3c0.5,0.7,1.3,1.2,1.9,1.8c0.2,0.2,0.3,0.301,0.399,0.5c0.2,0.9,0.301,1.801,0.5,2.801
		c0.2,1,0.4,2.1,0.5,3.1c0.2,2.4,0.4,4.7,0.601,7.101c0.5,0,0.7,0,0.899,0c1.601,0.3,3.101,0.7,4.7,0.899
		c1.101,0.101,2.3-0.1,3.4-0.3c0.399-0.101,0.7-0.601,1-1s0.5-0.899,0.8-1.3c0.4-0.5,0.9-0.9,0.3-1.601c-0.1-0.2-0.1-0.5-0.2-0.8
		c-0.1-2.8-0.199-5.5-0.199-8.3c0-0.4,0.199-1,0.5-1.3c2.3-1.9,3.899-4.2,5.199-6.801c1.5-3.1,1.5-6.399,1-9.699
		c-0.199-1.101-0.399-2.4-1-3.301c-1.199-1.8-2.6-3.5-4-5.1c-1.3-1.4-2.899-2.2-4.8-2.601c-7.1-1.399-13.1,2.2-16,7.4
		c-0.6,1-0.899,2.3-1.1,3.5s-0.101,2.399-0.2,3.5c-0.1,2.1,0.5,4,1.7,5.7C24.8,2115.6,26.1,2117.5,27.5,2119.3z M32.2,2132.6
		c-0.1-1.3-0.2-2.699-0.3-4.1c0.2,0,0.3-0.1,0.399-0.1c2.601,0,5.2-0.101,7.801-0.101c1.1,0,1.3,0.2,1.3,1.3
		c0,0.5-0.2,0.7-0.7,0.801c-1.1,0.199-2.3,0.3-3.4,0.6C35.6,2131.5,33.9,2132,32.2,2132.6z M31.8,2127.2
		c0.301-0.101,0.601-0.3,0.9-0.4c1.7-0.399,3.5-0.7,5.2-1.1c1.1-0.2,2.1-0.601,3.2-0.9c0,0.8,0,1.8,0,2.8
		c-3.101-0.1-6.2,0.301-9.2,0C31.9,2127.5,31.9,2127.3,31.8,2127.2z M40.9,2132.5c-1.101,1.3-2.601,1.5-4,1.8
		c-1.4,0.3-2.8-0.3-4.4-0.7c2.9-1.8,5.9-2,8.9-2.5C41.6,2131.7,41.3,2132,40.9,2132.5z M22.8,2107.7
		c0.101-1.101,0.101-2.101,0.2-3.2c0.3-3,2.101-5.2,4.2-7.1c2.1-1.9,4.4-3.101,7.3-3.2c1.601-0.101,3,0.2,4.601,0.3
		c2.8,0.2,4.3,2.1,6,3.9c3.1,3.1,3.399,7.1,3.1,11.1c-0.2,2.3-1,4.3-2.3,6.1c-1.101,1.5-2.101,3-3.2,4.601
		c-0.1,0.2-0.3,0.399-0.4,0.399c-0.6,0-0.699,0.4-0.8,0.9c-0.1,0.4-0.2,0.7-0.3,1.2c-3.4-0.601-6.7-0.101-10,0.2
		c0,0.1,0,0.199,0,0.3c0.2,0.1,0.5,0.2,0.7,0.1c1.7-0.1,3.399-0.3,5.1-0.3c1.3,0,2.5,0.1,3.8,0.1c0,1-0.399,1.5-1.3,1.7
		c-1.899,0.4-3.8,0.7-5.6,1.101c-0.7,0.1-1.3,0.3-2.2,0.6c-0.3-1.5-0.7-3.1-1-4.699c-0.1-0.301,0-0.7-0.5-0.801
		c-0.2,0-0.3-0.3-0.4-0.399c-1.699-2.3-3.399-4.601-5.199-6.9C23.2,2111.8,22.6,2109.9,22.8,2107.7z"/>
	<path fill="#008A2D" d="M39.6,2112.9c-0.301,1.199-0.7,2.399-1.2,3.6c-0.4,1.2-0.9,2.3-1.4,3.6c-2-4.399-5.3-9.699-6.7-10.199
		c0.2,0.399,0.301,0.8,0.601,1.199c1.7,3.101,3.399,6.2,5.1,9.301c0.101,0.199,0.4,0.3,0.7,0.399c0.2,0.101,0.4,0.101,0.6,0
		c0.301-0.1,0.7-0.2,0.801-0.399c0.3-0.5,0.6-1.101,0.699-1.7c0.7-2.8,1.301-5.601,2-8.5c0.101-0.3,0-0.601,0.101-0.899
		c-0.101,0-0.2,0-0.3,0C40.2,2110.5,39.9,2111.7,39.6,2112.9z"/>
	<path fill="#008A2D" d="M29.7,2109.6c-0.2-0.199-0.4-0.3-0.8-0.6c0.399-0.2,0.7-0.4,1-0.4c0.5,0,1.1,0.101,1.5,0.4
		c0.8,0.4,1.5,0.4,2.1-0.3c0.2-0.2,0.601-0.3,0.8-0.2c1.2,0.5,1.2,0.5,2.101-0.4c1.1,0.7,2,0.4,2.8-0.6c0.1-0.1,0.4-0.2,0.5-0.2
		c0.9,0,1.8,0.101,2.6,0.101c-0.199,0.199-0.6,0.399-0.8,0.699c-0.2,0.2-0.2,0.5-0.3,0.801c0.3,0,0.6,0,0.8-0.101
		c0.4-0.3,0.9-0.6,1.101-1c0.199-0.399,0.1-1,0-1.399c-0.2-0.5-0.601-0.4-1.101-0.301c-0.6,0.101-1.399,0.4-1.899,0.2
		c-1-0.399-1.4,0-1.9,0.601c-0.4,0.5-0.9,0.6-1.4,0.3c-0.5-0.399-1-0.3-1.399,0.3c-0.101,0.2-0.5,0.301-0.8,0.2
		c-0.5-0.101-1.101-0.3-1.5,0.2c-0.601,0.8-1.2,0.699-2,0.3c-0.301-0.2-0.801-0.3-1.101-0.3c-0.5,0.1-1.1,0.199-1.399,0.5
		c-0.2,0.199-0.2,0.8,0,1.1C28.9,2110,29.3,2110,29.7,2109.6z"/>
</g>
<g>
	<path fill="#008A2D" d="M52.7,2331.3c-0.4-0.3-0.7-0.7-1-1.1c-1.5-1.9-3.5-2.8-5.9-3.2c-1.6-0.3-3.399-0.3-4.899-1
		c-2.101-1-4.2-1-6.4-1.3c-1.6,0.3-3.399,0.3-4.899,0.899c-5.4,2.101-9.7,5.601-12.5,10.7c-2.801,5.3-3.7,10.8-0.2,16.101
		c1.2,1.899,2.5,3.8,4.2,5.3c4.399,4,8.6,8.399,14.199,10.8c0.5,0.2,1.2,0.4,1.5,0.2c0.301-0.2,0.4-1,0.301-1.5
		c-0.301-2.2-0.7-4.4-1.101-6.601c-0.399-2.399,0.4-3.6,2.7-4.3c2.2-0.601,4.5-1.2,6.7-1.899c6.1-1.9,9.5-6.101,10.5-12.5
		C56.6,2337.9,56.1,2334.2,52.7,2331.3z M51.9,2348.3c-1.601,2.3-3.8,3.7-6.4,4.601c-2.3,0.699-4.5,1.3-6.8,1.899
		c-3.5,0.9-4.7,2.7-4.1,6.2c0.3,1.8,0.6,3.7,1,5.6c-2.9-1.199-5.301-2.8-7.4-4.899c-1.4-1.399-3-2.7-4.6-4
		c-2.5-2.2-4.4-4.8-5.9-7.601c-1.4-2.6-1.7-5.3-0.7-8.199c0.101-0.4,0.3-0.9,0.4-1.301c2.2-7.6,7.6-11.8,14.899-14.1
		c0.4-0.1,0.9,0.2,1.4,0.3c0.4,0.101,0.8,0.2,1.2,0.2c1.3,0,2.7-0.1,4,0.1c2.2,0.4,4.399,1.101,6.6,1.5c2.101,0.4,3.9,1.2,5.2,2.9
		c0.7,0.9,1.7,1.7,2.4,2.6c0.6,1,1.399,2.101,1.5,3.101C54.8,2341.3,54.3,2345,51.9,2348.3z"/>
	<path fill="#008A2D" d="M29.2,2332.3c0.3-0.3,0.3-0.8,0.5-1.1c-0.4-0.101-0.8-0.4-1.1-0.3c-2.9,1-5.5,2.5-7.2,5.199
		c-0.5,0.801-0.7,1.5,0.3,2.2c0.2-0.2,0.5-0.5,0.6-0.8c1.4-2.2,3.4-3.801,5.801-4.7C28.5,2332.7,29,2332.6,29.2,2332.3z"/>
	<path fill="#008A2D" d="M30.3,2332.7c-2.6,1-4.8,2.5-6.199,4.899c0,0,0,0.101,0.1,0.301c0.3-0.101,0.6-0.101,0.8-0.301
		c1.8-1.1,3.601-2.1,5.4-3.199c0.2-0.101,0.5-0.301,0.6-0.5c0.101-0.2,0.2-0.601,0.101-0.801C30.9,2333,30.5,2332.7,30.3,2332.7z"/>
</g>
<g>
	<path fill="#008A2D" d="M30.1,2812.6L30.1,2812.6c0.199,0.7,0.3,1.4,0.5,2C30.5,2813.9,30.3,2813.3,30.1,2812.6z"/>
	<path fill="#008A2D" d="M22,2817.1c0.4,2.2,1.8,3.7,3.601,4.801c0.399,0.3,1.1,0.399,1.6,0.399c3.5-0.2,7.1-0.5,10.6-0.8
		c0.301,0,0.601-0.1,0.801,0c1.199,0.8,2.3,0.3,3.5,0.1c3.5-0.5,5.3-2.5,5.699-6c0.2-1.6,0.2-3.199,0.4-4.8
		c0.6-6.899,1.3-13.8,1.3-20.7c-0.1-3.399-0.2-6.699-0.399-10.1c0-0.7-0.301-1.5-0.601-2.2c-0.3-0.8-1-1.399-1.899-1.399
		c-1.4-0.101-2.801-0.301-4.2-0.301c-4.9,0.2-9.9,0.5-14.8,0.7c-1.7,0.101-3.9,1.7-4.101,3c-0.8,5.3-1.899,10.7-1.8,16.101
		c0,2.5-0.2,5-0.2,7.5C21.4,2808.1,21.2,2812.6,22,2817.1z M23.2,2803.2c0.2-2.4,0-4.8,0.2-7.2c0.2-3.4,0.6-6.8,0.899-10.2
		c0.101-1.6,0.301-3.1,0.5-4.7c0.2-1.6,0.601-2,2.2-2.3c1.7-0.3,3.4-0.7,5.2-0.7c4.4-0.199,8.8-0.199,13.2-0.3c1.6,0,2,0.4,2.1,2
		c0.2,4.5,0.3,9.101,0.4,11.7c-0.2,9.7-0.3,17.4-1.601,25c-0.3,1.6-1.199,2.8-2.899,3.3c-0.8,0.2-1.601,0.5-2.4,0.601
		c-0.399,0.1-0.899-0.2-1.3-0.301c-0.3-0.1-0.6-0.199-0.9-0.1c-3.6,0.3-7.1,0.6-10.699,0.9c-1.9,0.199-4-1.5-4.4-3.4
		C22.9,2812.7,22.9,2808,23.2,2803.2z"/>
	<path fill="#008A2D" d="M27.9,2800.5c1.399,0.1,2.899,0.4,4.3,0.2c3.7-0.4,7.3-1,11-1.4c0.4-0.1,1,0,1.3,0.2
		c0.8,0.5,1.101,0.2,1.2-0.6c0.4-2.101,0.6-4.2,0.3-6.301c-0.1-0.6-0.1-1.3,0-1.899c0.3-2.3,0.4-4.601-0.1-6.9
		c-0.2-1-0.601-1.399-1.601-1.399c-2.399,0-4.8,0-8.3,0c-1.899,0.199-5,0.399-8.1,0.6c-0.9,0.101-1.3,0.5-1.4,1.4
		c-0.6,4.899-0.3,9.8,0,14.699C26.7,2800,27.1,2800.4,27.9,2800.5z M27.9,2784.3c5.6-0.2,10.899-0.399,16.3-0.5c0,0.7,0,1.3,0,2
		c-0.7-0.7-1.3-0.399-1.8,0.2s-1,1.2-1.4,1.8c-1.3,1.9-2.7,3.8-4,5.7c-0.3,0.4-0.7,1-0.1,1.4c0.7,0.5,1-0.101,1.3-0.601
		c1-1.5,2-2.899,3.2-4.2c-0.601,1.101-1.2,2.301-1.8,3.4c-0.5,0.899-1,1.8-1.4,2.699c-0.2,0.5-0.5,1,0.2,1.4
		c0.6,0.3,0.899-0.2,1.1-0.6c0-0.101,0.101-0.101,0.3-0.301c0.101,0.5,0.101,1,0.2,1.601c-2.1,0.3-4,0.7-6.1,0.899
		c-1.5,0.2-3.101,0.101-4.601,0.2c-1,0-1.399-0.399-1.399-1.3c0-3.801-0.101-7.601-0.2-11.4C27.9,2785.8,27.9,2785.1,27.9,2784.3z"
		/>
	<path fill="#008A2D" d="M30.1,2812.6c-0.801,0.101-1.601,0.101-2.4,0.2c-0.1,0-0.1,0-0.2,0.101c-1.8,0.5-1.8,0.6-1.7,2.399
		c0,0.3,0,0.7,0,1c0,0.7,0.4,1,1,1c1-0.1,2.101-0.2,3-0.399c0.4-0.101,1-0.7,1-0.9c0-0.399-0.1-0.8-0.199-1.199
		C30.5,2813.9,30.3,2813.3,30.1,2812.6z M27.6,2815.6c-0.2-1.399-0.2-1.5,1.399-1.5c0.101,0.4,0.2,0.801,0.4,1.2
		C28.8,2815.4,28.2,2815.5,27.6,2815.6z"/>
	<path fill="#008A2D" d="M30.1,2812.6c-0.801,0.101-1.601,0.101-2.4,0.2C28.5,2812.7,29.3,2812.7,30.1,2812.6L30.1,2812.6z"/>
	<path fill="#008A2D" d="M41.2,2812.8c-0.1,0-0.1,0-0.2,0.101c-1.8,0.5-1.8,0.6-1.7,2.399c0,0.3,0,0.7,0,1c0,0.7,0.4,1,1,1
		c1-0.1,2.101-0.2,3.101-0.399c0.399-0.101,1-0.7,1-0.9c-0.101-1.1-0.4-2.199-0.7-3.3C42.8,2812.7,42,2812.7,41.2,2812.8z
		 M41,2815.6c-0.3-1.399-0.2-1.5,1.4-1.5c0.1,0.301,0.2,0.7,0.399,1.2C42.2,2815.4,41.6,2815.5,41,2815.6z"/>
	<path fill="#008A2D" d="M34,2812.8c-0.1,0-0.1,0-0.2,0.101c-1.8,0.5-1.8,0.6-1.699,2.399c0,0.3,0,0.7,0,1c0,0.7,0.399,1,1,1
		c1-0.1,2.1-0.2,3-0.399c0.399-0.101,1-0.7,1-0.9c-0.101-1.1-0.4-2.199-0.7-3.3C35.6,2812.7,34.8,2812.7,34,2812.8z M33.8,2815.6
		c-0.3-1.399-0.199-1.399,1.4-1.6c0.1,0.4,0.2,0.8,0.4,1.3C35,2815.4,34.4,2815.5,33.8,2815.6z"/>
	<path fill="#008A2D" d="M44.9,2806.7c-0.101-0.7-0.4-0.9-1.101-0.7c-0.6,0.1-1.3,0.2-2,0.1c-1.8-0.199-2-0.1-2,1.7
		c0,2.5,0,2.5,2.5,2.4c0.5,0,1.101,0,1.601,0c0.899,0,1.399-0.4,1.2-1.4C45,2808.1,45,2807.4,44.9,2806.7z M43.6,2808.5
		c-0.5,0-0.9,0.1-1.4,0c-0.3-0.1-0.6-0.3-0.9-0.4c0.301-0.399,0.5-0.8,0.9-1c0.4-0.199,0.9,0,1.4,0
		C43.6,2807.5,43.6,2807.9,43.6,2808.5z"/>
	<path fill="#008A2D" d="M37.6,2806.6c-0.101-0.699-0.4-0.8-1.101-0.6c-0.6,0.1-1.3,0.2-2,0.1c-1.8-0.199-2-0.1-2,1.801
		c0,2.399,0,2.399,2.4,2.3c0.7,0,1.3,0,2-0.101c0.6-0.1,1-0.399,0.899-1.1C37.8,2808.2,37.7,2807.4,37.6,2806.6z M36.4,2808.5
		c-0.5,0-1,0-1.4,0c-0.3,0-0.6-0.3-0.899-0.4c0.199-0.399,0.399-0.899,0.699-1c0.4-0.199,1,0,1.5,0
		C36.4,2807.5,36.4,2807.9,36.4,2808.5z"/>
	<path fill="#008A2D" d="M27.7,2810.1c0.7,0,1.3,0,2,0c0.7-0.1,1.1-0.399,1-1.199c-0.1-0.801-0.2-1.601-0.3-2.4
		c-0.101-0.5-0.4-0.699-0.9-0.6c-0.899,0.1-1.8,0.1-2.6,0.1c-1-0.1-1.4,0.2-1.5,1.2c0,0.2,0,0.5,0,0.7
		C25.3,2810.3,25.3,2810.3,27.7,2810.1z M27.6,2807c0.399-0.2,1,0,1.5,0c0,0.5,0,0.9,0,1.5c-0.5,0-1,0-1.4,0c-0.3,0-0.6-0.3-0.9-0.4
		C27.1,2807.7,27.3,2807.2,27.6,2807z"/>
</g>
<g>
	<path fill="#008A2D" d="M17.9,53.7c-0.101,1.1-0.2,2.3-0.3,3.4c-0.101,1.2,0.1,1.3,1.3,1.2H19c2.2-0.4,4.5-0.8,6.7-1.1
		c0.5-0.1,0.9-0.2,1.4,0.2c0.1,0.1,0.399,0,0.6-0.1c0.1,0,0.1-0.3,0-0.5c-0.1-0.4-0.3-0.8-0.3-1.3C27.3,54.7,27.3,53.9,27.3,53.2
		c-0.1-1.6-0.8-2.7-2.3-3.3c0,0,0,0-0.1-0.1c0.1-0.2,0.2-0.4,0.3-0.6c0.7-1.2,0.3-3.2-0.8-4c-0.5-0.3-1-0.6-1.5-0.9
		c-0.101-0.1-0.4-0.1-0.5,0C22,44.5,21.6,44.8,21.3,45c-1.6,1-1.899,3.2-0.699,4.6c0.1,0.1,0.3,0.3,0.399,0.5
		c-0.3,0.2-0.6,0.3-0.899,0.4C18.9,51.2,18.1,52.3,17.9,53.7z M20.7,47.4c0.7,0.2,0.7,0.1,0.9-0.6c0.1-0.5,0.399-0.9,0.6-1.3
		c0.1-0.1,0.5-0.2,0.7-0.1c1.5,0.5,2.1,1.9,1.6,3.3c-0.3,0.8-0.899,1.2-1.8,1.1C21.4,49.6,20.6,48.6,20.7,47.4z M21.9,50.4
		c0.5,0.3,1.2,0.3,1.899,0.2c1.101-0.2,2.2,0.7,2.5,1.9c0,0.1,0,0.3,0,0.4c0.101,1,0.2,2.1,0.2,3.2c-2.7,0.4-5.399,0.9-8.2,1.3
		c0-0.3,0-0.6,0.101-0.9c0.1-0.7,0.1-1.4,0.2-2.1c0.1-1.5,0.699-2.6,2.1-3.3C21.1,50.9,21.5,50.7,21.9,50.4z"/>
	<path fill="#008A2D" d="M50.3,45.2c-1.1-0.9-3-0.4-4.1,0.9c-0.9,1-0.8,2.6,0.4,3.8c-0.5,0.5-1.2,0.7-1.5,1.4
		c-0.4,0.8-0.801,1.5-0.9,2.3c-0.2,1.4-0.3,2.8-0.4,4.3c0,0.6,0.301,0.7,0.801,0.5c0.199-0.1,0.399-0.2,0.6-0.2
		c2.3-0.3,4.6-0.7,6.9-1c0.199,0,0.3,0.1,0.5,0.2c0.199,0.1,0.399,0.3,0.5,0.2c0.1-0.1,0.3-0.3,0.3-0.5c0-0.7,0-1.4,0-2.1
		c-0.101-1.4-0.5-2.6-1.4-3.6c-0.5-0.5-0.8-1.1-1.3-1.6C51.8,48.1,51.6,46.3,50.3,45.2z M46.4,48.2c-0.101-0.7,0-1.2,0.6-1.7
		c0.5-0.4,1-0.8,1.7-0.6c0.3,0.1,0.7-0.1,0.9,0C50,46.2,50.3,46.6,50.5,47c0.4,0.9,0.3,1.7-0.5,2.3c-0.3,0.2-0.8,0.3-1.1,0.4
		c-0.5-0.1-0.9-0.1-1.3-0.2C46.9,49.3,46.5,48.9,46.4,48.2z M52.2,53.5c0.2,0.8,0.3,1.6,0.4,2.5c0,0.3-0.2,0.4-0.4,0.4
		c-1.5,0.2-3,0.4-4.6,0.6c-1,0.1-2,0.3-3,0.4c0-0.5,0.1-0.9,0.1-1.3c0.2-1.1,0.3-2.2,0.5-3.3c0.2-1.2,1.1-1.8,2.1-2.3
		c0.2-0.1,0.4-0.1,0.601-0.1s0.3,0,0.5,0c0.6,0,1.399-0.1,1.8,0.2C51.1,51.4,51.9,52.3,52.2,53.5z"/>
	<path fill="#008A2D" d="M35,30.2c0.8,0.9,1.601,1.9,2.5,2.8c0.8,0.8,1.7,1.4,2.5,2.2c0.4,0.3,0.8,0.6,1.2,1
		c1.9,2.1,3.8,4.3,5.4,6.6c0.199,0.2,0.3,0.5,0.5,0.6c0.1,0.1,0.399,0.1,0.6,0c0.1-0.1,0.1-0.4,0-0.5c-0.1-0.2-0.3-0.4-0.4-0.6
		C45.9,40.5,44.4,38.7,43,36.9c-0.8-1-1.7-1.9-2.7-2.6c-0.8-0.5-1.5-1.2-2.1-1.9c-0.8-0.8-1.5-1.6-2.2-2.4c-0.1-0.1-0.3-0.3-0.3-0.4
		C35.4,29,35,29,34.6,29c-0.4,0-0.301,0.3-0.301,0.6c0,0.1-0.1,0.2-0.1,0.2c-1,1.8-2.2,3.5-3.7,4.9c-2.2,2.2-4.1,4.7-5.899,7.3
		c-0.101,0.1-0.2,0.2-0.2,0.4c0,0.3,0.1,0.5,0.2,0.8c0.199-0.1,0.5-0.2,0.6-0.3c0.4-0.5,0.7-1,1-1.5c1.8-2.5,3.7-4.8,5.8-7
		C33.1,33,34,31.6,35,30.2z"/>
	<g>
		<path fill="#008A2D" d="M30.3,23c-0.199,1.2-0.3,2.5-0.5,3.7c-0.1,1,0.2,1.2,1.101,1.1c2.6-0.2,5.3-0.5,7.8-1.3
			c0.2-0.1,0.5,0,0.8,0.1c0.5,0.2,0.7,0.1,0.7-0.4c0-1.6,0-3.3-0.6-4.9c-0.4-1.1-1-1.7-2-2.1C37.3,19.1,37.1,19,36.8,19
			c0.2-0.3,0.301-0.5,0.4-0.7c1-1.5,1.1-3,0-4.5c-0.1-0.1-0.2-0.3-0.2-0.4c0-0.7-0.5-0.9-1.1-1c-1.4-0.3-3.7,1.4-4,3
			c0,0.3-0.101,0.6,0,0.9c0.3,0.9,0.7,1.8,1.1,2.8C31.3,19.7,30.6,21.2,30.3,23z M32.9,15.4c0.1-0.4,0.399-0.7,0.6-1
			c0.2-0.3,0.5-0.5,0.8-0.7c0.601-0.5,1.101-0.6,1.7-0.1c0.7,0.6,1,1.6,1.2,2.4c-0.2,1-0.6,1.8-1.3,2.4c-0.5,0.4-1.101,0.4-1.8,0
			C33.3,17.9,32.6,16.5,32.9,15.4z M33.4,19.6c0.2-0.1,0.5-0.1,0.8-0.1c0.4,0,0.9,0.1,1.3,0.2c0.8,0.2,1.7,0.4,2.5,0.7
			c0.3,0.1,0.601,0.5,0.7,0.8c0.4,1.4,0.9,2.8,0.5,4.4c-2.7,0.8-5.5,1.3-8.5,1.4c0.2-1.2,0.4-2.3,0.4-3.5
			C31.2,21.7,32.1,20.5,33.4,19.6z"/>
		<path fill="#008A2D" d="M33.2,22c0.2-0.3,0.3-0.6,0.5-0.9c-0.4-0.2-0.9,0-1.1,0.5c0,0.1,0.1,0.3,0.1,0.5
			C32.9,22.1,33.2,22.1,33.2,22z"/>
		<path fill="#008A2D" d="M34.1,15.5c0.1,0.1,0.399,0,0.5-0.1c0.199-0.3,0.399-0.6,0.6-1.1c-0.7,0-1,0.3-1.2,0.7
			C33.9,15.2,34,15.5,34.1,15.5z"/>
	</g>
	<path fill="#008A2D" d="M19.7,55.2c0.2,0,0.4-0.2,0.5-0.3c0.4-0.5,0.8-1.1,1.1-1.6c0.101-0.1,0.2-0.3,0.4-0.4
		c-0.3-0.4-0.6-0.3-0.9-0.1c-0.699,0.4-1.1,1.1-1.399,1.8C19.4,54.9,19.5,55.1,19.7,55.2z"/>
	<path fill="#008A2D" d="M46.6,51.9c-0.7,0.5-0.9,1.3-0.9,2.1c0,0.2,0.2,0.3,0.4,0.5c0,0,0.3-0.2,0.399-0.3c0.3-0.7,0.601-1.4,1-2.2
		C47.2,51.7,47,51.7,46.6,51.9z"/>
	<path fill="#008A2D" d="M47.3,47.9c0.2,0,0.4,0,0.5-0.1c0.301-0.4,0.5-0.8,0.7-1.2c0.101-0.1,0-0.3-0.1-0.4
		c-0.2,0.1-0.3,0.1-0.3,0.1c-0.4,0.4-0.7,0.8-1,1.3C47.1,47.5,47.2,47.8,47.3,47.9z"/>
</g>
<g>
	<path fill="#008A2D" d="M41.6,1516.5c-3.601-1.9-7.2-2.3-11-1.1c-2.9,0.899-5.5,2.1-7.4,4.5c-2,2.6-3.4,5.6-4.6,8.699
		c-2.5,6.9,1.399,15.4,5.6,18.801c1.9,1.5,4,2.3,6.1,3.3c2,1,4.101,1.3,6.301,1.399c1.399-0.199,2.8-0.199,4.199-0.5
		c4.7-1.1,8.4-3.5,10.4-8.1c1-2.4,1.6-4.9,1.8-7.5c0.4-5.6-1.1-10.6-4.7-14.9C46.5,1519,44.1,1517.8,41.6,1516.5z M51.7,1530.8
		c0.3,1.2,0.4,2.4,0.5,3.101c-0.1,3.699-0.8,6.699-2,9.6c-1.9,4.2-5.4,6.3-9.7,7.3c-4.2,0.9-8.1,0.101-12-1.8
		c-6.8-3.3-9.6-9-9.7-16.1c0-2.101,0.801-4.301,1.601-6.2c1.2-3.101,2.8-6.101,5.6-8c3.3-2.2,7.101-3.7,11-2.7
		c4.5,1,8.601,3.1,11.601,7C50.3,1525.2,51.1,1528,51.7,1530.8z"/>
	<path fill="#008A2D" d="M38.3,1517.7c-1.399-0.7-2.899-1.2-4.5-0.7c-1.3,0.4-2.699,0.8-4,1.2c-1,0.399-2,0.7-2.899,1.399
		c-5.2,4-7.101,9.5-6.101,15.801C21.9,1542.3,27.7,1548.8,36.6,1549c3.5,0.1,6.899-0.7,9.399-3.2c2.7-2.8,4.7-6.1,4.2-10.5
		c0.3-2.399-0.6-4.6-1.4-6.8C47,1523.1,43.1,1520,38.3,1517.7z M49,1531.7c0.601,2.6,0.8,5.3-0.3,7.8c-0.8,1.9-1.9,3.6-3.1,5.2
		c-1.5,1.899-3.801,2.7-6.101,3c-9.3,1.5-16.399-5.101-17.8-12.9c-0.1-0.6,0.1-0.899,0.7-0.8c0.3,0,0.5,0,0.8-0.1
		c0.2-0.101,0.4-0.301,0.4-0.5c0-0.101-0.301-0.4-0.5-0.4c-0.5-0.1-1,0-1.601,0c0.101-3.2,0.9-6.1,2.5-8.8c1.4,1,1.4,1,1.8,0.399
		v-0.1c-1.199-1.4-1.199-1.4,0.101-2.8c1.399-1.4,3.1-2.4,5.1-2.801c0.8-0.199,1.7-0.399,2.601-0.699c0,0.6,0.1,1,0.1,1.399
		c0,0.2,0.3,0.4,0.4,0.4c0.199,0,0.399-0.3,0.5-0.4v-0.1c0.199-1.8,0.5-2,2.199-1.3c2.7,1,5.101,2.5,7.101,4.399
		c1.2,1.2,2.2,2.7,3,4.2C47.8,1528.4,48.6,1530,49,1531.7z"/>
	<path fill="#008A2D" d="M37.6,1534c-1,0-2-0.1-3.2-0.2c0.2-1.6,0.3-3,0.5-4.399c0.2-1.9,0.399-3.801,0.6-5.801
		c0-0.3-0.2-0.5-0.3-0.8c-0.1,0-0.3,0.101-0.4,0.101c-0.199,1-0.5,1.899-0.6,2.899c-0.2,1.8-0.3,3.7-0.4,5.5
		c-0.1,0.7-0.199,1.3-0.8,1.7c-0.7,0.5-0.7,1.4-0.2,2.1c0.601,0.7,1.601,1.101,2.101,0.5c0.6-0.6,1.3-0.6,2-0.6
		c1.899,0,3.899,0.1,5.8,0.1c0.3,0,0.6-0.3,0.9-0.399c-0.301-0.2-0.5-0.5-0.801-0.5C41,1534.1,39.3,1534,37.6,1534z"/>
	<path fill="#008A2D" d="M35.1,1543.5C34.8,1546,35,1547,36,1547.1c0-1,0-1.899,0-2.899C36,1543.5,35.7,1543.3,35.1,1543.5z"/>
	<path fill="#008A2D" d="M43.2,1523.2c-0.7,0.7-1.5,1.3-2.3,2c0.7,0.7,0.8,0.7,1.2,0.3c0.5-0.7,1.8-0.9,1.399-2.1
		C43.4,1523.4,43.3,1523.3,43.2,1523.2z"/>
	<path fill="#008A2D" d="M25.9,1541.8c0.1,0.2,0.3,0.4,0.399,0.7c0.301-0.1,0.801,0,0.9-0.2c0.4-0.6,1.5-1,0.6-2.3
		C27.2,1540.6,26.5,1541.2,25.9,1541.8z"/>
	<path fill="#008A2D" d="M47.8,1532.6c-0.699,0.101-1.8-1-2.1,0.7c0.9,0.101,1.8,0.2,2.7,0.4C48.6,1532.9,48.4,1532.5,47.8,1532.6z"
		/>
	<path fill="#008A2D" d="M45.7,1542.4c0.4-0.801-0.3-2.101-1-2.101c-0.1,0.101-0.3,0.3-0.6,0.601
		C44.6,1541.4,45.2,1541.9,45.7,1542.4z"/>
</g>
</svg>
