<?xml version="1.0" encoding="utf-8"?>
<!-- Generator: Adobe Illustrator 16.0.0, SVG Export Plug-In . SVG Version: 6.00 Build 0)  -->
<!DOCTYPE svg PUBLIC "-//W3C//DTD SVG 1.1//EN" "http://www.w3.org/Graphics/SVG/1.1/DTD/svg11.dtd">
<svg version="1.1" id="Layer_1" xmlns="http://www.w3.org/2000/svg" xmlns:xlink="http://www.w3.org/1999/xlink" x="0px" y="0px"
	 width="141.7px" height="50.6px" viewBox="0 0 141.7 50.6" style="enable-background:new 0 0 141.7 50.6;" xml:space="preserve">
<style type="text/css">
<![CDATA[
	.st0{fill:#7AA540;}
	.st1{fill:#FFFFFF;}
]]>
</style>
<g>
	<path class="st1" d="M19.1,10.7c0,1.6,0,2.9-0.3,4.2c2.2-2.3,4.7-3.4,7.2-3.4c4.6,0,6.8,2.7,6.8,9.8c0,6.4-1.9,9.9-8.3,9.9
		c-2.6,0-6.1-0.5-8.6-1.3V3.7h3.3V10.7z M19.1,27.7c1.8,0.5,3.7,0.7,5.3,0.7c3.6,0,5-1.8,5-7.1c0-5.2-0.9-6.9-4.5-6.9
		c-2,0-3.5,1.1-5.7,2.8V27.7z"/>
	<path class="st1" d="M38.6,4c0.7,0,1,0.4,1,1v2.2c0,0.7-0.3,1-1,1h-1.5c-0.7,0-1-0.3-1-1V5c0-0.6,0.3-1,1-1H38.6z M36.2,30.7V11.9
		h3.2v18.8H36.2z"/>
	<path class="st1" d="M59.7,30.7h-2.5L56.9,28c-2,1.8-4.5,3.2-7.4,3.2c-4.7,0-6.6-3.4-6.6-9.9c0-7.3,2.3-9.8,7.1-9.8
		c2.3,0,4.6,0.5,6.7,1.7c-0.1-1.3-0.2-2.4-0.2-3.7V3.7h3.3V30.7z M56.4,15.4c-2.2-0.6-3.8-1-5.7-1c-3.2,0-4.5,1.4-4.5,6.9
		c0,5.6,1.3,7.1,4.3,7.1c2.1,0,3.4-0.8,5.9-2.6V15.4z"/>
	<path class="st0" d="M69.7,11.9l-3.4,6H62l4.4-7.3l-4.1-6.9h4.4l3,5.5H70l3-5.5h4.4l-4.1,6.9l4.4,7.3h-4.4l-3.4-6H69.7z"/>
</g>
</svg>
