<?xml version="1.0" encoding="utf-8"?>
<!-- Generator: Adobe Illustrator 16.0.0, SVG Export Plug-In . SVG Version: 6.00 Build 0)  -->
<!DOCTYPE svg PUBLIC "-//W3C//DTD SVG 1.1//EN" "http://www.w3.org/Graphics/SVG/1.1/DTD/svg11.dtd">
<svg version="1.1" id="Layer_1" xmlns="http://www.w3.org/2000/svg" xmlns:xlink="http://www.w3.org/1999/xlink" x="0px" y="0px"
	 width="150.2px" height="42.5px" viewBox="0 0 150.2 42.5" style="enable-background:new 0 0 150.2 42.5;" xml:space="preserve">
<style type="text/css">
<![CDATA[
	.st0{fill:#7AA540;}
	.st1{fill:#231F20;}
	.st2{fill:#FFFFFF;}
	.st3{fill:#0D753B;}
]]>
</style>
<g id="New_Symbol">
	<g>
		<path class="st0" d="M9.6,7.2c0,1.6-0.2,3.2-0.6,4.7c1.6-1.5,3.8-2.8,6.3-2.8c5.4,0,7.3,2.9,7.3,10c0,5.2-1.6,10.4-10.5,10.4
			c-2.8,0-8.6-0.5-10.9-1.6v-26h8.2L9.6,7.2z M9.5,23.8c0.9,0.1,1.9,0.2,2.6,0.2c1.7-0.1,2.2-0.9,2.2-4.9c0-3.3-0.5-4-2.4-4
			c-1,0-1.7,0.2-2.4,0.5V23.8z"/>
		<path class="st0" d="M35.7,1.8h8.2v26c-2.3,1.2-8,1.6-10.9,1.6c-8.9,0-10.4-5.2-10.4-10.4c0-7.1,1.9-10,7.3-10
			c2.5,0,4.7,1.4,6.3,2.8c-0.4-1.5-0.6-3.1-0.6-4.7L35.7,1.8z M35.7,15.6c-0.7-0.3-1.4-0.5-2.4-0.5c-1.9,0-2.4,0.7-2.4,4
			c0,4,0.5,4.8,2.2,4.9c0.6,0,1.7,0,2.6-0.2V15.6z"/>
		<g>
			<path class="st3" d="M18.2,29.3V9.2H27v20.1H18.2z M20.8,7.8c-1.8,0-2.7-0.9-2.7-2.7v-2c0-1.8,0.9-2.7,2.7-2.7h3.5
				c1.8,0,2.7,0.9,2.7,2.7v2c0,1.8-0.9,2.7-2.7,2.7H20.8z"/>
			<path class="st2" d="M24.3,0.6c1.6,0,2.4,0.8,2.4,2.4v2c0,1.6-0.8,2.4-2.4,2.4h-3.5c-1.6,0-2.4-0.8-2.4-2.4v-2
				c0-1.6,0.8-2.4,2.4-2.4H24.3 M26.6,9.5V29h-8.1V9.5H26.6 M24.3,0h-3.5c-1.9,0-3,1.1-3,3.1v2c0,2,1.1,3.1,3,3.1h3.5
				c1.9,0,3-1.1,3-3.1v-2C27.3,1.1,26.2,0,24.3,0L24.3,0z M27.3,8.9h-0.6h-8.1h-0.6v0.6V29v0.6h0.6h8.1h0.6V29V9.5V8.9L27.3,8.9z"/>
		</g>
		<g>
			<polygon class="st3" points="54.6,29.3 51,22.4 47.4,29.3 38.5,29.3 44.3,19.1 39,9.2 47.8,9.2 51,15.6 54.2,9.2 63,9.2 
				57.6,19.1 63.4,29.3 			"/>
			<path class="st2" d="M62.4,9.5l-5.2,9.5l5.6,9.9h-8.1L51,21.7L47.2,29h-8.1l5.6-9.9l-5.2-9.5h8l3.4,6.8l3.4-6.8H62.4 M63.5,8.9
				h-1.1h-8H54l-0.2,0.4L51,14.9l-2.8-5.6L48,8.9h-0.4h-8h-1.1l0.5,1l5,9.2l-5.5,9.6l-0.6,1h1.1h8.1h0.4l0.2-0.3l3.2-6.2l3.2,6.2
				l0.2,0.3h0.4h8.1H64l-0.6-1L58,19.1l5-9.2L63.5,8.9L63.5,8.9z"/>
		</g>
		<path class="st0" d="M64.9,24.8c0.7,0,1,0.3,1,1V28c0,0.7-0.3,1-1,1H64c-0.7,0-0.9-0.3-0.9-1v-2.2c0-0.7,0.3-1,0.9-1H64.9z"/>
		<path class="st3" d="M68.8,18.8C71,17,73,16.1,75,16.1c2.2,0,3.4,1.2,3.4,3.5v9.5h-0.6v-9.5c0-2-1-2.9-2.9-2.9
			c-1.9,0-3.5,0.9-6,2.6v9.8h-0.6V16.4h0.5L68.8,18.8z"/>
		<path class="st3" d="M80.7,23.1c0.1,4.3,1.6,5.7,5.1,5.7c1.7,0,3.3-0.2,4.3-0.3l0.1,0.5c-0.8,0.3-3.1,0.5-4.5,0.5
			c-4,0-5.7-1.9-5.7-6.7c0-4.9,1.5-6.6,5.4-6.6c3.3,0,4.9,1.2,5,3.6c0.1,2.2-0.7,3.4-2.7,3.4H80.7z M87.7,22.5c1.6,0,2.1-1,2.1-2.8
			c-0.1-2.1-1.5-3-4.3-3c-3.5,0-4.8,1.6-4.8,5.8H87.7z"/>
		<path class="st3" d="M93.6,26.6c0,1.4,0.8,2.1,2.1,2.1H98l0.1,0.4c-0.7,0.1-1.8,0.2-2.2,0.2c-2,0-2.9-1-2.9-2.7V17h-2.3v-0.4
			l2.3-0.1v-4h0.6v4h4.7V17h-4.7V26.6z"/>
	</g>
	<g>
		<path class="st1" d="M7.3,38.8c-0.2,1.7-1.3,2.8-3.6,2.9c-0.3,0-1.5,0-2.2-0.2l0.1-0.7c0.5,0,1.1,0,2.1,0c1.2,0,2.2-0.5,2.5-1.7
			c0.1-0.6,0.2-1.2,0.5-1.6c-0.7,0.9-1.8,1.7-3.1,1.7c-1.4,0-2-0.8-1.6-3.4c0.4-2.9,1.4-3.2,3-3.2c1,0,2.2,0.1,3.1,0.3h0L7.3,38.8z
			 M7,33.4c-0.6,0-1.2,0-1.5,0c-1.7,0-2,0.3-2.3,2.4c-0.3,1.9-0.1,2.3,0.8,2.3c0.8,0,1.6-0.5,2.6-1.4L7,33.4z"/>
		<path class="st1" d="M15.2,33.5h-0.3c-0.7,0-1.5,0.5-2.6,1.4l-0.6,4.1h-1.1l0.9-6.3h0.8l-0.1,1.5c1.1-1,2-1.6,2.9-1.6h0.3
			L15.2,33.5z"/>
		<path class="st1" d="M22.8,35.8c-0.3,2.4-1.2,3.3-3.4,3.3c-2.1,0-2.9-0.9-2.6-3.4c0.3-2.4,1.2-3.3,3.4-3.3
			C22.3,32.4,23.1,33.4,22.8,35.8z M18,35.8c-0.3,1.8,0.1,2.3,1.4,2.3c1.4,0,2-0.6,2.2-2.4c0.3-1.8-0.1-2.4-1.4-2.4
			C18.8,33.4,18.2,33.9,18,35.8z"/>
		<path class="st1" d="M27.5,38.1c0.2,0,0.4-0.1,0.6-0.5c0.2-0.4,0.5-1,0.7-1.8c0.3-0.9,0.4-1.5,0.7-3c0-0.2,0.2-0.3,0.3-0.3H31
			c0.2,0,0.3,0.1,0.3,0.3l0.6,5.2h0.2c0.2,0,0.4-0.2,0.5-0.4c0.3-0.5,0.6-0.9,0.9-1.8c0.4-1,0.6-2.1,0.8-3.2h1.2
			c-0.3,1.3-0.7,2.5-1.2,3.7c-0.4,0.9-0.8,1.7-1.1,2c-0.3,0.4-0.6,0.6-1.1,0.6h-0.7c-0.2,0-0.3-0.1-0.4-0.3l-0.6-5.3h-0.2
			c-0.1,0.7-0.3,1.9-0.6,2.8c-0.2,0.8-0.6,1.5-0.9,2c-0.4,0.6-0.9,0.8-1.4,0.8h-0.6c-0.2,0-0.3-0.1-0.4-0.3l-1.2-6h1.1l0.9,5.5H27.5
			z"/>
		<path class="st1" d="M48,32.6c-0.4,1.8-0.9,3.5-1.9,5.3c-1.4,2.6-2.6,3.4-4.2,3.7l-0.2-0.8c1-0.2,1.8-0.7,2.7-1.9h-0.6
			c-0.4,0-0.7-0.2-0.7-0.6l-1.2-5.7H43l1,5.2c0,0.2,0.1,0.2,0.3,0.2h0.6c0.1-0.2,0.2-0.3,0.3-0.5c0.8-1.6,1.3-3,1.7-5H48z"/>
		<path class="st1" d="M56,35.8c-0.3,2.4-1.2,3.3-3.4,3.3c-2.1,0-2.9-0.9-2.6-3.4c0.3-2.4,1.2-3.3,3.4-3.3
			C55.6,32.4,56.3,33.4,56,35.8z M51.2,35.8c-0.3,1.8,0.1,2.3,1.4,2.3c1.4,0,2-0.6,2.2-2.4c0.3-1.8-0.1-2.4-1.4-2.4
			C52,33.4,51.5,33.9,51.2,35.8z"/>
		<path class="st1" d="M63.9,38.9H63l0.1-1.4c-1.1,1-2,1.5-2.9,1.5c-1.2,0-1.7-0.7-1.5-1.8l0.7-4.7h1.1l-0.6,4.5
			c-0.1,0.8,0.1,1.1,0.8,1.1c0.8,0,1.5-0.5,2.5-1.5l0.6-4.1h1.1L63.9,38.9z"/>
		<path class="st1" d="M71.7,33.5h-0.3c-0.7,0-1.5,0.5-2.6,1.4l-0.6,4.1h-1.1l0.9-6.3h0.8l-0.1,1.5c1.1-1,2-1.6,2.9-1.6H72
			L71.7,33.5z"/>
		<path class="st1" d="M79.8,32.5c-0.1,0.6-0.2,1-0.3,1.5c0.8-0.8,1.9-1.6,2.8-1.6c1.4,0,2,0.7,1.7,3.4c-0.4,2.9-1.4,3.3-3,3.3
			c-1,0-2.2-0.2-3.1-0.5l1.2-8.8h1.1L79.8,32.5z M79,38.1c0.7,0.1,1.2,0.1,1.5,0.1c1.7,0,2-0.3,2.3-2.4c0.3-2,0.1-2.4-0.8-2.4
			c-0.6,0-1.5,0.5-2.6,1.4L79,38.1z"/>
		<path class="st1" d="M91.9,38.9h-0.9l0.1-1.4c-1.1,1-2,1.5-2.9,1.5c-1.2,0-1.7-0.7-1.5-1.8l0.7-4.7h1.1l-0.6,4.5
			c-0.1,0.8,0.1,1.1,0.8,1.1c0.8,0,1.5-0.5,2.5-1.5l0.6-4.1h1.1L91.9,38.9z"/>
		<path class="st1" d="M96.5,35.7c-0.9-0.4-1.3-0.9-1.2-1.8c0.2-1.2,1-1.5,2.7-1.5c0.9,0,1.9,0.1,2.7,0.2l-0.1,0.8
			c-0.8,0-1.6-0.1-2.5-0.1c-1.1,0-1.5,0-1.6,0.7c-0.1,0.5,0.2,0.7,0.8,0.9l1.8,0.8c1,0.4,1.4,0.8,1.3,1.8c-0.2,1.4-1.2,1.6-3,1.6
			c-1.2,0-1.5-0.1-2.4-0.2l0.1-0.8c0.6,0.1,1.4,0.1,2,0.1c1.6,0,2-0.1,2.1-0.7c0.1-0.5-0.2-0.6-0.8-0.9L96.5,35.7z"/>
		<path class="st1" d="M102.7,38.9l0.9-6.3h1.1l-0.9,6.3H102.7z M104.7,29.9c0.2,0,0.4,0.2,0.3,0.4l-0.1,0.7c0,0.2-0.1,0.3-0.4,0.3
			h-0.5c-0.2,0-0.4-0.1-0.3-0.4l0.1-0.7c0-0.2,0.1-0.3,0.4-0.3H104.7z"/>
		<path class="st1" d="M108.7,34c1.1-1,2.1-1.5,3.1-1.5c1.1,0,1.7,0.6,1.5,1.8l-0.7,4.7h-1.1l0.6-4.5c0.1-0.8-0.1-1.1-0.7-1.1
			c-0.8,0-1.6,0.5-2.7,1.4l-0.6,4.1H107l0.9-6.3h0.9L108.7,34z"/>
		<path class="st1" d="M121.1,38.7c-0.7,0.3-1.8,0.4-2.6,0.4c-2.2,0-2.9-1.1-2.6-3.5c0.4-2.5,1.2-3.2,3.5-3.2c2,0,2.6,0.7,2.4,2
			c-0.2,1.2-0.9,1.7-2.4,1.8l-2.3,0.2c0,1.4,0.6,1.7,1.7,1.7c0.7,0,1.6-0.1,2.3-0.2L121.1,38.7z M119.4,35.4c0.8-0.1,1.2-0.3,1.3-1
			c0.2-1-0.4-1-1.4-1c-1.4,0-1.9,0.4-2.2,2.3L119.4,35.4z"/>
		<path class="st1" d="M125.4,35.7c-0.9-0.4-1.3-0.9-1.2-1.8c0.2-1.2,1-1.5,2.7-1.5c0.9,0,1.9,0.1,2.7,0.2l-0.1,0.8
			c-0.8,0-1.6-0.1-2.5-0.1c-1.1,0-1.5,0-1.6,0.7c-0.1,0.5,0.2,0.7,0.8,0.9l1.8,0.8c1,0.4,1.4,0.8,1.3,1.8c-0.2,1.4-1.2,1.6-3,1.6
			c-1.2,0-1.5-0.1-2.4-0.2l0.1-0.8c0.6,0.1,1.4,0.1,2,0.1c1.6,0,2-0.1,2.1-0.7c0.1-0.5-0.2-0.6-0.8-0.9L125.4,35.7z"/>
		<path class="st1" d="M132.9,35.7c-0.9-0.4-1.3-0.9-1.2-1.8c0.2-1.2,1-1.5,2.7-1.5c0.9,0,1.9,0.1,2.7,0.2l-0.1,0.8
			c-0.8,0-1.6-0.1-2.5-0.1c-1.1,0-1.5,0-1.6,0.7c-0.1,0.5,0.2,0.7,0.8,0.9l1.8,0.8c1,0.4,1.4,0.8,1.3,1.8c-0.2,1.4-1.2,1.6-3,1.6
			c-1.2,0-1.5-0.1-2.4-0.2l0.1-0.8c0.6,0.1,1.4,0.1,2,0.1c1.6,0,2-0.1,2.1-0.7c0.1-0.5-0.2-0.6-0.8-0.9L132.9,35.7z"/>
	</g>
</g>
</svg>
