<?xml version="1.0" encoding="utf-8"?>
<!-- Generator: Adobe Illustrator 16.0.0, SVG Export Plug-In . SVG Version: 6.00 Build 0)  -->
<!DOCTYPE svg PUBLIC "-//W3C//DTD SVG 1.1//EN" "http://www.w3.org/Graphics/SVG/1.1/DTD/svg11.dtd">
<svg version="1.1" id="Layer_1" xmlns="http://www.w3.org/2000/svg" xmlns:xlink="http://www.w3.org/1999/xlink" x="0px" y="0px"
	 width="141.7px" height="56.7px" viewBox="0 0 141.7 56.7" style="enable-background:new 0 0 141.7 56.7;" xml:space="preserve">
<style type="text/css">
<![CDATA[
	.st0{fill:#FFFFFF;}
	.st1{fill:#009444;}
]]>
</style>
<g>
	<path class="st0" d="M85.6,34.2"/>
	<g>
		<path class="st0" d="M31.5,8.9v14.3h0.1c0.7-1.5,1.9-2.7,3.5-3.3c1.6-0.7,3.4-1,5.3-1c2.1,0,4,0.4,5.6,1.2c1.6,0.8,2.9,1.8,4,3.2
			c1.1,1.3,1.9,2.9,2.4,4.6c0.5,1.7,0.8,3.6,0.8,5.6c0,2-0.3,3.8-0.8,5.6c-0.5,1.8-1.3,3.3-2.4,4.6c-1.1,1.3-2.4,2.3-4,3.1
			c-1.6,0.8-3.4,1.1-5.5,1.1c-0.7,0-1.4-0.1-2.3-0.2c-0.8-0.1-1.7-0.4-2.5-0.7c-0.8-0.3-1.6-0.8-2.3-1.3c-0.7-0.6-1.3-1.2-1.8-2.1
			h-0.1v3.7h-4.6V8.9H31.5z M47.9,29.3C47.5,28.1,47,27,46.3,26c-0.7-1-1.6-1.7-2.7-2.3c-1.1-0.6-2.4-0.9-3.8-0.9
			c-1.5,0-2.8,0.3-3.9,0.9c-1.1,0.6-1.9,1.4-2.6,2.4c-0.7,1-1.2,2.1-1.5,3.4c-0.3,1.3-0.5,2.5-0.5,3.8c0,1.4,0.2,2.7,0.5,3.9
			c0.3,1.3,0.8,2.4,1.5,3.4c0.7,1,1.6,1.8,2.7,2.3c1.1,0.6,2.4,0.9,4,0.9c1.6,0,2.9-0.3,3.9-0.9c1.1-0.6,1.9-1.4,2.5-2.4
			c0.6-1,1.1-2.1,1.4-3.4c0.3-1.3,0.4-2.6,0.4-4C48.4,31.8,48.2,30.5,47.9,29.3z"/>
		<path class="st0" d="M56.4,14.5V8.9h4.6v5.6H56.4z M60.9,19.5v27.7h-4.6V19.5H60.9z"/>
		<path class="st0" d="M85.7,47.2v-3.8h-0.1c-0.8,1.5-1.9,2.6-3.5,3.3c-1.6,0.7-3.4,1-5.3,1c-2.1,0-4-0.4-5.6-1.2
			c-1.6-0.8-2.9-1.8-4-3.2c-1.1-1.3-1.8-2.9-2.4-4.6c-0.5-1.7-0.8-3.6-0.8-5.6c0-2,0.3-3.8,0.8-5.6c0.5-1.7,1.3-3.3,2.4-4.6
			c1.1-1.3,2.4-2.3,4-3.1c1.6-0.8,3.4-1.2,5.5-1.2c0.7,0,1.5,0.1,2.3,0.2c0.8,0.1,1.6,0.4,2.5,0.7c0.8,0.3,1.6,0.8,2.3,1.3
			c0.7,0.6,1.3,1.2,1.8,2.1h0.1V8.9h4.6v38.3H85.7z M69.4,37.4c0.3,1.2,0.9,2.3,1.6,3.3c0.7,1,1.6,1.7,2.7,2.3
			c1.1,0.6,2.4,0.9,3.8,0.9c1.5,0,2.8-0.3,3.9-0.9c1.1-0.6,2-1.4,2.6-2.4c0.7-1,1.2-2.1,1.5-3.3c0.3-1.3,0.5-2.5,0.5-3.8
			c0-1.4-0.2-2.7-0.5-3.9c-0.3-1.3-0.8-2.4-1.5-3.4c-0.7-1-1.6-1.7-2.7-2.3c-1.1-0.6-2.5-0.9-4-0.9c-1.5,0-2.8,0.3-3.9,0.9
			c-1.1,0.6-1.9,1.4-2.6,2.4c-0.6,1-1.1,2.1-1.4,3.4c-0.3,1.3-0.4,2.6-0.4,4C68.8,34.9,69,36.1,69.4,37.4z"/>
	</g>
	<path class="st0" d="M85.6,43.6"/>
	<g>
		<path class="st1" d="M94.9,8.9h4.7l5.1,7.9l5.3-7.9h4.4l-7.4,10.8l7.9,11.6h-4.8l-5.6-8.5l-5.7,8.5h-4.5l7.9-11.6L94.9,8.9z"/>
	</g>
</g>
</svg>
